<?xml version="1.0" encoding="UTF-8"?>
<!DOCTYPE svg PUBLIC "-//W3C//DTD SVG 1.1//EN" "http://www.w3.org/Graphics/SVG/1.1/DTD/svg11.dtd">
<!-- Creator: CorelDRAW 2020 (64-Bit) -->
<svg xmlns="http://www.w3.org/2000/svg" xml:space="preserve" width="33.161mm" height="33.1611mm" version="1.1"
     style="shape-rendering:geometricPrecision; text-rendering:geometricPrecision; image-rendering:optimizeQuality; fill-rule:evenodd; clip-rule:evenodd"
     viewBox="0 0 76.39 76.39"
>
 <defs>
  <style type="text/css">
   <![CDATA[
    .str0 {stroke:black;stroke-width:0.33;stroke-miterlimit:22.9256}
    .str1 {stroke:black;stroke-width:0.33;stroke-linejoin:round;stroke-miterlimit:22.9256}
    .str2 {stroke:black;stroke-width:0.33;stroke-linecap:round;stroke-miterlimit:22.9256}
    .str4 {stroke:black;stroke-width:0.46;stroke-linecap:round;stroke-miterlimit:22.9256}
    .str3 {stroke:black;stroke-width:0.46;stroke-linecap:round;stroke-linejoin:round;stroke-miterlimit:22.9256}
    .fil0 {fill:none}
    .fil3 {fill:black}
    .fil7 {fill:#040404}
    .fil4 {fill:#663333}
    .fil1 {fill:#925328}
    .fil2 {fill:#E3A96E}
    .fil6 {fill:#F9A9AD}
    .fil5 {fill:white}
   ]]>
  </style>
 </defs>
 <g id="Слой_x0020_1">
  <metadata id="CorelCorpID_0Corel-Layer"/>
  <rect class="fil0" x="-0" y="-0" width="76.39" height="76.39"/>
 </g>
 <g id="close">
  <metadata id="CorelCorpID_1Corel-Layer"/>
  <g id="_2152246746016">
   <g>
    <path class="fil1 str0" d="M51.92 43.59c0,0 -1.04,4.83 -1.37,6.13 -0.02,1.42 -6.08,3.2 -9.28,-0.2 -0.52,-2.61 -1.05,-6.37 -1.05,-6.37l11.7 0.44z"/>
    <path class="fil2 str1" d="M45.78 38.82c4.96,-0.14 6.65,3.7 6.67,4.27 0.02,0.57 -0.27,1.16 -1.66,0.49 0.01,1.55 -0.63,1.89 -0.92,1.93 -0.3,0.04 -0.5,0.14 -1.28,-0.76 -0.33,0.82 -0.57,1.3 -1.18,1.3 -0.61,0 -1,-0.77 -1.28,-1.26 -0.54,0.93 -1.02,1.33 -1.57,1.29 -0.55,-0.03 -0.81,-0.82 -1.02,-1.42 -0.53,0.53 -1.2,0.82 -1.66,0.69 -0.46,-0.14 -0.66,-0.37 -0.58,-2.09 -0.43,0.37 -0.95,0.83 -1.31,0.67 -1.8,-0.78 0.83,-4.97 5.79,-5.1z"/>
    <path class="fil0 str2" d="M50.07 41.77c-0.46,0.58 -7.68,3.57 -9.16,-1.09"/>
    <circle class="fil3" cx="51.38" cy="42.9" r="0.27"/>
    <circle class="fil3" cx="49.63" cy="44.36" r="0.27"/>
    <circle class="fil3" cx="47.38" cy="45.07" r="0.27"/>
    <circle class="fil3" cx="44.66" cy="44.95" r="0.27"/>
    <circle class="fil3" cx="42.29" cy="44.2" r="0.27"/>
    <circle class="fil3" cx="40.63" cy="42.74" r="0.27"/>
    <line class="fil0 str0" x1="49.78" y1="45.59" x2="49.32" y2= "50.97" />
    <line class="fil0 str0" x1="47.36" y1="46.05" x2="47.2" y2= "51.44" />
    <line class="fil0 str0" x1="44.56" y1="46.08" x2="44.53" y2= "51.3" />
    <line class="fil0 str0" x1="41.88" y1="45.35" x2="42.06" y2= "50.23" />
   </g>
   <g>
    <path class="fil1 str0" d="M21.84 43.59c0,0 1.04,4.83 1.37,6.13 0.02,1.42 6.08,3.2 9.28,-0.2 0.52,-2.61 1.05,-6.37 1.05,-6.37l-11.7 0.44z"/>
    <path class="fil2 str1" d="M27.98 38.82c-4.96,-0.14 -6.65,3.7 -6.67,4.27 -0.02,0.57 0.27,1.16 1.66,0.49 -0.01,1.55 0.63,1.89 0.92,1.93 0.3,0.04 0.5,0.14 1.28,-0.76 0.33,0.82 0.57,1.3 1.18,1.3 0.61,0 1,-0.77 1.28,-1.26 0.54,0.93 1.02,1.33 1.57,1.29 0.55,-0.03 0.81,-0.82 1.02,-1.42 0.53,0.53 1.2,0.82 1.66,0.69 0.46,-0.14 0.66,-0.37 0.58,-2.09 0.43,0.37 0.95,0.83 1.31,0.67 1.8,-0.78 -0.83,-4.97 -5.79,-5.1z"/>
    <path class="fil0 str2" d="M23.68 41.77c0.46,0.58 7.68,3.57 9.16,-1.09"/>
    <circle class="fil3" cx="22.38" cy="42.9" r="0.27"/>
    <circle class="fil3" cx="24.13" cy="44.36" r="0.27"/>
    <circle class="fil3" cx="26.38" cy="45.07" r="0.27"/>
    <circle class="fil3" cx="29.09" cy="44.95" r="0.27"/>
    <circle class="fil3" cx="31.47" cy="44.2" r="0.27"/>
    <circle class="fil3" cx="33.13" cy="42.74" r="0.27"/>
    <line class="fil0 str0" x1="23.97" y1="45.59" x2="24.44" y2= "50.97" />
    <line class="fil0 str0" x1="26.4" y1="46.05" x2="26.55" y2= "51.44" />
    <line class="fil0 str0" x1="29.19" y1="46.08" x2="29.23" y2= "51.3" />
    <line class="fil0 str0" x1="31.87" y1="45.35" x2="31.69" y2= "50.23" />
   </g>
  </g>
  <g id="_2152246716016">
   <path class="fil4" d="M24.67 41.37c0.24,0.12 1.3,-0.35 1.26,-0.61 -0.05,-0.32 -0.39,-0.16 -0.55,-0.05 -0.47,0.32 -0.98,0.39 -0.7,0.65z"/>
   <path class="fil4" d="M27.67 42.03l0.01 0.05c0.04,0.32 0.08,0.82 0.43,0.57 0.14,-0.14 0.11,-0.11 0.09,-0.37 -0.1,-0.98 -0.57,-0.62 -0.52,-0.25z"/>
   <path class="fil4" d="M26.02 41.62c-0.69,0.5 -0.3,0.88 0.02,0.67 0.07,-0.05 0.41,-0.42 0.43,-0.53 0.06,-0.27 -0.24,-0.29 -0.46,-0.14z"/>
   <path class="fil5 str3" d="M32.06 38.95c0,0 -1.54,0.91 -2.56,1.33 -1.02,0.41 -3.81,0.29 -2.1,-1.98l3.02 -4.01 3.1 -3.26c0.54,-0.57 1.68,-1.26 1.87,-1.31 0.2,-0.05 1.14,-2.33 1.33,-2.25 0.19,0.07 1.5,1.02 1.96,1.58 0.19,0.24 1.27,-0.24 4.09,0.27 2.82,0.51 4.68,1.22 5.07,1.36 0.39,0.14 2.32,-1.61 2.48,-1.55 0.13,0.06 0.8,1.96 0.56,4.51 -0.03,0.35 -0.13,0.67 0.02,0.8 1.35,1.23 3.4,4.4 2.64,4.4l-21.47 0.11z"/>
   <path class="fil0 str4" d="M45.29 38.85l-0.72 -2.9c-0.16,-0.64 0.42,-2.05 1.6,-2.06 1.18,-0.02 2.58,1.62 2.58,1.62"/>
   <path class="fil6" d="M46.53 35.65c-1.07,0.52 -0.33,1.69 0.49,1.4 0.33,-0.12 0.6,-0.53 0.44,-0.96 -0.12,-0.32 -0.51,-0.64 -0.93,-0.44z"/>
   <path class="fil7" d="M36.73 35.32c-0.43,0.51 0.59,1.21 1.45,0.5 0.16,0.1 0.06,0.05 0.19,0.16 0.06,0.06 0.1,0.09 0.19,0.14 0.69,0.38 1.66,-0.09 1.31,-0.42 -0.32,-0.16 -0.55,0.16 -0.92,0.09 -0.39,-0.07 -0.33,-0.48 -0.61,-0.56 -0.24,-0.08 -0.46,0.29 -0.72,0.39 -0.59,0.23 -0.35,-0.31 -0.88,-0.3z"/>
   <path class="fil7" d="M35.04 34.69c-0.38,0.1 -0.56,0.33 -0.51,0.79 0.04,0.39 0.3,0.66 0.73,0.51 0.86,-0.29 0.45,-1.48 -0.22,-1.3z"/>
   <path class="fil7" d="M43.27 35.37c-0.76,0.22 -0.68,1.36 0.1,1.19 0.81,-0.18 0.42,-1.33 -0.1,-1.19z"/>
   <path class="fil6" d="M46.63 34.86c-0.01,0.74 0.69,0.56 0.75,0.22 0.03,-0.2 -0.11,-0.42 -0.28,-0.46 -0.22,-0.05 -0.34,0.14 -0.47,0.24z"/>
   <path class="fil6" d="M45.13 36.12c0.14,0.11 0.2,0.24 0.45,0.16 0.19,-0.06 0.35,-0.22 0.25,-0.49 -0.1,-0.29 -0.77,-0.41 -0.7,0.33z"/>
   <path class="fil6" d="M45.7 34.6c-0.6,0.3 -0.18,0.83 0.22,0.69 0.42,-0.15 0.18,-0.88 -0.22,-0.69z"/>
  </g>
 </g>
</svg>
