<?xml version="1.0" encoding="UTF-8"?>
<!DOCTYPE svg PUBLIC "-//W3C//DTD SVG 1.1//EN" "http://www.w3.org/Graphics/SVG/1.1/DTD/svg11.dtd">
<!-- Creator: CorelDRAW 2020 (64-Bit) -->
<svg xmlns="http://www.w3.org/2000/svg" xml:space="preserve" width="33.161mm" height="33.1611mm" version="1.1" style="shape-rendering:geometricPrecision; text-rendering:geometricPrecision; image-rendering:optimizeQuality; fill-rule:evenodd; clip-rule:evenodd"
viewBox="0 0 68.68 68.68"
 xmlns:xlink="http://www.w3.org/1999/xlink"
 xmlns:xodm="http://www.corel.com/coreldraw/odm/2003">
 <defs>
  <style type="text/css">
   <![CDATA[
    .str0 {stroke:black;stroke-width:0.29;stroke-miterlimit:22.9256}
    .str1 {stroke:black;stroke-width:0.29;stroke-linejoin:round;stroke-miterlimit:22.9256}
    .str2 {stroke:black;stroke-width:0.29;stroke-linecap:round;stroke-miterlimit:22.9256}
    .str3 {stroke:black;stroke-width:0.41;stroke-linecap:round;stroke-miterlimit:22.9256}
    .str4 {stroke:black;stroke-width:0.41;stroke-linecap:round;stroke-linejoin:round;stroke-miterlimit:22.9256}
    .fil0 {fill:none}
    .fil3 {fill:black}
    .fil6 {fill:#040404}
    .fil7 {fill:#663333}
    .fil1 {fill:#925328}
    .fil2 {fill:#E3A96E}
    .fil5 {fill:#F9A9AD}
    .fil4 {fill:white}
   ]]>
  </style>
 </defs>
 <g id="Слой_x0020_1">
  <metadata id="CorelCorpID_0Corel-Layer"/>
  <rect class="fil0" x="-0" y="-0" width="68.68" height="68.68"/>
 </g>
 <g id="close">
  <metadata id="CorelCorpID_1Corel-Layer"/>
  <g id="_2152246724800">
   <g>
    <path class="fil1 str0" d="M46.59 39.25c0,0 -0.93,4.34 -1.23,5.51 -0.01,1.27 -5.47,2.88 -8.34,-0.18 -0.47,-2.34 -0.95,-5.73 -0.95,-5.73l10.52 0.4z"/>
    <path class="fil2 str1" d="M41.07 34.96c4.46,-0.12 5.98,3.33 5.99,3.84 0.02,0.51 -0.24,1.04 -1.49,0.44 0.01,1.4 -0.57,1.7 -0.83,1.73 -0.27,0.03 -0.45,0.12 -1.15,-0.69 -0.29,0.74 -0.51,1.16 -1.06,1.17 -0.55,0 -0.9,-0.69 -1.15,-1.14 -0.48,0.83 -0.92,1.19 -1.41,1.16 -0.49,-0.03 -0.73,-0.73 -0.92,-1.27 -0.48,0.48 -1.08,0.74 -1.49,0.62 -0.41,-0.12 -0.59,-0.33 -0.52,-1.88 -0.39,0.33 -0.86,0.74 -1.18,0.6 -1.62,-0.7 0.74,-4.47 5.2,-4.59z"/>
    <path class="fil0 str2" d="M44.93 37.6c-0.41,0.52 -6.9,3.21 -8.24,-0.98"/>
    <circle class="fil3" cx="46.1" cy="38.62" r="0.24"/>
    <circle class="fil3" cx="44.53" cy="39.93" r="0.24"/>
    <circle class="fil3" cx="42.51" cy="40.58" r="0.24"/>
    <circle class="fil3" cx="40.07" cy="40.47" r="0.24"/>
    <circle class="fil3" cx="37.93" cy="39.79" r="0.24"/>
    <circle class="fil3" cx="36.44" cy="38.48" r="0.24"/>
    <line class="fil0 str0" x1="44.67" y1="41.04" x2="44.25" y2= "45.87" />
    <line class="fil0 str0" x1="42.49" y1="41.45" x2="42.35" y2= "46.3" />
    <line class="fil0 str0" x1="39.98" y1="41.48" x2="39.95" y2= "46.17" />
    <line class="fil0 str0" x1="37.57" y1="40.82" x2="37.73" y2= "45.21" />
   </g>
   <g>
    <path class="fil1 str0" d="M19.55 39.25c0,0 0.93,4.34 1.23,5.51 0.01,1.27 5.47,2.88 8.34,-0.18 0.47,-2.34 0.95,-5.73 0.95,-5.73l-10.52 0.4z"/>
    <path class="fil2 str1" d="M25.07 34.96c-4.46,-0.12 -5.98,3.33 -5.99,3.84 -0.02,0.51 0.24,1.04 1.49,0.44 -0.01,1.4 0.57,1.7 0.83,1.73 0.27,0.03 0.45,0.12 1.15,-0.69 0.29,0.74 0.51,1.16 1.06,1.17 0.55,0 0.9,-0.69 1.15,-1.14 0.48,0.83 0.92,1.19 1.41,1.16 0.49,-0.03 0.73,-0.73 0.92,-1.27 0.48,0.48 1.08,0.74 1.49,0.62 0.41,-0.12 0.59,-0.33 0.52,-1.88 0.39,0.33 0.86,0.74 1.18,0.6 1.62,-0.7 -0.74,-4.47 -5.2,-4.59z"/>
    <path class="fil0 str2" d="M21.21 37.6c0.41,0.52 6.9,3.21 8.24,-0.98"/>
    <circle class="fil3" cx="20.03" cy="38.62" r="0.24"/>
    <circle class="fil3" cx="21.6" cy="39.93" r="0.24"/>
    <circle class="fil3" cx="23.63" cy="40.58" r="0.24"/>
    <circle class="fil3" cx="26.07" cy="40.47" r="0.24"/>
    <circle class="fil3" cx="28.21" cy="39.79" r="0.24"/>
    <circle class="fil3" cx="29.7" cy="38.48" r="0.24"/>
    <line class="fil0 str0" x1="21.47" y1="41.04" x2="21.88" y2= "45.87" />
    <line class="fil0 str0" x1="23.64" y1="41.45" x2="23.79" y2= "46.3" />
    <line class="fil0 str0" x1="26.16" y1="41.48" x2="26.19" y2= "46.17" />
    <line class="fil0 str0" x1="28.57" y1="40.82" x2="28.4" y2= "45.21" />
   </g>
  </g>
  <g id="_2152246739488">
   <path class="fil4" d="M25.21 34.97c0,0 -1.52,-3.1 -0.03,-4.19 1.49,-1.1 2.99,1.17 2.99,1.17l-0.85 -1.14 2.79 -2.93c0.49,-0.51 1.51,-1.14 1.69,-1.18 0.18,-0.04 1.02,-2.09 1.2,-2.03 0.17,0.07 1.35,0.91 1.76,1.42 0.17,0.21 1.14,-0.22 3.68,0.24 2.53,0.46 4.21,1.1 4.56,1.23 0.35,0.13 2.08,-1.45 2.23,-1.39 0.12,0.05 0.72,1.76 0.51,4.05 -0.03,0.31 -0.12,0.6 0.02,0.72 1.22,1.1 3.06,3.95 2.37,3.96l-4.29 0.04c-0.75,0.64 -1.42,1.72 -2.25,1.91l-0.83 0.19c-0.25,0.05 -0.91,-0.54 -0.79,-0.84l0.5 -1.22 -15.24 -0.01z"/>
   <path class="fil5" d="M26.51 32.31c-1.05,0.23 -0.58,1.48 0.2,1.33 0.89,-0.18 0.58,-1.5 -0.2,-1.33z"/>
   <path class="fil6" d="M32.95 31.82c-0.38,0.46 0.53,1.09 1.3,0.45 0.14,0.09 0.05,0.04 0.17,0.15 0.06,0.05 0.09,0.08 0.17,0.13 0.62,0.34 1.49,-0.08 1.17,-0.38 -0.28,-0.14 -0.5,0.14 -0.83,0.08 -0.35,-0.06 -0.3,-0.43 -0.54,-0.51 -0.22,-0.07 -0.41,0.26 -0.65,0.35 -0.53,0.21 -0.32,-0.28 -0.79,-0.27z"/>
   <path class="fil6" d="M31.43 31.26c-0.34,0.09 -0.5,0.3 -0.46,0.71 0.04,0.35 0.27,0.59 0.65,0.46 0.77,-0.26 0.4,-1.33 -0.2,-1.17z"/>
   <path class="fil6" d="M38.83 31.86c-0.69,0.2 -0.61,1.22 0.09,1.07 0.73,-0.16 0.37,-1.2 -0.09,-1.07z"/>
   <path class="fil5" d="M26.03 31.56c-0.13,-0.11 -0.25,-0.24 -0.47,-0.17 -0.14,0.05 -0.25,0.23 -0.17,0.44 0.12,0.33 0.69,0.38 0.65,-0.27z"/>
   <path class="fil5" d="M25.34 32.31c-0.48,0.2 -0.19,0.77 0.22,0.63 0.39,-0.13 0.2,-0.8 -0.22,-0.63z"/>
   <path class="fil5" d="M26.49 31.6l-0.01 0.34c0.13,0.09 0.19,0.19 0.39,0.15 0.39,-0.07 0.32,-0.61 0.01,-0.66 -0.2,-0.03 -0.26,0.08 -0.39,0.17z"/>
   <path class="fil0 str3" d="M40.71 34.43c0,0 -0.18,0.26 -0.35,0.61 -0.34,0.69 -0.68,1.75 0.3,1.96 1.48,0.33 2.74,-2.25 4.38,-2.25"/>
   <path class="fil0 str4" d="M40.37 35.01l-15.21 0.05c0,0 -1.52,-3.1 -0.03,-4.19 1.49,-1.1 2.99,1.17 2.99,1.17l-0.85 -1.14 2.79 -2.93c0.49,-0.51 1.51,-1.14 1.69,-1.18 0.18,-0.04 1.02,-2.09 1.2,-2.03 0.17,0.07 1.35,0.91 1.76,1.42 0.17,0.21 1.14,-0.22 3.68,0.24 2.53,0.46 4.21,1.1 4.56,1.23 0.35,0.13 2.08,-1.45 2.23,-1.39 0.12,0.05 0.72,1.76 0.51,4.05 -0.03,0.31 -0.12,0.6 0.02,0.72 1.22,1.1 3.06,3.96 2.37,3.96l-3.92 0.01"/>
   <path class="fil7" d="M38.44 38.09c0.23,0.08 1.13,-0.44 1.06,-0.67 -0.08,-0.28 -0.36,-0.1 -0.5,0.01 -0.39,0.33 -0.84,0.45 -0.57,0.65z"/>
   <path class="fil7" d="M41.42 37.91l0.03 0.04c0.17,0.24 0.42,0.61 0.58,0.26 0.05,-0.17 0.04,-0.13 -0.09,-0.33 -0.5,-0.73 -0.72,-0.25 -0.52,0.03z"/>
   <path class="fil7" d="M40.19 37.84c-0.33,0.69 0.14,0.82 0.31,0.52 0.04,-0.07 0.14,-0.51 0.11,-0.61 -0.07,-0.24 -0.32,-0.13 -0.42,0.09z"/>
  </g>
 </g>
</svg>
