<?xml version="1.0" encoding="UTF-8"?>
<!DOCTYPE svg PUBLIC "-//W3C//DTD SVG 1.1//EN" "http://www.w3.org/Graphics/SVG/1.1/DTD/svg11.dtd">
<!-- Creator: CorelDRAW 2020 (64-Bit) -->
<svg xmlns="http://www.w3.org/2000/svg" xml:space="preserve" width="33.161mm" height="33.1611mm" version="1.1" style="shape-rendering:geometricPrecision; text-rendering:geometricPrecision; image-rendering:optimizeQuality; fill-rule:evenodd; clip-rule:evenodd"
viewBox="0 0 72.44 72.44"
 xmlns:xlink="http://www.w3.org/1999/xlink"
 xmlns:xodm="http://www.corel.com/coreldraw/odm/2003">
 <defs>
  <style type="text/css">
   <![CDATA[
    .str2 {stroke:black;stroke-width:0.31;stroke-miterlimit:22.9256}
    .str3 {stroke:black;stroke-width:0.31;stroke-linejoin:round;stroke-miterlimit:22.9256}
    .str4 {stroke:black;stroke-width:0.31;stroke-linecap:round;stroke-miterlimit:22.9256}
    .str1 {stroke:black;stroke-width:0.44;stroke-linecap:round;stroke-miterlimit:22.9256}
    .str0 {stroke:black;stroke-width:0.44;stroke-linecap:round;stroke-linejoin:round;stroke-miterlimit:22.9256}
    .fil0 {fill:none}
    .fil6 {fill:black}
    .fil3 {fill:#040404}
    .fil4 {fill:#925328}
    .fil5 {fill:#E3A96E}
    .fil2 {fill:#F9A9AD}
    .fil1 {fill:white}
   ]]>
  </style>
 </defs>
 <g id="close">
  <metadata id="CorelCorpID_0Corel-Layer"/>
  <rect class="fil0" x="-0" y="-0" width="72.44" height="72.44"/>
  <g id="_2152066792384">
   <path class="fil1 str0" d="M26.57 36.9c0,0 -1.61,-3.26 -0.04,-4.42 1.57,-1.16 3.15,1.23 3.15,1.23l-0.9 -1.2 2.94 -3.1c0.51,-0.54 1.59,-1.2 1.78,-1.25 0.19,-0.04 1.07,-2.21 1.26,-2.14 0.18,0.07 1.42,0.96 1.86,1.5 0.18,0.23 1.21,-0.23 3.88,0.25 2.67,0.48 4.44,1.15 4.81,1.29 0.37,0.14 2.2,-1.53 2.35,-1.47 0.13,0.05 0.76,1.86 0.54,4.27 -0.03,0.33 -0.12,0.64 0.02,0.76 1.28,1.16 3.23,4.17 2.51,4.17l-24.15 0.11z"/>
   <path class="fil0 str1" d="M42.9 36.81l-0.68 -2.75c-0.15,-0.61 0.39,-1.94 1.51,-1.96 1.12,-0.02 2.45,1.54 2.45,1.54"/>
   <path class="fil2" d="M27.99 34c-1.11,0.25 -0.61,1.57 0.21,1.4 0.94,-0.19 0.61,-1.58 -0.21,-1.4z"/>
   <path class="fil2" d="M44.08 33.77c-1.01,0.5 -0.31,1.6 0.46,1.33 0.32,-0.11 0.57,-0.51 0.42,-0.92 -0.11,-0.31 -0.48,-0.61 -0.88,-0.41z"/>
   <path class="fil3" d="M34.78 33.47c-0.4,0.48 0.56,1.15 1.37,0.47 0.15,0.1 0.06,0.05 0.18,0.15 0.06,0.05 0.1,0.09 0.18,0.13 0.66,0.36 1.57,-0.09 1.24,-0.4 -0.3,-0.15 -0.52,0.15 -0.87,0.09 -0.37,-0.07 -0.32,-0.45 -0.58,-0.53 -0.23,-0.07 -0.44,0.27 -0.69,0.37 -0.56,0.22 -0.34,-0.3 -0.83,-0.29z"/>
   <path class="fil3" d="M33.18 32.88c-0.36,0.1 -0.53,0.32 -0.48,0.75 0.04,0.37 0.29,0.62 0.69,0.49 0.81,-0.28 0.42,-1.4 -0.21,-1.23z"/>
   <path class="fil3" d="M40.98 33.51c-0.72,0.21 -0.64,1.29 0.1,1.12 0.77,-0.17 0.39,-1.27 -0.1,-1.12z"/>
   <path class="fil2" d="M27.49 33.2c-0.14,-0.11 -0.26,-0.26 -0.5,-0.18 -0.15,0.05 -0.26,0.25 -0.18,0.46 0.12,0.34 0.73,0.4 0.68,-0.28z"/>
   <path class="fil2" d="M26.76 34c-0.51,0.21 -0.2,0.81 0.23,0.66 0.41,-0.14 0.21,-0.84 -0.23,-0.66z"/>
   <path class="fil2" d="M44.17 33.02c-0.01,0.7 0.65,0.53 0.71,0.2 0.03,-0.19 -0.1,-0.4 -0.26,-0.44 -0.21,-0.05 -0.33,0.13 -0.45,0.23z"/>
   <path class="fil2" d="M27.97 33.25l-0.01 0.36c0.14,0.1 0.2,0.2 0.41,0.16 0.41,-0.07 0.34,-0.65 0.01,-0.7 -0.21,-0.03 -0.27,0.08 -0.41,0.18z"/>
   <path class="fil2" d="M42.75 34.21c0.13,0.11 0.19,0.23 0.43,0.15 0.18,-0.06 0.33,-0.21 0.24,-0.47 -0.1,-0.27 -0.73,-0.39 -0.66,0.31z"/>
   <path class="fil2" d="M43.29 32.77c-0.57,0.28 -0.17,0.79 0.21,0.65 0.4,-0.14 0.17,-0.84 -0.21,-0.65z"/>
  </g>
  <g id="_2152066796416">
   <g>
    <path class="fil4 str2" d="M49.16 41.3c0,0 -0.98,4.58 -1.3,5.81 -0.01,1.34 -5.77,3.03 -8.8,-0.19 -0.49,-2.47 -1,-6.04 -1,-6.04l11.1 0.42z"/>
    <path class="fil5 str3" d="M43.34 36.78c4.7,-0.13 6.3,3.51 6.32,4.05 0.02,0.54 -0.25,1.1 -1.57,0.46 0.01,1.47 -0.6,1.79 -0.88,1.83 -0.28,0.04 -0.47,0.13 -1.21,-0.72 -0.31,0.78 -0.54,1.23 -1.12,1.23 -0.58,0 -0.95,-0.73 -1.21,-1.2 -0.51,0.88 -0.97,1.26 -1.49,1.23 -0.52,-0.03 -0.77,-0.77 -0.97,-1.34 -0.51,0.51 -1.14,0.78 -1.58,0.65 -0.43,-0.13 -0.62,-0.35 -0.55,-1.98 -0.41,0.35 -0.9,0.78 -1.24,0.64 -1.71,-0.74 0.78,-4.71 5.49,-4.84z"/>
    <path class="fil0 str4" d="M47.41 39.57c-0.43,0.55 -7.28,3.38 -8.69,-1.03"/>
    <circle class="fil6" cx="48.65" cy="40.65" r="0.25"/>
    <circle class="fil6" cx="46.99" cy="42.03" r="0.25"/>
    <circle class="fil6" cx="44.85" cy="42.71" r="0.25"/>
    <circle class="fil6" cx="42.28" cy="42.59" r="0.25"/>
    <circle class="fil6" cx="40.03" cy="41.88" r="0.25"/>
    <circle class="fil6" cx="38.45" cy="40.49" r="0.25"/>
    <line class="fil0 str2" x1="47.14" y1="43.19" x2="46.7" y2= "48.29" />
    <line class="fil0 str2" x1="44.84" y1="43.63" x2="44.69" y2= "48.75" />
    <line class="fil0 str2" x1="42.19" y1="43.66" x2="42.15" y2= "48.61" />
    <line class="fil0 str2" x1="39.64" y1="42.97" x2="39.82" y2= "47.59" />
   </g>
   <g>
    <path class="fil4 str2" d="M20.64 41.3c0,0 0.98,4.58 1.3,5.81 0.01,1.34 5.77,3.03 8.8,-0.19 0.49,-2.47 1,-6.04 1,-6.04l-11.1 0.42z"/>
    <path class="fil5 str3" d="M26.46 36.78c-4.7,-0.13 -6.3,3.51 -6.32,4.05 -0.02,0.54 0.25,1.1 1.57,0.46 -0.01,1.47 0.6,1.79 0.88,1.83 0.28,0.04 0.47,0.13 1.21,-0.72 0.31,0.78 0.54,1.23 1.12,1.23 0.58,0 0.95,-0.73 1.21,-1.2 0.51,0.88 0.97,1.26 1.49,1.23 0.52,-0.03 0.77,-0.77 0.97,-1.34 0.51,0.51 1.14,0.78 1.58,0.65 0.43,-0.13 0.62,-0.35 0.55,-1.98 0.41,0.35 0.9,0.78 1.24,0.64 1.71,-0.74 -0.78,-4.71 -5.49,-4.84z"/>
    <path class="fil0 str4" d="M22.38 39.57c0.43,0.55 7.28,3.38 8.69,-1.03"/>
    <circle class="fil6" cx="21.15" cy="40.65" r="0.25"/>
    <circle class="fil6" cx="22.8" cy="42.03" r="0.25"/>
    <circle class="fil6" cx="24.94" cy="42.71" r="0.25"/>
    <circle class="fil6" cx="27.51" cy="42.59" r="0.25"/>
    <circle class="fil6" cx="29.77" cy="41.88" r="0.25"/>
    <circle class="fil6" cx="31.34" cy="40.49" r="0.25"/>
    <line class="fil0 str2" x1="22.66" y1="43.19" x2="23.1" y2= "48.29" />
    <line class="fil0 str2" x1="24.96" y1="43.63" x2="25.11" y2= "48.75" />
    <line class="fil0 str2" x1="27.61" y1="43.66" x2="27.64" y2= "48.61" />
    <line class="fil0 str2" x1="30.15" y1="42.97" x2="29.98" y2= "47.59" />
   </g>
  </g>
 </g>
</svg>
