<?xml version="1.0" encoding="UTF-8"?>
<!DOCTYPE svg PUBLIC "-//W3C//DTD SVG 1.1//EN" "http://www.w3.org/Graphics/SVG/1.1/DTD/svg11.dtd">
<!-- Creator: CorelDRAW 2020 (64-Bit) -->
<svg xmlns="http://www.w3.org/2000/svg" xml:space="preserve" width="33.161mm" height="33.1611mm" version="1.1"
     style="shape-rendering:geometricPrecision; text-rendering:geometricPrecision; image-rendering:optimizeQuality; fill-rule:evenodd; clip-rule:evenodd"
     viewBox="0 0 72.65 72.65"
>
 <defs>
  <style type="text/css">
   <![CDATA[
    .str1 {stroke:black;stroke-width:0.44;stroke-linecap:round;stroke-miterlimit:22.9256}
    .str0 {stroke:black;stroke-width:0.44;stroke-linecap:round;stroke-linejoin:round;stroke-miterlimit:22.9256}
    .fil0 {fill:none}
    .fil3 {fill:#040404}
    .fil2 {fill:#F9A9AD}
    .fil1 {fill:white}
   ]]>
  </style>
 </defs>
 <g id="close">
  <metadata id="CorelCorpID_0Corel-Layer"/>
  <rect class="fil0" x="-0" y="-0" width="72.65" height="72.65"/>
  <g id="_2152069041424">
   <path class="fil1 str0" d="M26.65 37.01c0,0 -1.61,-3.27 -0.04,-4.43 1.58,-1.16 3.16,1.23 3.16,1.23l-0.9 -1.21 2.94 -3.11c0.51,-0.54 1.59,-1.21 1.78,-1.25 0.19,-0.04 1.08,-2.22 1.26,-2.15 0.18,0.07 1.43,0.97 1.87,1.5 0.18,0.23 1.21,-0.23 3.89,0.25 2.68,0.48 4.45,1.15 4.82,1.29 0.37,0.14 2.2,-1.54 2.35,-1.47 0.13,0.05 0.76,1.86 0.54,4.29 -0.03,0.33 -0.12,0.64 0.02,0.76 1.29,1.17 3.24,4.18 2.51,4.18l-24.22 0.11z"/>
   <path class="fil0 str1" d="M43.03 36.91l-0.69 -2.76c-0.15,-0.61 0.4,-1.95 1.52,-1.97 1.12,-0.02 2.46,1.54 2.46,1.54"/>
   <path class="fil2" d="M28.07 34.1c-1.11,0.25 -0.62,1.57 0.21,1.4 0.94,-0.19 0.61,-1.59 -0.21,-1.4z"/>
   <path class="fil2" d="M44.21 33.87c-1.02,0.5 -0.31,1.61 0.47,1.33 0.32,-0.11 0.57,-0.51 0.42,-0.92 -0.11,-0.31 -0.48,-0.61 -0.89,-0.41z"/>
   <path class="fil3" d="M34.88 33.57c-0.41,0.48 0.57,1.15 1.38,0.47 0.15,0.1 0.06,0.05 0.18,0.16 0.06,0.05 0.1,0.09 0.18,0.13 0.66,0.36 1.58,-0.09 1.24,-0.4 -0.3,-0.15 -0.52,0.15 -0.88,0.09 -0.37,-0.07 -0.32,-0.45 -0.58,-0.53 -0.23,-0.07 -0.44,0.27 -0.69,0.37 -0.57,0.22 -0.34,-0.3 -0.83,-0.29z"/>
   <path class="fil3" d="M33.28 32.98c-0.36,0.1 -0.53,0.32 -0.48,0.75 0.04,0.37 0.29,0.62 0.69,0.49 0.82,-0.28 0.42,-1.41 -0.21,-1.23z"/>
   <path class="fil3" d="M41.1 33.6c-0.73,0.21 -0.65,1.29 0.1,1.13 0.77,-0.17 0.39,-1.27 -0.1,-1.13z"/>
   <path class="fil2" d="M27.57 33.3c-0.14,-0.11 -0.26,-0.26 -0.5,-0.18 -0.15,0.05 -0.26,0.25 -0.18,0.46 0.12,0.35 0.73,0.4 0.68,-0.28z"/>
   <path class="fil2" d="M26.84 34.1c-0.51,0.21 -0.2,0.81 0.23,0.67 0.41,-0.14 0.21,-0.84 -0.23,-0.67z"/>
   <path class="fil2" d="M44.3 33.12c-0.01,0.7 0.66,0.53 0.71,0.21 0.03,-0.19 -0.1,-0.4 -0.26,-0.44 -0.21,-0.05 -0.33,0.13 -0.45,0.23z"/>
   <path class="fil2" d="M28.05 33.35l-0.01 0.36c0.14,0.1 0.2,0.2 0.41,0.16 0.41,-0.07 0.34,-0.65 0.01,-0.7 -0.21,-0.03 -0.27,0.08 -0.41,0.18z"/>
   <path class="fil2" d="M42.87 34.31c0.13,0.11 0.19,0.23 0.43,0.15 0.18,-0.06 0.33,-0.21 0.24,-0.47 -0.1,-0.27 -0.73,-0.39 -0.66,0.31z"/>
   <path class="fil2" d="M43.41 32.87c-0.57,0.28 -0.17,0.79 0.21,0.65 0.4,-0.14 0.17,-0.84 -0.21,-0.65z"/>
  </g>
 </g>
</svg>
