<?xml version="1.0" encoding="UTF-8"?>
<!DOCTYPE svg PUBLIC "-//W3C//DTD SVG 1.1//EN" "http://www.w3.org/Graphics/SVG/1.1/DTD/svg11.dtd">
<!-- Creator: CorelDRAW 2020 (64-Bit) -->
<svg xmlns="http://www.w3.org/2000/svg" xml:space="preserve" width="33.161mm" height="33.1611mm" version="1.1" style="shape-rendering:geometricPrecision; text-rendering:geometricPrecision; image-rendering:optimizeQuality; fill-rule:evenodd; clip-rule:evenodd"
viewBox="0 0 76.63 76.63"
 xmlns:xlink="http://www.w3.org/1999/xlink"
 xmlns:xodm="http://www.corel.com/coreldraw/odm/2003">
 <defs>
  <style type="text/css">
   <![CDATA[
    .str1 {stroke:black;stroke-width:0.46;stroke-linecap:round;stroke-miterlimit:22.9256}
    .str0 {stroke:black;stroke-width:0.46;stroke-linecap:round;stroke-linejoin:round;stroke-miterlimit:22.9256}
    .fil0 {fill:none}
    .fil4 {fill:#040404}
    .fil3 {fill:#F9A9AD}
    .fil1 {fill:#FF0011}
    .fil2 {fill:white}
   ]]>
  </style>
 </defs>
 <g id="Слой_x0020_1">
  <metadata id="CorelCorpID_0Corel-Layer"/>
  <rect class="fil0" x="-0" y="-0" width="76.63" height="76.63"/>
 </g>
 <g id="close">
  <metadata id="CorelCorpID_1Corel-Layer"/>
  <path class="fil1" d="M24.76 41.48c0.24,0.12 1.3,-0.35 1.26,-0.61 -0.05,-0.32 -0.39,-0.16 -0.56,-0.05 -0.47,0.32 -0.99,0.39 -0.71,0.65z"/>
  <path class="fil1" d="M27.78 42.14l0.01 0.05c0.04,0.32 0.08,0.83 0.43,0.57 0.14,-0.14 0.11,-0.11 0.09,-0.37 -0.1,-0.98 -0.57,-0.62 -0.52,-0.25z"/>
  <path class="fil1" d="M26.12 41.73c-0.69,0.5 -0.3,0.88 0.02,0.67 0.07,-0.05 0.41,-0.42 0.43,-0.53 0.06,-0.28 -0.25,-0.29 -0.46,-0.14z"/>
  <path class="fil2 str0" d="M32.18 39.05c0,0 -1.54,0.92 -2.57,1.33 -1.02,0.41 -3.82,0.29 -2.11,-1.98l3.03 -4.02 3.11 -3.27c0.54,-0.57 1.68,-1.27 1.88,-1.31 0.2,-0.05 1.14,-2.33 1.33,-2.26 0.19,0.07 1.5,1.02 1.97,1.59 0.19,0.24 1.28,-0.24 4.1,0.27 2.83,0.51 4.69,1.22 5.08,1.37 0.39,0.15 2.32,-1.62 2.48,-1.55 0.13,0.06 0.8,1.97 0.56,4.52 -0.03,0.35 -0.13,0.67 0.02,0.81 1.36,1.23 3.41,4.41 2.64,4.42l-21.54 0.11z"/>
  <path class="fil0 str1" d="M45.44 38.95l-0.72 -2.91c-0.16,-0.65 0.42,-2.06 1.6,-2.07 1.18,-0.02 2.59,1.63 2.59,1.63"/>
  <path class="fil3" d="M46.7 35.74c-1.07,0.52 -0.33,1.7 0.49,1.4 0.34,-0.12 0.6,-0.53 0.44,-0.97 -0.12,-0.33 -0.51,-0.64 -0.93,-0.44z"/>
  <path class="fil4" d="M36.86 35.41c-0.43,0.51 0.6,1.21 1.45,0.5 0.16,0.1 0.06,0.05 0.19,0.16 0.06,0.06 0.1,0.09 0.19,0.14 0.7,0.38 1.66,-0.09 1.31,-0.42 -0.32,-0.16 -0.55,0.16 -0.92,0.09 -0.39,-0.07 -0.33,-0.48 -0.61,-0.56 -0.24,-0.08 -0.46,0.29 -0.73,0.39 -0.6,0.23 -0.36,-0.31 -0.88,-0.31z"/>
  <path class="fil4" d="M35.17 34.78c-0.38,0.1 -0.56,0.33 -0.51,0.79 0.04,0.39 0.3,0.66 0.73,0.51 0.86,-0.29 0.45,-1.48 -0.22,-1.3z"/>
  <path class="fil4" d="M43.42 35.46c-0.77,0.22 -0.68,1.36 0.1,1.19 0.81,-0.18 0.42,-1.34 -0.1,-1.19z"/>
  <path class="fil3" d="M46.79 34.95c-0.01,0.74 0.69,0.56 0.75,0.22 0.03,-0.2 -0.11,-0.42 -0.28,-0.46 -0.22,-0.05 -0.35,0.14 -0.47,0.24z"/>
  <path class="fil3" d="M45.29 36.21c0.14,0.11 0.2,0.24 0.45,0.16 0.2,-0.06 0.35,-0.22 0.25,-0.49 -0.1,-0.29 -0.77,-0.41 -0.7,0.33z"/>
  <path class="fil3" d="M45.86 34.68c-0.6,0.3 -0.18,0.83 0.22,0.69 0.42,-0.15 0.19,-0.89 -0.22,-0.69z"/>
 </g>
</svg>
