<?xml version="1.0" encoding="UTF-8"?>
<!DOCTYPE svg PUBLIC "-//W3C//DTD SVG 1.1//EN" "http://www.w3.org/Graphics/SVG/1.1/DTD/svg11.dtd">
<!-- Creator: CorelDRAW 2020 (64-Bit) -->
<svg xmlns="http://www.w3.org/2000/svg" xml:space="preserve" width="33.161mm" height="33.1611mm" version="1.1"
     style="shape-rendering:geometricPrecision; text-rendering:geometricPrecision; image-rendering:optimizeQuality; fill-rule:evenodd; clip-rule:evenodd"
     viewBox="0 0 68.87 68.87"
>
 <defs>
  <style type="text/css">
   <![CDATA[
    .str0 {stroke:black;stroke-width:0.42;stroke-linecap:round;stroke-miterlimit:22.9256}
    .str1 {stroke:black;stroke-width:0.42;stroke-linecap:round;stroke-linejoin:round;stroke-miterlimit:22.9256}
    .fil0 {fill:none}
    .fil3 {fill:#040404}
    .fil2 {fill:#F9A9AD}
    .fil4 {fill:#FF0011}
    .fil1 {fill:white}
   ]]>
  </style>
 </defs>
 <g id="Слой_x0020_1">
  <metadata id="CorelCorpID_0Corel-Layer"/>
  <rect class="fil0" x="-0" y="-0" width="68.87" height="68.87"/>
 </g>
 <g id="close">
  <metadata id="CorelCorpID_1Corel-Layer"/>
  <path class="fil1" d="M25.3 34.94c0,0 -1.52,-3.1 -0.03,-4.2 1.5,-1.1 3,1.17 2.99,1.17l-0.85 -1.14 2.8 -2.94c0.49,-0.51 1.51,-1.14 1.69,-1.18 0.18,-0.04 1.02,-2.1 1.2,-2.03 0.18,0.07 1.35,0.92 1.77,1.43 0.17,0.21 1.15,-0.22 3.69,0.24 2.54,0.46 4.22,1.1 4.57,1.23 0.35,0.13 2.09,-1.46 2.23,-1.39 0.12,0.05 0.72,1.77 0.51,4.06 -0.03,0.31 -0.12,0.6 0.02,0.72 1.22,1.11 3.07,3.96 2.38,3.97l-4.3 0.04c-0.75,0.64 -1.43,1.73 -2.25,1.91l-0.83 0.19c-0.25,0.06 -0.91,-0.55 -0.79,-0.84l0.5 -1.22 -15.28 -0.01z"/>
  <path class="fil2" d="M26.6 32.28c-1.06,0.24 -0.59,1.49 0.2,1.33 0.89,-0.18 0.58,-1.5 -0.2,-1.33z"/>
  <path class="fil3" d="M33.06 31.79c-0.39,0.46 0.54,1.09 1.3,0.45 0.14,0.09 0.05,0.04 0.17,0.15 0.06,0.05 0.09,0.09 0.17,0.13 0.63,0.34 1.49,-0.08 1.18,-0.38 -0.28,-0.14 -0.5,0.14 -0.83,0.08 -0.35,-0.07 -0.3,-0.43 -0.55,-0.51 -0.22,-0.07 -0.41,0.26 -0.65,0.35 -0.54,0.21 -0.32,-0.28 -0.79,-0.27z"/>
  <path class="fil3" d="M31.54 31.22c-0.34,0.09 -0.5,0.3 -0.46,0.71 0.04,0.35 0.27,0.59 0.65,0.46 0.77,-0.26 0.4,-1.33 -0.2,-1.17z"/>
  <path class="fil3" d="M38.95 31.83c-0.69,0.2 -0.61,1.22 0.09,1.07 0.73,-0.16 0.37,-1.2 -0.09,-1.07z"/>
  <path class="fil2" d="M26.12 31.52c-0.13,-0.11 -0.25,-0.24 -0.47,-0.17 -0.14,0.05 -0.25,0.23 -0.18,0.44 0.12,0.33 0.69,0.38 0.65,-0.27z"/>
  <path class="fil2" d="M25.43 32.27c-0.49,0.2 -0.19,0.77 0.22,0.63 0.39,-0.13 0.2,-0.8 -0.22,-0.63z"/>
  <path class="fil2" d="M26.58 31.57l-0.01 0.34c0.13,0.09 0.19,0.19 0.39,0.15 0.39,-0.07 0.33,-0.61 0.01,-0.66 -0.2,-0.03 -0.26,0.08 -0.39,0.17z"/>
  <g id="_2152029574032">
   <path class="fil0 str0" d="M40.84 34.4c0,0 -0.18,0.26 -0.35,0.61 -0.34,0.69 -0.68,1.75 0.3,1.97 1.48,0.33 2.75,-2.25 4.4,-2.25"/>
   <g>
    <path class="fil0 str1" d="M40.5 34.99l-15.25 0.05c0,0 -1.52,-3.1 -0.03,-4.2 1.5,-1.1 3,1.17 2.99,1.17l-0.85 -1.14 2.8 -2.94c0.49,-0.51 1.51,-1.14 1.69,-1.18 0.18,-0.04 1.02,-2.1 1.2,-2.03 0.18,0.07 1.35,0.92 1.77,1.43 0.17,0.21 1.15,-0.22 3.69,0.24 2.54,0.46 4.22,1.1 4.57,1.23 0.35,0.13 2.09,-1.46 2.23,-1.39 0.12,0.05 0.72,1.77 0.51,4.06 -0.03,0.31 -0.12,0.6 0.02,0.72 1.22,1.11 3.07,3.97 2.38,3.97l-3.93 0.01"/>
    <path class="fil4" d="M38.57 38.08c0.23,0.08 1.13,-0.44 1.07,-0.67 -0.08,-0.28 -0.37,-0.1 -0.5,0.01 -0.39,0.33 -0.84,0.45 -0.57,0.65z"/>
    <path class="fil4" d="M41.56 37.89l0.03 0.04c0.17,0.24 0.42,0.62 0.58,0.26 0.05,-0.17 0.04,-0.13 -0.09,-0.33 -0.5,-0.73 -0.72,-0.25 -0.52,0.03z"/>
    <path class="fil4" d="M40.32 37.82c-0.33,0.69 0.14,0.82 0.31,0.52 0.04,-0.07 0.14,-0.51 0.11,-0.61 -0.07,-0.24 -0.32,-0.13 -0.42,0.09z"/>
   </g>
  </g>
 </g>
</svg>
