<?xml version="1.0" encoding="UTF-8"?>
<!DOCTYPE svg PUBLIC "-//W3C//DTD SVG 1.1//EN" "http://www.w3.org/Graphics/SVG/1.1/DTD/svg11.dtd">
<!-- Creator: CorelDRAW 2020 (64-Bit) -->
<svg xmlns="http://www.w3.org/2000/svg" xml:space="preserve" width="33.161mm" height="33.1611mm" version="1.1"
     style="shape-rendering:geometricPrecision; text-rendering:geometricPrecision; image-rendering:optimizeQuality; fill-rule:evenodd; clip-rule:evenodd"
     viewBox="0 0 72.8 72.8"
>
 <defs>
  <style type="text/css">
   <![CDATA[
    .str0 {stroke:black;stroke-width:0.44;stroke-miterlimit:22.9256}
    .str1 {stroke:black;stroke-width:0.17;stroke-miterlimit:22.9256}
    .str3 {stroke:black;stroke-width:0.44;stroke-linecap:round;stroke-miterlimit:22.9256}
    .str2 {stroke:black;stroke-width:0.44;stroke-linecap:round;stroke-linejoin:round;stroke-miterlimit:22.9256}
    .fil0 {fill:none}
    .fil3 {fill:black}
    .fil5 {fill:#040404}
    .fil1 {fill:#61B304}
    .fil4 {fill:#F9A9AD}
    .fil2 {fill:white}
   ]]>
  </style>
 </defs>
 <g id="close">
  <metadata id="CorelCorpID_0Corel-Layer"/>
  <rect class="fil0" x="-0" y="-0" width="72.8" height="72.8"/>
  <polygon class="fil1 str0" points="53.85,37.37 25.54,37.45 18.33,43.66 19.01,46.75 47.26,46.66 54.47,40.18 "/>
  <polyline class="fil0 str0" points="18.33,43.66 46.56,43.48 47.26,46.66 "/>
  <line class="fil0 str0" x1="46.56" y1="43.48" x2="53.85" y2= "37.37" />
  <polygon class="fil2 str0" points="51.5,37.38 27.1,37.45 22.16,41.58 46.88,41.51 "/>
  <polygon class="fil3 str1" points="26.47,39.08 27.38,39.05 27.44,39.4 25.12,41.4 24.04,41.4 23.98,41.14 24.18,40.82 "/>
  <polygon class="fil3 str1" points="28.73,39.09 29.64,39.06 29.7,39.41 27.39,41.42 26.3,41.42 26.24,41.15 26.44,40.83 "/>
  <polygon class="fil3 str1" points="31,39.08 31.91,39.05 31.97,39.39 29.66,41.4 28.57,41.4 28.51,41.13 28.71,40.81 "/>
  <polygon class="fil3 str1" points="35.6,39.04 36.5,39.01 36.56,39.36 34.25,41.37 33.17,41.37 33.11,41.1 33.3,40.78 "/>
  <polygon class="fil3 str1" points="37.73,39.08 38.64,39.05 38.7,39.4 36.38,41.41 35.3,41.41 35.24,41.14 35.44,40.82 "/>
  <polygon class="fil3 str1" points="42.08,39.06 42.98,39.03 43.05,39.38 40.73,41.38 39.65,41.38 39.59,41.11 39.79,40.79 "/>
  <polygon class="fil3 str1" points="44.39,39.06 45.29,39.03 45.35,39.38 43.04,41.38 41.95,41.38 41.9,41.12 42.09,40.8 "/>
  <polygon class="fil3 str1" points="46.78,39.01 47.69,38.98 47.75,39.33 45.43,41.34 44.35,41.34 44.29,41.07 44.49,40.75 "/>
  <line class="fil0 str1" x1="27.19" y1="39.14" x2="29.05" y2= "37.53" />
  <line class="fil0 str1" x1="29.49" y1="39.2" x2="31.5" y2= "37.43" />
  <line class="fil0 str1" x1="31.68" y1="39.29" x2="33.57" y2= "37.54" />
  <line class="fil0 str1" x1="31.03" y1="41.55" x2="35.71" y2= "37.42" />
  <line class="fil0 str1" x1="38.12" y1="37.42" x2="35.94" y2= "39.39" />
  <line class="fil0 str1" x1="40.3" y1="37.41" x2="38.18" y2= "39.07" />
  <line class="fil0 str1" x1="42.45" y1="37.49" x2="37.84" y2= "41.44" />
  <line class="fil0 str1" x1="44.74" y1="37.4" x2="42.5" y2= "39.34" />
  <line class="fil0 str1" x1="46.88" y1="37.39" x2="44.64" y2= "39.34" />
  <line class="fil0 str1" x1="49.52" y1="37.38" x2="47.16" y2= "39.34" />
  <g id="_2151802898400">
   <path class="fil2 str2" d="M26.7 37.08c0,0 -1.62,-3.28 -0.04,-4.44 1.58,-1.16 3.17,1.24 3.17,1.23l-0.9 -1.21 2.95 -3.11c0.52,-0.54 1.6,-1.21 1.78,-1.25 0.19,-0.04 1.08,-2.22 1.26,-2.15 0.19,0.07 1.43,0.97 1.87,1.51 0.18,0.23 1.21,-0.23 3.9,0.25 2.69,0.48 4.46,1.15 4.83,1.29 0.37,0.14 2.21,-1.54 2.36,-1.48 0.13,0.05 0.76,1.87 0.54,4.29 -0.03,0.33 -0.12,0.64 0.02,0.77 1.29,1.17 3.25,4.19 2.52,4.19l-24.27 0.11z"/>
   <path class="fil0 str3" d="M43.11 36.99l-0.69 -2.77c-0.15,-0.61 0.4,-1.95 1.52,-1.97 1.13,-0.02 2.46,1.54 2.46,1.54"/>
   <path class="fil4" d="M28.13 34.17c-1.12,0.25 -0.62,1.57 0.21,1.41 0.94,-0.19 0.61,-1.59 -0.21,-1.41z"/>
   <path class="fil4" d="M44.3 33.94c-1.02,0.5 -0.31,1.61 0.47,1.33 0.32,-0.11 0.57,-0.51 0.42,-0.92 -0.11,-0.31 -0.48,-0.61 -0.89,-0.41z"/>
   <path class="fil5" d="M34.95 33.64c-0.41,0.48 0.57,1.15 1.38,0.47 0.15,0.1 0.06,0.05 0.18,0.16 0.06,0.05 0.1,0.09 0.18,0.13 0.66,0.36 1.58,-0.09 1.24,-0.4 -0.3,-0.15 -0.53,0.15 -0.88,0.09 -0.37,-0.07 -0.32,-0.45 -0.58,-0.53 -0.23,-0.07 -0.44,0.27 -0.69,0.37 -0.57,0.22 -0.34,-0.3 -0.84,-0.29z"/>
   <path class="fil5" d="M33.34 33.04c-0.36,0.1 -0.53,0.32 -0.48,0.75 0.04,0.37 0.29,0.62 0.69,0.49 0.82,-0.28 0.42,-1.41 -0.21,-1.24z"/>
   <path class="fil5" d="M41.18 33.67c-0.73,0.21 -0.65,1.3 0.1,1.13 0.77,-0.17 0.39,-1.27 -0.1,-1.13z"/>
   <path class="fil4" d="M27.62 33.37c-0.14,-0.11 -0.26,-0.26 -0.5,-0.18 -0.15,0.05 -0.26,0.25 -0.18,0.46 0.12,0.35 0.73,0.4 0.69,-0.28z"/>
   <path class="fil4" d="M26.89 34.17c-0.51,0.21 -0.2,0.81 0.23,0.67 0.41,-0.14 0.21,-0.85 -0.23,-0.67z"/>
   <path class="fil4" d="M44.39 33.18c-0.01,0.71 0.66,0.54 0.71,0.21 0.03,-0.19 -0.1,-0.4 -0.26,-0.44 -0.21,-0.05 -0.33,0.13 -0.45,0.23z"/>
   <path class="fil4" d="M28.11 33.41l-0.01 0.36c0.14,0.1 0.2,0.2 0.41,0.16 0.41,-0.07 0.34,-0.65 0.01,-0.7 -0.21,-0.03 -0.27,0.08 -0.41,0.18z"/>
   <path class="fil4" d="M42.96 34.38c0.13,0.11 0.19,0.23 0.43,0.15 0.19,-0.06 0.33,-0.21 0.24,-0.47 -0.1,-0.27 -0.74,-0.39 -0.67,0.32z"/>
   <path class="fil4" d="M43.5 32.93c-0.57,0.28 -0.17,0.79 0.21,0.65 0.4,-0.14 0.17,-0.84 -0.21,-0.65z"/>
  </g>
 </g>
</svg>
