<?xml version="1.0" encoding="UTF-8"?>
<!DOCTYPE svg PUBLIC "-//W3C//DTD SVG 1.1//EN" "http://www.w3.org/Graphics/SVG/1.1/DTD/svg11.dtd">
<!-- Creator: CorelDRAW 2020 (64-Bit) -->
<svg xmlns="http://www.w3.org/2000/svg" xml:space="preserve" width="33.161mm" height="33.1611mm" version="1.1" style="shape-rendering:geometricPrecision; text-rendering:geometricPrecision; image-rendering:optimizeQuality; fill-rule:evenodd; clip-rule:evenodd"
viewBox="0 0 76.6 76.6"
 xmlns:xlink="http://www.w3.org/1999/xlink"
 xmlns:xodm="http://www.corel.com/coreldraw/odm/2003">
 <defs>
  <style type="text/css">
   <![CDATA[
    .str0 {stroke:black;stroke-width:0.46;stroke-miterlimit:22.9256}
    .str1 {stroke:black;stroke-width:0.18;stroke-miterlimit:22.9256}
    .str3 {stroke:black;stroke-width:0.46;stroke-linecap:round;stroke-miterlimit:22.9256}
    .str2 {stroke:black;stroke-width:0.46;stroke-linecap:round;stroke-linejoin:round;stroke-miterlimit:22.9256}
    .fil0 {fill:none}
    .fil4 {fill:black}
    .fil7 {fill:#040404}
    .fil1 {fill:#61B304}
    .fil3 {fill:#CF006B}
    .fil6 {fill:#F9A9AD}
    .fil5 {fill:#FF0011}
    .fil2 {fill:white}
   ]]>
  </style>
 </defs>
 <g id="close">
  <metadata id="CorelCorpID_0Corel-Layer"/>
  <rect class="fil0" x="-0" y="-0" width="76.6" height="76.6"/>
  <polygon class="fil1 str0" points="56.69,39.35 26.9,39.43 19.32,45.97 20.03,49.22 49.75,49.12 57.33,42.31 "/>
  <polyline class="fil0 str0" points="19.32,45.97 49.02,45.78 49.75,49.12 "/>
  <line class="fil0 str0" x1="49.02" y1="45.78" x2="56.69" y2= "39.35" />
  <polygon class="fil2 str0" points="54.21,39.36 28.53,39.43 23.34,43.77 49.35,43.7 "/>
  <polygon class="fil3" points="23.77,43.58 28.43,39.6 32.82,39.61 28.87,43.55 "/>
  <polygon class="fil4 str1" points="27.88,41.15 28.83,41.12 28.89,41.49 26.46,43.6 25.32,43.6 25.26,43.32 25.46,42.98 "/>
  <polygon class="fil4 str1" points="30.26,41.16 31.21,41.13 31.27,41.5 28.84,43.61 27.7,43.61 27.64,43.33 27.84,42.99 "/>
  <polygon class="fil4 str1" points="32.65,41.14 33.6,41.11 33.66,41.48 31.23,43.59 30.09,43.59 30.03,43.31 30.23,42.97 "/>
  <polygon class="fil4 str1" points="37.48,41.11 38.43,41.08 38.5,41.45 36.06,43.55 34.92,43.55 34.86,43.28 35.07,42.94 "/>
  <polygon class="fil4 str1" points="39.73,41.15 40.68,41.12 40.74,41.49 38.31,43.6 37.17,43.6 37.11,43.32 37.31,42.98 "/>
  <polygon class="fil4 str1" points="44.3,41.13 45.25,41.09 45.32,41.46 42.88,43.57 41.74,43.57 41.68,43.29 41.89,42.95 "/>
  <polygon class="fil4 str1" points="46.73,41.13 47.68,41.1 47.74,41.46 45.31,43.57 44.17,43.57 44.11,43.29 44.31,42.96 "/>
  <polygon class="fil4 str1" points="49.25,41.08 50.2,41.05 50.27,41.41 47.83,43.52 46.69,43.52 46.63,43.24 46.83,42.91 "/>
  <line class="fil0 str1" x1="28.63" y1="41.21" x2="30.59" y2= "39.52" />
  <line class="fil0 str1" x1="31.06" y1="41.28" x2="33.16" y2= "39.42" />
  <line class="fil0 str1" x1="33.36" y1="41.37" x2="35.35" y2= "39.53" />
  <line class="fil0 str1" x1="32.68" y1="43.75" x2="37.6" y2= "39.4" />
  <line class="fil0 str1" x1="40.14" y1="39.4" x2="37.84" y2= "41.47" />
  <line class="fil0 str1" x1="42.42" y1="39.39" x2="40.2" y2= "41.14" />
  <line class="fil0 str1" x1="44.69" y1="39.48" x2="39.84" y2= "43.63" />
  <line class="fil0 str1" x1="47.11" y1="39.38" x2="44.74" y2= "41.43" />
  <line class="fil0 str1" x1="49.36" y1="39.37" x2="46.99" y2= "41.42" />
  <line class="fil0 str1" x1="52.13" y1="39.36" x2="49.65" y2= "41.42" />
  <path class="fil5" d="M24.7 41.48c0.24,0.12 1.3,-0.35 1.26,-0.61 -0.05,-0.32 -0.39,-0.16 -0.55,-0.05 -0.47,0.32 -0.99,0.39 -0.71,0.65z"/>
  <path class="fil5" d="M27.71 42.15l0.01 0.05c0.04,0.32 0.08,0.82 0.43,0.57 0.14,-0.14 0.11,-0.11 0.09,-0.37 -0.1,-0.98 -0.57,-0.62 -0.52,-0.25z"/>
  <path class="fil5" d="M26.05 41.73c-0.69,0.5 -0.3,0.88 0.02,0.67 0.07,-0.05 0.41,-0.42 0.43,-0.53 0.06,-0.28 -0.25,-0.29 -0.46,-0.14z"/>
  <path class="fil2 str2" d="M32.11 39.06c0,0 -1.54,0.92 -2.57,1.33 -1.02,0.41 -3.82,0.29 -2.11,-1.98l3.03 -4.02 3.11 -3.27c0.54,-0.57 1.68,-1.27 1.88,-1.31 0.2,-0.05 1.14,-2.33 1.33,-2.26 0.19,0.07 1.5,1.02 1.97,1.59 0.19,0.24 1.28,-0.24 4.1,0.27 2.83,0.51 4.69,1.22 5.08,1.37 0.39,0.15 2.32,-1.62 2.48,-1.55 0.13,0.06 0.8,1.97 0.56,4.52 -0.03,0.35 -0.13,0.67 0.02,0.81 1.36,1.23 3.41,4.41 2.64,4.42l-21.53 0.11z"/>
  <path class="fil0 str3" d="M45.37 38.96l-0.72 -2.91c-0.16,-0.65 0.42,-2.06 1.6,-2.07 1.18,-0.02 2.59,1.63 2.59,1.63"/>
  <path class="fil6" d="M46.62 35.75c-1.07,0.52 -0.33,1.7 0.49,1.4 0.34,-0.12 0.6,-0.53 0.44,-0.97 -0.12,-0.33 -0.51,-0.64 -0.93,-0.44z"/>
  <path class="fil7" d="M36.79 35.42c-0.43,0.51 0.6,1.21 1.45,0.5 0.16,0.1 0.06,0.05 0.19,0.16 0.06,0.06 0.1,0.09 0.19,0.14 0.7,0.38 1.66,-0.09 1.31,-0.42 -0.32,-0.16 -0.55,0.16 -0.92,0.09 -0.39,-0.07 -0.33,-0.48 -0.61,-0.56 -0.24,-0.08 -0.46,0.29 -0.73,0.39 -0.6,0.23 -0.36,-0.31 -0.88,-0.31z"/>
  <path class="fil7" d="M35.1 34.79c-0.38,0.1 -0.56,0.33 -0.51,0.79 0.04,0.39 0.3,0.66 0.73,0.51 0.86,-0.29 0.45,-1.48 -0.22,-1.3z"/>
  <path class="fil7" d="M43.35 35.47c-0.77,0.22 -0.68,1.36 0.1,1.19 0.81,-0.18 0.42,-1.34 -0.1,-1.19z"/>
  <path class="fil6" d="M46.72 34.96c-0.01,0.74 0.69,0.56 0.75,0.22 0.03,-0.2 -0.11,-0.42 -0.28,-0.46 -0.22,-0.05 -0.35,0.14 -0.47,0.24z"/>
  <path class="fil6" d="M45.22 36.22c0.14,0.11 0.2,0.24 0.45,0.16 0.19,-0.06 0.35,-0.22 0.25,-0.49 -0.1,-0.29 -0.77,-0.41 -0.7,0.33z"/>
  <path class="fil6" d="M45.79 34.69c-0.6,0.3 -0.18,0.83 0.22,0.69 0.42,-0.15 0.19,-0.89 -0.22,-0.69z"/>
 </g>
</svg>
