<?xml version="1.0" encoding="UTF-8"?>
<!DOCTYPE svg PUBLIC "-//W3C//DTD SVG 1.1//EN" "http://www.w3.org/Graphics/SVG/1.1/DTD/svg11.dtd">
<!-- Creator: CorelDRAW 2020 (64-Bit) -->
<svg xmlns="http://www.w3.org/2000/svg" xml:space="preserve" width="33.161mm" height="33.1611mm" version="1.1" style="shape-rendering:geometricPrecision; text-rendering:geometricPrecision; image-rendering:optimizeQuality; fill-rule:evenodd; clip-rule:evenodd"
viewBox="0 0 68.88 68.88"
 xmlns:xlink="http://www.w3.org/1999/xlink"
 xmlns:xodm="http://www.corel.com/coreldraw/odm/2003">
 <defs>
  <style type="text/css">
   <![CDATA[
    .str0 {stroke:black;stroke-width:0.42;stroke-miterlimit:22.9256}
    .str1 {stroke:black;stroke-width:0.16;stroke-miterlimit:22.9256}
    .str3 {stroke:black;stroke-width:0.42;stroke-linecap:round;stroke-miterlimit:22.9256}
    .str2 {stroke:black;stroke-width:0.42;stroke-linecap:round;stroke-linejoin:round;stroke-miterlimit:22.9256}
    .fil0 {fill:none}
    .fil3 {fill:black}
    .fil4 {fill:#00C4FF}
    .fil6 {fill:#040404}
    .fil1 {fill:#61B304}
    .fil5 {fill:#F9A9AD}
    .fil7 {fill:#FF0011}
    .fil2 {fill:white}
   ]]>
  </style>
 </defs>
 <g id="close">
  <metadata id="CorelCorpID_0Corel-Layer"/>
  <rect class="fil0" x="-0" y="-0" width="68.88" height="68.88"/>
  <polygon class="fil1 str0" points="50.96,35.38 24.17,35.46 17.35,41.33 17.99,44.26 44.72,44.17 51.54,38.04 "/>
  <polyline class="fil0 str0" points="17.35,41.33 44.06,41.16 44.72,44.17 "/>
  <line class="fil0 str0" x1="44.06" y1="41.16" x2="50.96" y2= "35.38" />
  <polygon class="fil2 str0" points="48.73,35.39 25.64,35.45 20.97,39.36 44.36,39.3 "/>
  <polygon class="fil3 str1" points="25.05,37 25.9,36.97 25.96,37.3 23.77,39.2 22.75,39.2 22.69,38.95 22.88,38.64 "/>
  <polygon class="fil3 str1" points="27.19,37.01 28.04,36.98 28.1,37.31 25.91,39.21 24.89,39.21 24.83,38.96 25.02,38.66 "/>
  <polygon class="fil3 str1" points="29.34,36.99 30.19,36.97 30.25,37.29 28.06,39.19 27.04,39.19 26.98,38.94 27.16,38.64 "/>
  <polygon class="fil3 str1" points="33.68,36.96 34.54,36.94 34.6,37.26 32.41,39.16 31.38,39.16 31.33,38.91 31.51,38.61 "/>
  <polygon class="fil4" points="35.92,39.16 40.12,35.57 44.06,35.58 40.5,39.13 "/>
  <polygon class="fil3 str1" points="35.7,37 36.56,36.97 36.62,37.3 34.43,39.2 33.4,39.2 33.35,38.95 33.53,38.64 "/>
  <polygon class="fil3 str1" points="39.82,36.98 40.67,36.95 40.73,37.28 38.54,39.17 37.52,39.17 37.46,38.92 37.65,38.62 "/>
  <polygon class="fil3 str1" points="42,36.98 42.85,36.95 42.91,37.28 40.72,39.18 39.7,39.18 39.64,38.93 39.83,38.62 "/>
  <polygon class="fil3 str1" points="44.27,36.94 45.12,36.91 45.18,37.24 42.99,39.13 41.97,39.13 41.91,38.88 42.09,38.58 "/>
  <line class="fil0 str1" x1="25.73" y1="37.06" x2="27.49" y2= "35.53" />
  <line class="fil0 str1" x1="27.91" y1="37.12" x2="29.8" y2= "35.44" />
  <line class="fil0 str1" x1="29.98" y1="37.2" x2="31.77" y2= "35.54" />
  <line class="fil0 str1" x1="29.36" y1="39.34" x2="33.79" y2= "35.43" />
  <line class="fil0 str1" x1="36.07" y1="35.42" x2="34" y2= "37.29" />
  <line class="fil0 str1" x1="38.13" y1="35.42" x2="36.13" y2= "36.99" />
  <line class="fil0 str1" x1="40.17" y1="35.5" x2="35.81" y2= "39.23" />
  <line class="fil0 str1" x1="42.34" y1="35.41" x2="40.21" y2= "37.25" />
  <line class="fil0 str1" x1="44.36" y1="35.4" x2="42.24" y2= "37.24" />
  <line class="fil0 str1" x1="46.86" y1="35.39" x2="44.63" y2= "37.24" />
  <path class="fil2" d="M25.31 35c0,0 -1.53,-3.11 -0.03,-4.2 1.5,-1.1 3,1.18 3,1.17l-0.85 -1.14 2.8 -2.94c0.49,-0.51 1.51,-1.14 1.69,-1.18 0.18,-0.04 1.02,-2.1 1.2,-2.03 0.18,0.07 1.35,0.92 1.77,1.43 0.17,0.21 1.15,-0.22 3.69,0.24 2.54,0.46 4.22,1.1 4.57,1.23 0.35,0.13 2.09,-1.46 2.23,-1.39 0.12,0.05 0.72,1.77 0.51,4.06 -0.03,0.31 -0.12,0.6 0.02,0.72 1.22,1.11 3.07,3.96 2.38,3.97l-4.3 0.04c-0.75,0.64 -1.43,1.73 -2.25,1.91l-0.83 0.19c-0.25,0.06 -0.91,-0.55 -0.79,-0.85l0.5 -1.22 -15.28 -0.01z"/>
  <path class="fil5" d="M26.61 32.34c-1.06,0.24 -0.59,1.49 0.2,1.33 0.89,-0.18 0.58,-1.5 -0.2,-1.33z"/>
  <path class="fil6" d="M33.06 31.85c-0.39,0.46 0.54,1.09 1.3,0.45 0.14,0.09 0.05,0.04 0.17,0.15 0.06,0.05 0.09,0.09 0.17,0.13 0.63,0.34 1.49,-0.08 1.18,-0.38 -0.28,-0.14 -0.5,0.14 -0.83,0.08 -0.35,-0.07 -0.3,-0.43 -0.55,-0.51 -0.22,-0.07 -0.41,0.26 -0.65,0.35 -0.54,0.21 -0.32,-0.28 -0.79,-0.27z"/>
  <path class="fil6" d="M31.54 31.28c-0.34,0.09 -0.5,0.3 -0.46,0.71 0.04,0.35 0.27,0.59 0.65,0.46 0.77,-0.26 0.4,-1.33 -0.2,-1.17z"/>
  <path class="fil6" d="M38.96 31.89c-0.69,0.2 -0.62,1.23 0.09,1.07 0.73,-0.16 0.37,-1.2 -0.09,-1.07z"/>
  <path class="fil5" d="M26.13 31.58c-0.13,-0.11 -0.25,-0.24 -0.47,-0.17 -0.14,0.05 -0.25,0.23 -0.18,0.44 0.12,0.33 0.69,0.38 0.65,-0.27z"/>
  <path class="fil5" d="M25.43 32.33c-0.49,0.2 -0.19,0.77 0.22,0.63 0.39,-0.13 0.2,-0.8 -0.22,-0.63z"/>
  <path class="fil5" d="M26.58 31.62l-0.01 0.34c0.13,0.09 0.19,0.19 0.39,0.15 0.39,-0.07 0.33,-0.61 0.01,-0.66 -0.2,-0.03 -0.26,0.08 -0.39,0.17z"/>
  <path class="fil0 str2" d="M40.51 35.05l-15.25 0.05c0,0 -1.53,-3.11 -0.03,-4.2 1.5,-1.1 3,1.18 3,1.17l-0.85 -1.14 2.8 -2.94c0.49,-0.51 1.51,-1.14 1.69,-1.18 0.18,-0.04 1.02,-2.1 1.2,-2.03 0.18,0.07 1.35,0.92 1.77,1.43 0.17,0.21 1.15,-0.22 3.69,0.24 2.54,0.46 4.22,1.1 4.57,1.23 0.35,0.13 2.09,-1.46 2.23,-1.39 0.12,0.05 0.72,1.77 0.51,4.06 -0.03,0.31 -0.12,0.6 0.02,0.72 1.22,1.11 3.07,3.97 2.38,3.97l-3.93 0.01"/>
  <path class="fil0 str3" d="M40.84 34.46c0,0 -0.18,0.26 -0.35,0.61 -0.34,0.69 -0.68,1.75 0.3,1.97 1.48,0.33 2.75,-2.25 4.4,-2.25"/>
  <path class="fil7" d="M38.58 38.14c0.23,0.08 1.13,-0.44 1.07,-0.67 -0.08,-0.28 -0.37,-0.1 -0.5,0.01 -0.39,0.33 -0.84,0.45 -0.57,0.65z"/>
  <path class="fil7" d="M41.56 37.95l0.03 0.04c0.17,0.24 0.42,0.62 0.58,0.26 0.05,-0.17 0.04,-0.13 -0.09,-0.33 -0.5,-0.73 -0.72,-0.25 -0.52,0.03z"/>
  <path class="fil7" d="M40.33 37.88c-0.33,0.69 0.14,0.82 0.31,0.52 0.04,-0.07 0.14,-0.51 0.11,-0.61 -0.07,-0.24 -0.32,-0.13 -0.42,0.09z"/>
 </g>
</svg>
