<?xml version="1.0" encoding="UTF-8"?>
<!DOCTYPE svg PUBLIC "-//W3C//DTD SVG 1.1//EN" "http://www.w3.org/Graphics/SVG/1.1/DTD/svg11.dtd">
<!-- Creator: CorelDRAW 2020 (64-Bit) -->
<svg xmlns="http://www.w3.org/2000/svg" xml:space="preserve" width="69.5277mm" height="9.9827mm" version="1.1" style="shape-rendering:geometricPrecision; text-rendering:geometricPrecision; image-rendering:optimizeQuality; fill-rule:evenodd; clip-rule:evenodd"
viewBox="0 0 913.55 131.17"
 xmlns:xlink="http://www.w3.org/1999/xlink"
 xmlns:xodm="http://www.corel.com/coreldraw/odm/2003">
 <defs>
  <style type="text/css">
   <![CDATA[
    .fil1 {fill:white}
    .fil0 {fill:white;fill-rule:nonzero}
   ]]>
  </style>
 </defs>
 <g id="Слой_x0020_1">
  <metadata id="CorelCorpID_0Corel-Layer"/>
  <path class="fil0" d="M189.51 130.29l0 -14.69 3.15 0c5.13,0 8.83,-2.3 11.11,-6.91 2.27,-4.61 3.47,-12.5 3.59,-23.7l1.4 -83.25 65.76 0 0 127.67 -15.74 0 0 -113.33 -34.45 0 -1.22 68.91c-0.23,15.62 -2.71,27.08 -7.43,34.37 -4.72,7.29 -12.1,10.93 -22.12,10.93l-4.02 0zm118.92 -0.88l0 -127.67 73.45 0 0 14.34 -57.89 0 0 39.53 51.77 0 0 13.99 -51.77 0 0 45.47 57.89 0 0 14.34 -73.45 0zm103.71 0l0 -127.67 15.74 0 0 54.57 40.92 0 0 -54.57 15.74 0 0 127.67 -15.74 0 0 -58.76 -40.92 0 0 58.76 -15.74 0zm122.07 0l12.94 -33.05 -37.6 -94.62 17.14 0 22.91 62.44c1.51,3.96 2.74,7.72 3.67,11.28 0.93,3.56 1.51,6.21 1.75,7.96 0.23,-1.75 0.76,-4.4 1.57,-7.96 0.82,-3.56 1.87,-7.32 3.15,-11.28l20.11 -62.44 17.14 0 -46 127.67 -16.79 0zm125.4 1.75c-7.7,0 -14.37,-1.46 -20.03,-4.37 -5.65,-2.91 -10.03,-7.14 -13.12,-12.68 -3.09,-5.54 -4.64,-12.1 -4.64,-19.67l0 -57.71c0,-7.69 1.55,-14.28 4.64,-19.76 3.09,-5.48 7.46,-9.68 13.12,-12.59 5.66,-2.91 12.33,-4.37 20.03,-4.37 7.69,0 14.34,1.49 19.94,4.46 5.6,2.97 9.91,7.2 12.94,12.68 3.03,5.48 4.55,12.01 4.55,19.59l-15.74 0c0,-7.23 -1.89,-12.8 -5.68,-16.7 -3.79,-3.91 -9.12,-5.86 -16,-5.86 -6.88,0 -12.27,1.95 -16.18,5.86 -3.91,3.91 -5.86,9.47 -5.86,16.7l0 57.71c0,7.23 1.95,12.8 5.86,16.7 3.91,3.91 9.3,5.86 16.18,5.86 6.88,0 12.21,-1.95 16,-5.86 3.79,-3.91 5.68,-9.47 5.68,-16.7l15.74 0c0,7.46 -1.52,13.96 -4.55,19.5 -3.03,5.54 -7.34,9.79 -12.94,12.77 -5.6,2.97 -12.24,4.46 -19.94,4.46zm66.81 -1.75l0 -127.67 15.22 0 0 71.7c0,4.2 -0.09,8.66 -0.26,13.38 -0.18,4.72 -0.38,9.21 -0.61,13.47 -0.23,4.26 -0.47,7.84 -0.7,10.76l38.83 -109.31 20.99 0 0 127.67 -15.21 0 0 -71.7c0,-4.31 0.09,-8.83 0.26,-13.55 0.17,-4.72 0.41,-9.21 0.7,-13.47 0.29,-4.25 0.55,-7.78 0.79,-10.58l-39 109.31 -20.99 0zm105.28 0l0 -127.67 15.74 0 0 54.91 18.89 0 28.33 -54.91 17.14 0 -31.66 61.56 33.4 66.11 -18.01 0 -29.73 -58.94 -18.36 0 0 58.94 -15.74 0z"/>
  <path class="fil1" d="M9.83 111.52l126.73 0c5.4,0 9.82,4.42 9.82,9.83l0 0c0,5.4 -4.42,9.82 -9.82,9.82l-126.73 0c-5.4,0 -9.83,-4.42 -9.83,-9.82l0 -0c0,-5.4 4.42,-9.83 9.83,-9.83z"/>
  <path class="fil1" d="M9.7 0l126.99 0c5.33,0 9.69,4.36 9.69,9.7l0 0c0,5.33 -4.36,9.7 -9.69,9.7l-126.99 0c-5.33,0 -9.7,-4.36 -9.7,-9.7l0 -0c0,-5.33 4.36,-9.7 9.7,-9.7z"/>
  <path class="fil1" d="M9.41 56.17l127.55 0c5.18,0 9.41,4.24 9.41,9.41l0 0c0,5.18 -4.24,9.42 -9.41,9.42l-127.55 0c-5.18,0 -9.41,-4.24 -9.41,-9.42l0 -0c0,-5.18 4.23,-9.41 9.41,-9.41z"/>
 </g>
</svg>
