<?xml version="1.0" encoding="UTF-8"?>
<!DOCTYPE svg PUBLIC "-//W3C//DTD SVG 1.1//EN" "http://www.w3.org/Graphics/SVG/1.1/DTD/svg11.dtd">
<!-- Creator: CorelDRAW 2020 (64-Bit) -->
<svg xmlns="http://www.w3.org/2000/svg" xml:space="preserve" width="53.3182mm" height="10.0585mm" version="1.1"
     style="shape-rendering:geometricPrecision; text-rendering:geometricPrecision; image-rendering:optimizeQuality; fill-rule:evenodd; clip-rule:evenodd"
     viewBox="0 0 195.01 36.79"
>
 <defs>
  <style type="text/css">
   <![CDATA[
    .fil1 {fill:#8F3C43}
    .fil0 {fill:#8F3C43;fill-rule:nonzero}
   ]]>
  </style>
 </defs>
 <g id="Слой_x0020_1">
  <metadata id="CorelCorpID_0Corel-Layer"/>
  <path class="fil0" d="M56.78 36.3l0 -35.81 19.91 0 0 4.02 -15.5 0 0 10.59 5.93 0c2.29,0 4.25,0.44 5.89,1.32 1.63,0.88 2.9,2.12 3.8,3.7 0.9,1.59 1.35,3.44 1.35,5.57 0,2.13 -0.45,3.98 -1.35,5.57 -0.9,1.59 -2.17,2.82 -3.8,3.7 -1.63,0.88 -3.6,1.32 -5.89,1.32l-10.35 0zm4.41 -4.02l5.93 0c2.03,0 3.61,-0.6 4.76,-1.79 1.14,-1.19 1.72,-2.79 1.72,-4.78 0,-2.03 -0.57,-3.63 -1.72,-4.81 -1.14,-1.18 -2.73,-1.77 -4.76,-1.77l-5.93 0 0 13.15z"/>
  <path id="1" class="fil0" d="M96.32 36.79c-3.2,0 -5.74,-0.93 -7.6,-2.8 -1.86,-1.86 -2.8,-4.53 -2.8,-8l0 -15.21c0,-3.47 0.93,-6.13 2.8,-8 1.86,-1.86 4.4,-2.8 7.6,-2.8 3.2,0 5.74,0.93 7.6,2.8 1.86,1.86 2.8,4.51 2.8,7.95l0 15.25c0,3.47 -0.93,6.13 -2.8,8 -1.86,1.86 -4.4,2.8 -7.6,2.8zm0 -3.97c1.93,0 3.41,-0.55 4.44,-1.64 1.03,-1.1 1.55,-2.66 1.55,-4.68l0 -16.19c0,-2.03 -0.52,-3.59 -1.55,-4.68 -1.03,-1.1 -2.51,-1.64 -4.44,-1.64 -1.9,0 -3.37,0.55 -4.41,1.64 -1.05,1.1 -1.57,2.66 -1.57,4.68l0 16.19c0,2.03 0.52,3.59 1.57,4.68 1.05,1.1 2.52,1.64 4.41,1.64z"/>
  <polygon id="2" class="fil0" points="115.59,36.3 115.59,0.49 120.01,0.49 120.01,15.79 131.49,15.79 131.49,0.49 135.9,0.49 135.9,36.3 131.49,36.3 131.49,19.82 120.01,19.82 120.01,36.3 "/>
  <polygon id="3" class="fil0" points="146.84,36.3 146.84,0.49 167.69,0.49 167.69,4.51 151.25,4.51 151.25,36.3 "/>
  <path id="4" class="fil0" d="M184.61 36.79c-3.2,0 -5.74,-0.93 -7.6,-2.8 -1.86,-1.86 -2.8,-4.53 -2.8,-8l0 -15.21c0,-3.47 0.93,-6.13 2.8,-8 1.86,-1.86 4.4,-2.8 7.6,-2.8 3.2,0 5.74,0.93 7.6,2.8 1.86,1.86 2.8,4.51 2.8,7.95l0 15.25c0,3.47 -0.93,6.13 -2.8,8 -1.86,1.86 -4.4,2.8 -7.6,2.8zm0 -3.97c1.93,0 3.41,-0.55 4.44,-1.64 1.03,-1.1 1.55,-2.66 1.55,-4.68l0 -16.19c0,-2.03 -0.52,-3.59 -1.55,-4.68 -1.03,-1.1 -2.51,-1.64 -4.44,-1.64 -1.9,0 -3.37,0.55 -4.41,1.64 -1.05,1.1 -1.57,2.66 -1.57,4.68l0 16.19c0,2.03 0.52,3.59 1.57,4.68 1.05,1.1 2.52,1.64 4.41,1.64z"/>
  <rect class="fil1" y="31.28" width="41.06" height="5.51" rx="1.92" ry="2.76"/>
  <rect class="fil1" width="41.06" height="5.44" rx="1.92" ry="2.72"/>
  <rect class="fil1" y="15.75" width="41.06" height="5.28" rx="1.92" ry="2.64"/>
 </g>
</svg>
