<?xml version="1.0" encoding="UTF-8"?>
<!DOCTYPE svg PUBLIC "-//W3C//DTD SVG 1.1//EN" "http://www.w3.org/Graphics/SVG/1.1/DTD/svg11.dtd">
<!-- Creator: CorelDRAW 2020 (64-Bit) -->
<svg xmlns="http://www.w3.org/2000/svg" xml:space="preserve" width="10.5833mm" height="7.3865mm" version="1.1" style="shape-rendering:geometricPrecision; text-rendering:geometricPrecision; image-rendering:optimizeQuality; fill-rule:evenodd; clip-rule:evenodd"
viewBox="0 0 18.15 12.66"
 xmlns:xlink="http://www.w3.org/1999/xlink"
 xmlns:xodm="http://www.corel.com/coreldraw/odm/2003">
 <defs>
  <style type="text/css">
   <![CDATA[
    .fil0 {fill:black}
   ]]>
  </style>
 </defs>
 <g id="Слой_x0020_1">
  <metadata id="CorelCorpID_0Corel-Layer"/>
  <g id="_2468323771120">
   <path class="fil0" d="M9.01 7.35c0.3,-0.18 0.7,-0.57 0.96,-0.88l5.82 -5.54c0.26,-0.24 0.83,-0.67 0.97,-0.94l-15.45 -0 0.9 0.9c0.18,0.16 0.31,0.28 0.49,0.44l3.36 3.24c0.33,0.33 0.66,0.59 1.01,0.91l1.94 1.87z"/>
   <path class="fil0" d="M1.03 12.66l16.05 0c-0.37,-0.33 -0.87,-0.93 -1.24,-1.33 -0.23,-0.25 -0.46,-0.41 -0.69,-0.66 -0.51,-0.53 -1.51,-1.68 -1.94,-2.03 -0.49,-0.4 -0.89,-1.03 -1.35,-1.37l-1.39 1.26c-0.34,0.39 -1.18,0.98 -1.35,1.34 -0.52,-0.2 -2.42,-2.32 -2.87,-2.57l-1.94 2.02c-0.23,0.24 -0.47,0.41 -0.7,0.65l-2.58 2.68z"/>
   <path class="fil0" d="M-0 11.69l2.62 -2.63c0.44,-0.47 0.84,-0.88 1.28,-1.34l1.36 -1.33c-0.13,-0.3 -3.23,-3.16 -3.91,-3.79l-1.36 -1.22 -0 10.3z"/>
   <path class="fil0" d="M12.88 6.3l2.25 2.33c0.13,0.12 0.22,0.23 0.34,0.37 0.44,0.47 0.83,0.88 1.27,1.36l1.35 1.34 0.01 -0.28c0.07,-2.9 0.01,-7.02 -0,-10.03 -0.3,0.15 -0.38,0.36 -0.64,0.59l-4.58 4.33z"/>
  </g>
 </g>
</svg>
