<?xml version="1.0" encoding="UTF-8"?>
<!DOCTYPE svg PUBLIC "-//W3C//DTD SVG 1.1//EN" "http://www.w3.org/Graphics/SVG/1.1/DTD/svg11.dtd">
<!-- Creator: CorelDRAW 2020 (64-Bit) -->
<svg xmlns="http://www.w3.org/2000/svg" xml:space="preserve" width="10.5832mm" height="10.5834mm" version="1.1"
     style="shape-rendering:geometricPrecision; text-rendering:geometricPrecision; image-rendering:optimizeQuality; fill-rule:evenodd; clip-rule:evenodd"
     viewBox="0 0 18.17 18.17"
>
 <defs>
  <style type="text/css">
   <![CDATA[
    .fil0 {fill:black}
   ]]>
  </style>
 </defs>
 <g id="Слой_x0020_1">
  <metadata id="CorelCorpID_0Corel-Layer"/>
  <path class="fil0" d="M6.75 18.09l0.05 -2c-1.3,0.07 -2.13,0.41 -3.07,-0.41 -0.44,-0.38 -0.44,-1.03 -1.22,-1.61 -0.19,-0.14 -0.34,-0.15 -0.37,-0.39 -0.07,-0.44 0.82,-0.35 1.48,0.28 0.45,0.43 0.37,0.71 1.14,0.97 0.56,0.19 1.3,0.17 1.82,-0.05 0.42,-0.18 0.11,-0.18 0.76,-1.35 -0.27,-0.18 -0.83,-0.19 -1.18,-0.29 -2.2,-0.66 -2.98,-2.36 -2.85,-4.72 0.07,-1.25 0.62,-1.67 0.89,-2.22 -0.25,-0.6 -0.78,-1.72 -0.24,-2.38 0.87,-0.36 1.89,0.16 2.46,0.56 0.62,0.43 0.36,0.3 1.16,0.15 2.66,-0.49 3.37,0.46 4.18,-0.07 0.7,-0.46 1.51,-0.81 2.49,-0.68 0.15,0.37 0.18,0.86 0.14,1.31 -0.05,0.57 -0.24,0.75 -0.35,1.19 0.41,0.65 0.81,1.08 0.87,2.14 0.18,3 -1.11,4.48 -4.06,4.95 0.39,0.9 0.54,0.44 0.54,2.13 -0,0.71 -0.12,2.04 0.11,2.55 1.73,0.37 7.51,-3.67 6.58,-10.16 -0.64,-4.43 -4.34,-8 -9.03,-7.99 -4.7,0.02 -8.35,3.63 -8.96,8.04 -0.49,3.54 1.17,7.2 3.76,8.93 0.6,0.4 2.08,1.47 2.9,1.11z"/>
 </g>
</svg>
