<?xml version="1.0" encoding="UTF-8"?>
<!DOCTYPE svg PUBLIC "-//W3C//DTD SVG 1.1//EN" "http://www.w3.org/Graphics/SVG/1.1/DTD/svg11.dtd">
<!-- Creator: CorelDRAW 2020 (64-Bit) -->
<svg xmlns="http://www.w3.org/2000/svg" xml:space="preserve" width="158.75mm" height="170.693mm" version="1.1"
     style="shape-rendering:geometricPrecision; text-rendering:geometricPrecision; image-rendering:optimizeQuality; fill-rule:evenodd; clip-rule:evenodd"
     viewBox="0 0 1722.76 1852.37"
>
 <defs>
  <style type="text/css">
   <![CDATA[
    .fil0 {fill:black}
   ]]>
  </style>
 </defs>
 <g id="Слой_x0020_1">
  <metadata id="CorelCorpID_0Corel-Layer"/>
  <g id="_2751384068304">
   <g>
    <polygon class="fil0" points="1619.99,1852.37 1722.76,1749.59 1722.76,1740.04 1610.44,1852.37 "/>
    <polygon class="fil0" points="1600.89,1852.37 1722.76,1730.5 1722.76,1720.95 1591.35,1852.37 "/>
    <polygon class="fil0" points="1581.8,1852.37 1722.76,1711.41 1722.76,1701.86 1572.26,1852.37 "/>
    <path class="fil0" d="M1683.96 1845.66l33.53 -33.53c1.94,-4.38 3.39,-9.01 4.27,-13.81l-52.25 52.25c5.05,-1.14 9.89,-2.8 14.45,-4.91z"/>
    <path class="fil0" d="M1658.34 1852.19l64.42 -64.42 0.01 -0.45 0 -9.1 -74.14 74.14 4.68 0c1.7,0 3.37,-0.06 5.04,-0.17z"/>
    <polygon class="fil0" points="1639.07,1852.37 1722.76,1768.68 1722.76,1759.13 1629.53,1852.37 "/>
    <polygon class="fil0" points="1562.71,1852.37 1722.76,1692.32 1722.76,1682.77 1553.17,1852.37 "/>
    <polygon class="fil0" points="1543.62,1852.37 1722.76,1673.23 1722.76,1663.68 1534.08,1852.37 "/>
    <polygon class="fil0" points="1524.53,1852.37 1722.76,1654.14 1722.76,1644.59 1514.99,1852.37 "/>
    <polygon class="fil0" points="1505.44,1852.37 1722.76,1635.05 1722.76,1625.5 1495.9,1852.37 "/>
    <polygon class="fil0" points="1486.35,1852.37 1722.76,1615.96 1722.76,1606.41 1476.81,1852.37 "/>
    <polygon class="fil0" points="1467.26,1852.37 1722.76,1596.87 1722.76,1587.32 1457.72,1852.37 "/>
    <polygon class="fil0" points="1390.9,1852.37 1722.76,1520.5 1722.76,1510.96 1381.36,1852.37 "/>
    <polygon class="fil0" points="1371.81,1852.37 1722.76,1501.41 1722.76,1491.87 1362.27,1852.37 "/>
    <polygon class="fil0" points="1352.72,1852.37 1722.76,1482.32 1722.76,1472.78 1343.18,1852.37 "/>
    <polygon class="fil0" points="1448.17,1852.37 1722.76,1577.78 1722.76,1568.23 1438.63,1852.37 "/>
    <polygon class="fil0" points="1429.08,1852.37 1722.76,1558.69 1722.76,1549.14 1419.54,1852.37 "/>
    <polygon class="fil0" points="1409.99,1852.37 1722.76,1539.6 1722.76,1530.05 1400.45,1852.37 "/>
    <polygon class="fil0" points="1333.63,1852.37 1722.76,1463.23 1722.76,1453.69 1324.08,1852.37 "/>
    <polygon class="fil0" points="1314.54,1852.37 1722.76,1444.14 1722.76,1434.6 1305,1852.37 "/>
    <polygon class="fil0" points="1295.45,1852.37 1722.76,1425.05 1722.76,1415.51 1285.9,1852.37 "/>
    <polygon class="fil0" points="1276.36,1852.37 1722.76,1405.96 1722.76,1396.42 1266.81,1852.37 "/>
    <polygon class="fil0" points="1257.27,1852.37 1722.76,1386.87 1722.76,1377.33 1247.72,1852.37 "/>
    <polygon class="fil0" points="1238.18,1852.37 1722.76,1367.78 1722.76,1358.24 1228.63,1852.37 "/>
    <polygon class="fil0" points="1161.82,1852.37 1722.76,1291.42 1722.76,1281.88 1152.27,1852.37 "/>
    <polygon class="fil0" points="1142.73,1852.37 1722.76,1272.33 1722.76,1262.79 1133.18,1852.37 "/>
    <polygon class="fil0" points="1123.64,1852.37 1722.76,1253.24 1722.76,1243.7 1114.09,1852.37 "/>
    <polygon class="fil0" points="1219.09,1852.37 1722.76,1348.69 1722.76,1339.15 1209.54,1852.37 "/>
    <polygon class="fil0" points="1200,1852.37 1722.76,1329.6 1722.76,1320.06 1190.45,1852.37 "/>
    <polygon class="fil0" points="1180.91,1852.37 1722.76,1310.51 1722.76,1300.97 1171.36,1852.37 "/>
    <polygon class="fil0" points="1104.55,1852.37 1722.76,1234.15 1722.76,1224.61 1095,1852.37 "/>
    <polygon class="fil0" points="1085.46,1852.37 1722.76,1215.06 1722.76,1205.51 1075.91,1852.37 "/>
    <polygon class="fil0" points="1066.37,1852.37 1722.76,1195.97 1722.76,1186.42 1056.82,1852.37 "/>
    <polygon class="fil0" points="1047.28,1852.37 1722.76,1176.88 1722.76,1167.33 1037.73,1852.37 "/>
    <polygon class="fil0" points="1028.19,1852.37 1722.76,1157.79 1722.76,1148.24 1018.64,1852.37 "/>
    <polygon class="fil0" points="1009.09,1852.37 1722.76,1138.7 1722.76,1129.15 999.55,1852.37 "/>
    <polygon class="fil0" points="932.73,1852.37 1722.76,1062.34 1722.76,1052.79 923.19,1852.37 "/>
    <polygon class="fil0" points="913.64,1852.37 1722.76,1043.25 1722.76,1033.7 904.1,1852.37 "/>
    <polygon class="fil0" points="894.55,1852.37 1722.76,1024.16 1722.76,1014.61 885.01,1852.37 "/>
    <polygon class="fil0" points="990.01,1852.37 1722.76,1119.61 1722.76,1110.06 980.46,1852.37 "/>
    <polygon class="fil0" points="970.92,1852.37 1722.76,1100.52 1722.76,1090.97 961.37,1852.37 "/>
    <polygon class="fil0" points="951.82,1852.37 1722.76,1081.43 1722.76,1071.88 942.28,1852.37 "/>
    <polygon class="fil0" points="875.46,1852.37 1722.76,1005.07 1722.76,995.52 865.92,1852.37 "/>
    <polygon class="fil0" points="856.37,1852.37 1722.76,985.98 1722.76,976.43 846.83,1852.37 "/>
    <polygon class="fil0" points="837.28,1852.37 1722.76,966.89 1722.76,957.34 827.74,1852.37 "/>
    <polygon class="fil0" points="818.19,1852.37 1722.76,947.8 1722.76,938.25 808.65,1852.37 "/>
    <polygon class="fil0" points="799.1,1852.37 1722.76,928.71 1722.76,919.16 789.56,1852.37 "/>
    <polygon class="fil0" points="780.01,1852.37 1722.76,909.62 1722.76,900.07 770.47,1852.37 "/>
    <polygon class="fil0" points="703.65,1852.37 1722.76,833.25 1722.76,823.71 694.11,1852.37 "/>
    <polygon class="fil0" points="684.56,1852.37 1722.76,814.16 1722.76,804.62 675.01,1852.37 "/>
    <polygon class="fil0" points="665.47,1852.37 1722.76,795.07 1722.76,785.53 655.92,1852.37 "/>
    <polygon class="fil0" points="760.92,1852.37 1722.76,890.53 1722.76,880.98 751.38,1852.37 "/>
    <polygon class="fil0" points="741.83,1852.37 1722.76,871.43 1722.76,861.89 732.29,1852.37 "/>
    <polygon class="fil0" points="722.74,1852.37 1722.76,852.34 1722.76,842.8 713.2,1852.37 "/>
    <polygon class="fil0" points="646.38,1852.37 1722.76,775.98 1722.76,766.44 636.83,1852.37 "/>
    <polygon class="fil0" points="627.29,1852.37 1722.76,756.89 1722.76,747.35 617.74,1852.37 "/>
    <polygon class="fil0" points="608.2,1852.37 1722.76,737.8 1722.76,728.26 598.65,1852.37 "/>
    <polygon class="fil0" points="589.11,1852.37 1722.76,718.71 1722.76,709.17 579.56,1852.37 "/>
    <polygon class="fil0" points="570.02,1852.37 1722.76,699.62 1722.76,690.08 560.47,1852.37 "/>
    <polygon class="fil0" points="550.93,1852.37 1722.76,680.53 1722.76,670.99 541.38,1852.37 "/>
    <polygon class="fil0" points="474.57,1852.37 1722.76,604.17 1722.76,594.63 465.02,1852.37 "/>
    <polygon class="fil0" points="455.48,1852.37 1722.76,585.08 1722.76,575.53 445.93,1852.37 "/>
    <polygon class="fil0" points="436.39,1852.37 1722.76,565.99 1722.76,556.44 426.84,1852.37 "/>
    <polygon class="fil0" points="531.84,1852.37 1722.76,661.44 1722.76,651.9 522.29,1852.37 "/>
    <polygon class="fil0" points="512.75,1852.37 1722.76,642.35 1722.76,632.81 503.2,1852.37 "/>
    <polygon class="fil0" points="493.66,1852.37 1722.76,623.26 1722.76,613.72 484.11,1852.37 "/>
    <polygon class="fil0" points="417.3,1852.37 1722.76,546.9 1722.76,537.35 407.75,1852.37 "/>
    <polygon class="fil0" points="398.21,1852.37 1722.76,527.81 1722.76,518.26 388.66,1852.37 "/>
    <polygon class="fil0" points="379.11,1852.37 1722.76,508.72 1722.76,499.17 369.57,1852.37 "/>
    <polygon class="fil0" points="360.02,1852.37 1722.76,489.63 1722.76,480.08 350.48,1852.37 "/>
    <polygon class="fil0" points="340.94,1852.37 1722.76,470.54 1722.76,460.99 331.39,1852.37 "/>
    <polygon class="fil0" points="321.84,1852.37 1722.76,451.45 1722.76,441.9 312.3,1852.37 "/>
    <polygon class="fil0" points="245.48,1852.37 1722.76,375.09 1722.76,365.54 235.94,1852.37 "/>
    <polygon class="fil0" points="226.39,1852.37 1722.76,356 1722.76,346.45 216.85,1852.37 "/>
    <polygon class="fil0" points="207.3,1852.37 1722.76,336.91 1722.76,327.36 197.76,1852.37 "/>
    <polygon class="fil0" points="302.75,1852.37 1722.76,432.36 1722.76,422.81 293.21,1852.37 "/>
    <polygon class="fil0" points="283.66,1852.37 1722.76,413.27 1722.76,403.72 274.12,1852.37 "/>
    <polygon class="fil0" points="264.57,1852.37 1722.76,394.18 1722.76,384.63 255.03,1852.37 "/>
    <polygon class="fil0" points="188.21,1852.37 1722.76,317.82 1722.76,308.27 178.67,1852.37 "/>
    <polygon class="fil0" points="169.12,1852.37 1722.76,298.73 1722.76,289.18 159.58,1852.37 "/>
    <polygon class="fil0" points="150.03,1852.37 1722.76,279.64 1722.76,270.09 140.49,1852.37 "/>
    <polygon class="fil0" points="130.94,1852.37 1722.76,260.55 1722.76,251 121.4,1852.37 "/>
    <polygon class="fil0" points="111.85,1852.37 1722.76,241.45 1722.76,231.91 102.31,1852.37 "/>
    <polygon class="fil0" points="92.76,1852.37 1722.76,222.36 1722.76,212.82 83.22,1852.37 "/>
    <path class="fil0" d="M28.78 1839.98l1693.98 -1693.98 0 -9.55 -1699.42 1699.42c1.74,1.45 3.56,2.82 5.44,4.1z"/>
    <path class="fil0" d="M18.37 1831.31l1704.39 -1704.39 0 -9.54 -1708.89 1708.89c1.41,1.76 2.91,3.44 4.49,5.05z"/>
    <path class="fil0" d="M9.89 1820.7l1712.88 -1712.88 0 -9.55 -1716.33 1716.33c1.04,2.09 2.19,4.13 3.45,6.09z"/>
    <path class="fil0" d="M73.67 1852.37l1649.09 -1649.09 0 -9.54 -1658.46 1658.46c1.7,0.12 3.42,0.18 5.16,0.18l4.21 0z"/>
    <path class="fil0" d="M55.84 1851.1l1666.92 -1666.92 0 -9.55 -1674.59 1674.59c2.5,0.76 5.06,1.39 7.67,1.88z"/>
    <path class="fil0" d="M41.16 1846.7l1681.61 -1681.61 0 -9.54 -1688.05 1688.05c2.08,1.13 4.24,2.17 6.45,3.1z"/>
    <path class="fil0" d="M3.58 1807.91l1719.18 -1719.18 0 -9.54 -1721.32 1721.32c0.56,2.52 1.28,5 2.14,7.4z"/>
    <path class="fil0" d="M0.2 1792.21l1722.57 -1722.57 0 -4.6c0,-1.6 -0.06,-3.19 -0.19,-4.76l-1722.57 1722.57 0 4.47c0,1.64 0.07,3.27 0.2,4.88z"/>
    <path class="fil0" d="M0 1773.31l1721.35 -1721.35c-0.55,-2.53 -1.27,-5 -2.13,-7.42l-1719.22 1719.22 0 9.55z"/>
   </g>
   <g>
    <path class="fil0" d="M0 1773.31l1721.35 -1721.35c-0.55,-2.53 -1.27,-5 -2.13,-7.41l-1719.22 1719.22 0 9.54z"/>
    <path class="fil0" d="M0 1754.22l1716.37 -1716.37c-1.04,-2.09 -2.19,-4.13 -3.45,-6.1l-1712.93 1712.93 0 9.55z"/>
    <path class="fil0" d="M0 1735.13l1708.94 -1708.94c-1.4,-1.76 -2.9,-3.44 -4.49,-5.06l-1704.46 1704.46 0 9.55z"/>
    <path class="fil0" d="M0 1658.77l1658.58 -1658.58c-1.74,-0.12 -3.51,-0.19 -5.28,-0.19l-4.08 0 -1649.22 1649.22 0 9.54z"/>
    <polygon class="fil0" points="0,1639.68 1639.68,0 1630.13,0 0,1630.13 "/>
    <polygon class="fil0" points="0,1620.59 1620.59,0 1611.04,0 0,1611.04 "/>
    <path class="fil0" d="M0 1716.04l1699.49 -1699.49c-1.74,-1.45 -3.55,-2.82 -5.44,-4.11l-1694.06 1694.06 0 9.55z"/>
    <path class="fil0" d="M0 1696.95l1688.14 -1688.14c-2.08,-1.14 -4.23,-2.18 -6.44,-3.11l-1681.7 1681.7 0 9.55z"/>
    <path class="fil0" d="M0 1677.86l1674.69 -1674.69c-2.49,-0.76 -5.05,-1.39 -7.66,-1.89l-1667.03 1667.03 0 9.55z"/>
    <polygon class="fil0" points="0,1601.5 1601.5,0 1591.95,0 0,1591.95 "/>
    <polygon class="fil0" points="0,1582.41 1582.41,0 1572.86,0 0,1572.86 "/>
    <polygon class="fil0" points="0,1563.32 1563.32,0 1553.77,0 0,1553.77 "/>
    <polygon class="fil0" points="0,1544.23 1544.23,0 1534.68,0 0,1534.68 "/>
    <polygon class="fil0" points="0,1525.14 1525.14,0 1515.59,0 0,1515.59 "/>
    <polygon class="fil0" points="0,1506.05 1506.05,0 1496.5,0 0,1496.5 "/>
    <polygon class="fil0" points="0,1429.68 1429.68,0 1420.14,0 0,1420.14 "/>
    <polygon class="fil0" points="0,1410.59 1410.59,0 1401.05,0 0,1401.05 "/>
    <polygon class="fil0" points="0,1391.5 1391.5,0 1381.96,0 0,1381.96 "/>
    <polygon class="fil0" points="0,1486.96 1486.95,0 1477.41,0 0,1477.41 "/>
    <polygon class="fil0" points="0,1467.86 1467.86,0 1458.32,0 0,1458.32 "/>
    <polygon class="fil0" points="0,1448.77 1448.77,0 1439.23,0 0,1439.23 "/>
    <polygon class="fil0" points="0,1372.41 1372.41,0 1362.87,0 0,1362.87 "/>
    <polygon class="fil0" points="0,1353.32 1353.32,0 1343.78,0 0,1343.78 "/>
    <polygon class="fil0" points="0,1334.23 1334.23,0 1324.69,0 0,1324.69 "/>
    <polygon class="fil0" points="0,1315.14 1315.14,0 1305.6,0 0,1305.6 "/>
    <polygon class="fil0" points="0,1296.05 1296.05,0 1286.51,0 0,1286.51 "/>
    <polygon class="fil0" points="0,1276.96 1276.96,0 1267.42,0 0,1267.42 "/>
    <polygon class="fil0" points="0,1200.6 1200.6,0 1191.06,0 0,1191.06 "/>
    <polygon class="fil0" points="0,1181.51 1181.51,0 1171.96,0 0,1171.96 "/>
    <polygon class="fil0" points="0,1162.42 1162.42,0 1152.87,0 0,1152.87 "/>
    <polygon class="fil0" points="0,1257.87 1257.87,0 1248.33,0 0,1248.33 "/>
    <polygon class="fil0" points="0,1238.78 1238.78,0 1229.24,0 0,1229.24 "/>
    <polygon class="fil0" points="0,1219.69 1219.69,0 1210.15,0 0,1210.15 "/>
    <polygon class="fil0" points="0,1143.33 1143.33,0 1133.78,0 0,1133.78 "/>
    <polygon class="fil0" points="0,1124.24 1124.24,0 1114.69,0 0,1114.69 "/>
    <polygon class="fil0" points="0,1105.15 1105.15,0 1095.6,0 0,1095.6 "/>
    <polygon class="fil0" points="0,1086.06 1086.06,0 1076.51,0 0,1076.51 "/>
    <polygon class="fil0" points="0,1066.97 1066.97,0 1057.42,0 0,1057.42 "/>
    <polygon class="fil0" points="0,1047.88 1047.88,0 1038.33,0 0,1038.33 "/>
    <polygon class="fil0" points="0,971.52 971.52,0 961.97,0 0,961.97 "/>
    <polygon class="fil0" points="0,952.43 952.43,0 942.88,0 0,942.88 "/>
    <polygon class="fil0" points="0,933.34 933.34,0 923.79,0 0,923.79 "/>
    <polygon class="fil0" points="0,1028.79 1028.79,0 1019.24,0 0,1019.24 "/>
    <polygon class="fil0" points="0,1009.7 1009.7,0 1000.15,0 0,1000.15 "/>
    <polygon class="fil0" points="0,990.61 990.61,0 981.06,0 0,981.06 "/>
    <polygon class="fil0" points="0,914.25 914.25,0 904.7,0 0,904.7 "/>
    <polygon class="fil0" points="0,895.16 895.16,0 885.61,0 0,885.61 "/>
    <polygon class="fil0" points="0,876.07 876.07,0 866.52,0 0,866.52 "/>
    <polygon class="fil0" points="0,856.98 856.98,0 847.43,0 0,847.43 "/>
    <polygon class="fil0" points="0,837.88 837.88,0 828.34,0 0,828.34 "/>
    <polygon class="fil0" points="0,818.79 818.79,0 809.25,0 0,809.25 "/>
    <polygon class="fil0" points="0,742.43 742.43,0 732.89,0 0,732.89 "/>
    <polygon class="fil0" points="0,723.34 723.34,0 713.8,0 0,713.8 "/>
    <polygon class="fil0" points="0,704.25 704.25,0 694.71,0 0,694.71 "/>
    <polygon class="fil0" points="0,799.7 799.7,0 790.16,0 0,790.16 "/>
    <polygon class="fil0" points="0,780.61 780.61,0 771.07,0 0,771.07 "/>
    <polygon class="fil0" points="0,761.52 761.52,0 751.98,0 0,751.98 "/>
    <polygon class="fil0" points="0,685.16 685.16,0 675.62,0 0,675.62 "/>
    <polygon class="fil0" points="0,666.07 666.07,0 656.53,0 0,656.53 "/>
    <polygon class="fil0" points="0,646.98 646.98,0 637.44,0 0,637.44 "/>
    <polygon class="fil0" points="0,627.89 627.89,0 618.35,0 0,618.35 "/>
    <polygon class="fil0" points="0,608.8 608.8,0 599.26,0 0,599.26 "/>
    <polygon class="fil0" points="0,589.71 589.71,0 580.17,0 0,580.17 "/>
    <polygon class="fil0" points="0,513.35 513.35,0 503.8,0 0,503.8 "/>
    <polygon class="fil0" points="0,494.26 494.26,0 484.71,0 0,484.71 "/>
    <polygon class="fil0" points="0,475.17 475.17,0 465.62,0 0,465.62 "/>
    <polygon class="fil0" points="0,570.62 570.62,0 561.08,0 0,561.08 "/>
    <polygon class="fil0" points="0,551.53 551.53,0 541.98,0 0,541.98 "/>
    <polygon class="fil0" points="0,532.44 532.44,0 522.89,0 0,522.89 "/>
    <polygon class="fil0" points="0,456.08 456.08,0 446.53,0 0,446.53 "/>
    <polygon class="fil0" points="0,436.99 436.99,0 427.44,0 0,427.44 "/>
    <polygon class="fil0" points="0,417.9 417.9,0 408.35,0 0,408.35 "/>
    <polygon class="fil0" points="0,398.81 398.81,0 389.26,0 0,389.26 "/>
    <polygon class="fil0" points="0,379.72 379.72,0 370.17,0 0,370.17 "/>
    <polygon class="fil0" points="0,360.63 360.63,0 351.08,0 0,351.08 "/>
    <polygon class="fil0" points="0,284.27 284.27,0 274.72,0 0,274.72 "/>
    <polygon class="fil0" points="0,265.17 265.17,0 255.63,0 0,255.63 "/>
    <polygon class="fil0" points="0,246.09 246.09,0 236.54,0 0,236.54 "/>
    <polygon class="fil0" points="0,341.54 341.54,0 331.99,0 0,331.99 "/>
    <polygon class="fil0" points="0,322.45 322.45,0 312.9,0 0,312.9 "/>
    <polygon class="fil0" points="0,303.36 303.36,0 293.81,0 0,293.81 "/>
    <polygon class="fil0" points="0,227 227,0 217.45,0 0,217.45 "/>
    <polygon class="fil0" points="0,207.9 207.9,0 198.36,0 0,198.36 "/>
    <polygon class="fil0" points="0,188.81 188.81,0 179.27,0 0,179.27 "/>
    <polygon class="fil0" points="0,169.72 169.72,0 160.18,0 0,160.18 "/>
    <polygon class="fil0" points="0,150.63 150.63,0 141.09,0 0,141.09 "/>
    <polygon class="fil0" points="0,131.54 131.54,0 122,0 0,122 "/>
    <path class="fil0" d="M0.97 54.21l52.45 -52.45c-5.03,1.12 -9.84,2.75 -14.38,4.84l-33.87 33.87c-1.91,4.36 -3.33,8.96 -4.19,13.74z"/>
    <polygon class="fil0" points="0,112.45 112.45,0 102.91,0 0,102.91 "/>
    <polygon class="fil0" points="0,93.36 93.36,0 83.82,0 0,83.82 "/>
    <path class="fil0" d="M0 74.27l74.27 -74.27 -4.81 0c-1.65,0 -3.28,0.06 -4.9,0.16l-64.56 64.56 -0 0.32 0 9.23z"/>
   </g>
  </g>
 </g>
</svg>
