<?xml version="1.0" encoding="UTF-8"?>
<!DOCTYPE svg PUBLIC "-//W3C//DTD SVG 1.1//EN" "http://www.w3.org/Graphics/SVG/1.1/DTD/svg11.dtd">
<!-- Creator: CorelDRAW 2020 (64-Bit) -->
<svg xmlns="http://www.w3.org/2000/svg" xml:space="preserve" width="58.2082mm" height="58.2083mm" version="1.1"
     style="shape-rendering:geometricPrecision; text-rendering:geometricPrecision; image-rendering:optimizeQuality; fill-rule:evenodd; clip-rule:evenodd"
     viewBox="0 0 545.98 545.98"
>
 <defs>
  <style type="text/css">
   <![CDATA[
    .fil0 {fill:black}
   ]]>
  </style>
 </defs>
 <g id="Слой_x0020_1">
  <metadata id="CorelCorpID_0Corel-Layer"/>
  <path class="fil0" d="M106.58 516.58c-0.13,0.08 -3,3.23 -6.23,5.45 -2.31,1.59 -5.13,2.99 -7.97,3.71 -8.78,2.23 -27.43,1.22 -37.06,1.22 -15.22,0 -18.14,-0.78 -27.06,-7.65 -4.12,-3.17 -8.7,-11.86 -8.94,-17.65 -0.41,-9.72 -0.33,-20.28 -0.33,-30.49 0,-11.99 -0.05,-18.43 5.07,-25.75 4.51,-6.46 10.66,-10.54 18.79,-12.03 4.43,-0.81 25.45,-0.5 30.24,-0.5 15.8,0.02 26.28,-0.23 35.31,13.11 1.82,2.69 4.18,8.08 4.35,12.19 0.33,7.9 1.1,39.88 -0.71,47.3 -0.56,2.31 -1.23,3.95 -2.21,5.9 -1.31,2.62 -2.42,3.56 -3.25,5.19zm306.74 -284.5c1.16,3.9 0.38,7.29 -2.1,9.76 -1.16,1.16 -3.41,2.45 -5.16,2.58 -1.66,0.12 -3.21,0.08 -4.42,-0.44 -0.6,-0.25 -1.31,-0.59 -1.77,-0.86l-2.66 -2.53c-0.38,-0.55 -0.66,-1.11 -0.92,-1.68 -0.76,-1.65 -0.64,-2.1 -0.65,-4.46 0.04,-2.06 1.27,-4.17 2.42,-5.44 1.05,-1.15 3.47,-2.59 5.37,-2.75 5.32,-0.43 7.83,1.9 9.89,5.82zm1.46 -31.5c-0.76,-2.98 -0.29,-4.98 -1.71,-7.64 -1.04,-1.94 -3.11,-3.65 -5.36,-4.37 -2.4,-0.77 -15.58,-0.26 -19.47,-0.26 -4.61,-0 -8.96,0.06 -11.29,5.96 -2,5.06 1.16,6.41 -5.2,11.35l-0.58 0.5c-0.05,0.04 -0.14,0.12 -0.19,0.19 -1,-0.01 -0.67,0.13 -1.74,0.34 -2.28,0.47 -4.55,0.11 -6.37,-0.82 -1.01,-0.52 -1.99,-1.22 -2.73,-2.13 -0.98,-1.2 -1.06,-1.86 -1.8,-2.98 -0.78,-3.72 -0.21,-8.72 -5.5,-11.45 -3.43,-1.77 -5.39,-0.41 -9,-2.36 -2.31,-1.25 -4.42,-3.94 -4.64,-6.72 -0.22,-2.81 0.29,-3.39 0.65,-5.34l0.54 -0.61c1.36,-1.82 2.69,-3.63 5.75,-4.3 5.01,-1.09 9.14,1.69 10.79,5.84 0.57,1.44 0.58,3.28 0.81,5.03 1.36,10.3 17.99,9.78 18.77,-0.29 0.26,-3.35 0,-7.87 0,-11.35 0,-1.95 0.01,-3.9 -0,-5.84 -0.01,-2.36 0.33,-3.36 0.33,-5.47 0.3,-0.47 0.06,-0.07 0.35,-0.66 0.89,-1.82 1.22,-2.93 3.12,-4.36 2.02,-1.52 3.6,-1.85 6.62,-2.13 4.8,-0.45 8.43,-4.08 8.42,-9.1l-0.01 -69.43c0,-7.52 0.82,-10.2 -3.66,-13.86 -1.73,-1.42 -3.84,-1.87 -7.06,-1.72 -4.01,0.19 -8.13,4.02 -8.11,9.08 0.02,7.17 0.95,20.33 -1.88,24.4 -1.13,1.63 -2.76,2.92 -4.87,3.57 -2.62,0.81 -4.57,0.19 -7.21,1.55 -6.31,3.26 -6.88,12.92 -0.42,16.67 2.71,1.57 3.87,0.93 7.12,1.64 4.74,1.04 7.52,5.55 6.92,10.59 -0.61,5.1 -5.19,7.19 -9.76,7.71 -4.83,0.54 -8.69,3.68 -8.7,8.86 -0.73,2.8 -0.24,3.47 -1.89,5.85 -3.91,5.63 -12.23,4.95 -15.41,-0.59 -2.54,-4.42 -0.02,-7.23 -4.18,-11.39 -4.33,-4.32 -10.58,-2.7 -11.61,-1.37 -1.23,0.5 -2.32,1.57 -3.11,2.72 -2.35,3.42 -1.43,10.61 -1.43,16.09 0,7.69 0.01,15.38 0,23.07 -0.01,3.31 -0.45,23.67 0.35,25.89 3.38,9.32 11.52,3.61 16.3,9.98 2.81,3.75 2.18,9.1 2.17,15.42 -0.01,2.79 0.01,5.58 -0,8.37 -0.02,3.15 0.36,4.88 1.86,6.57 3.8,4.29 5.99,3.49 13.47,3.48 3.86,-0.01 11.43,-0.28 15.02,0.48 1.09,0.23 0.76,0.35 1.74,0.33l2.95 2.44c4.2,4.85 0.49,10.19 6.83,14.26 3.03,1.95 5.8,0.99 8.53,2.17 1.66,0.72 2.08,1.36 3.48,2.05 0.28,1.28 -0.1,0.09 0.54,1.08 0.31,0.48 0.46,0.62 0.76,1.19 1.78,3.36 0.56,5.38 2.14,8.56 1.95,3.92 4.86,5.06 9.31,5.07 5.05,0.01 13.7,-0.49 18.22,0.17 2,0.29 2.27,0.25 3.64,0.91 5.57,2.7 4.93,7.31 5.61,8.61l-0 10.58c-0.01,3.66 -0.59,9.58 0.96,12.52 1.82,3.43 4.68,4.87 8.78,4.86 4.08,-0.02 6.85,-2.3 8.22,-5.09 1.92,-3.9 0.11,-6.45 3.31,-10.31l1.71 -1.54c3.14,-2.18 5.24,-1.38 7.97,-2.09 5.6,-1.45 8.21,-8.09 6.14,-12.89 -2.9,-6.75 -8.24,-5.22 -11.97,-6.53 -1.17,-0.41 -0.28,-0.38 -1.42,-0.34l-1.07 -1.05c-2.07,-1.71 -1.32,-1.5 -2.8,-3.17 -0.04,-0.05 -0.12,-0.14 -0.19,-0.2l-1.16 -7.07c-2.16,-6.03 -6.8,-5.96 -10.64,-6.55 -1.77,-0.27 -3.11,-1.08 -4.38,-2.1l-1.16 -1.03c-1.63,-2.79 -2.23,-3.53 -1.89,-8.2 0.79,-1.4 0.86,-2.17 1.92,-3.51 0.48,-0.61 0.79,-0.92 1.48,-1.44 3.71,-2.82 7.71,-2.24 11.08,-0.22 1.44,1.89 3.98,2.76 3.95,9.62 0.96,2.42 0.87,2.78 2.67,4.58 1.2,1.2 2.69,2.3 4.54,2.6 3.02,0.5 10.74,0.06 14.26,0.07 2.18,0 4.52,-0.17 6.63,0.13 3.06,0.44 2.92,0.61 5.14,1.5l3.72 4.89c0.94,2.52 0.01,4.04 1.65,7.49 3.72,6.23 11.12,6.18 15.01,2.3 2.42,-2.42 2.84,-3.52 2.83,-8.2 -0.01,-3.78 0.01,-7.56 0,-11.33 -0.01,-3.17 0.49,-7.44 -0.54,-9.86 -0.83,-1.95 -3.09,-4.93 -5.3,-4.92 -1.53,-1.57 -3.75,-0.31 -6.91,-1.68 -1.63,-0.71 -2.73,-1.43 -3.75,-2.75 -0.51,-0.65 -0.46,-0.5 -0.87,-1.25 -0.67,-1.61 -0.87,-1.45 -1.15,-3.53 -0.16,-1.18 -0.28,-3.16 -0.62,-4.16 -1.25,-3.34 -4.09,-6.27 -8.75,-6.26 -5.07,0.02 -10.13,0 -15.2,0.01 -5.4,0.01 -22.21,0.55 -25.55,-0.64 -2.79,-0.95 -4.74,-2.87 -5.86,-5.64 -0.58,-1.45 -0.58,-3.29 -0.8,-5.03 -0.18,-1.36 -0.95,-3.24 -1.86,-3.93 -1.12,-1.44 -1.91,-2.15 -3.61,-2.92 -4.85,-2.19 -8.42,1.2 -12.66,-7.19zm-214.76 -31.09l8.87 0c7.05,0 12.08,1.19 15.66,-4.02 1.99,-2.89 1.96,-7.65 0.13,-10.57 -2.13,-3.39 -4.96,-4.25 -8.76,-4.22 -2.31,0.01 -4.62,0 -6.92,0l-8.9 0c-3.64,-0 -6.08,-0.69 -8.15,-2.3 -1.05,-0.82 -1.76,-1.76 -2.43,-3.09 -1.01,-2.03 -0.56,-2.71 -1.18,-4.61 0,-3.47 -1.89,-5.92 -4.02,-7.38 -2.16,-1.48 -5.22,-1.42 -9.25,-2.4 -1.64,-1.37 -3.23,-1.49 -4.77,-5.31 -1.95,-4.83 1.25,-11.36 7.35,-12.2 3.79,-0.52 5.4,-0.38 7.71,-2.67 4.29,-4.27 4.14,-10.1 -0.16,-14.29 -2.2,-2.15 -4.04,-2.18 -8.2,-2.18 -3.55,0 -7.11,0 -10.66,0 -7.55,0 -9.66,-0.89 -13.6,3.31 -1.51,1.61 -2.04,3.33 -2.02,6.41 0.04,6.34 0.31,33.92 -0.29,38.31 -0.24,1.72 -0.84,2.51 -0.84,3.54l-0.91 0.89c-4.76,5.55 -11.04,3.99 -20.39,3.98l-13.25 0c-4.45,0 -12.96,-0.78 -16.34,1.18 -5.52,3.2 -4.43,8.71 -4.43,13.42 0,9.43 -2.12,18.5 4.85,22.07 1.08,0.55 1.88,0.93 3.57,0.97 1.5,0.04 2.89,0.11 3.91,-0.34 6.68,-2.23 6.21,-7.11 6.9,-10.95 0.39,-2.15 1.79,-4.18 3.38,-5.38 2.18,-1.64 3.35,-1.84 7.05,-1.84 5.02,0.5 7.37,4.92 7.92,9.79 0.56,4.96 3.78,8.69 9.06,8.7l16.72 0c4.37,0 6.91,0.36 10.21,-3.65 1.16,-1.42 1.51,-2.74 1.77,-5.05 0.54,-4.79 0.57,-2.85 1.56,-5.9 1.1,-0.57 0.41,-0.79 2.35,-2.19 3.52,-2.54 7.74,-2.02 12.6,-2.03l13.93 0zm17.84 -75.58c-10.95,0.26 -13.84,10.71 -7.71,16.8 1.98,1.97 4.79,2.6 7.68,2.67 3.21,0.25 5.9,2.68 7.18,5.51 0.72,1.6 0.59,2.97 0.97,3.61 0,2.45 0.17,3.08 1.07,4.74 2.94,5.47 10.31,5.52 12.72,3.66 6.16,-2.5 4.37,-8.91 6.32,-12.66 1.27,-2.46 2.04,-2.35 2.99,-3.55 1.66,-0.43 1.91,-1.2 4.15,-1.31 5.19,-0.26 9.16,2.69 9.98,7.23 0.8,4.41 0.12,5.65 2.91,8.44 2.55,2.55 3.58,2.83 8.46,2.83 2.7,-0.21 4.56,-1.86 6,-3.48 3.46,-3.92 0.21,-9.47 6.02,-13.44 1.55,-1.06 5.21,-2.49 7.85,-1.24 3.16,0.72 5.93,3.86 6.43,7.17 0.55,3.58 0.32,6.76 4.39,9.56 4.16,2.85 11.31,1.94 14.05,-3.86 0.62,-1.31 1.07,-3.99 1.07,-5.79 3.27,-10.2 9.96,-5.77 14.66,-9.3 6.12,-4.6 4.68,-12.76 -0.39,-15.95 -3.14,-1.97 -9.73,-1.3 -14.71,-1.3 -6.92,-0.01 -13.87,0.98 -17.18,-4.76 -1.8,-3.11 -0.89,-5.87 -2.26,-8.77 -0.99,-2.1 -3.39,-4.74 -6.05,-4.96l-1.95 -0.35c-5.12,-0.1 -9.22,2.54 -10,7.24 -0.64,3.82 -0.13,4.87 -2.11,7.62 -1.25,1.74 -3.52,3.44 -6.13,3.65 -4.73,0 -8.03,-1.24 -9.89,-5.96 -1.16,-2.94 -0.77,-10.92 -0.77,-15.13 0,-6.36 0.89,-9.99 -2.51,-13.39 -1.38,-1.38 -2.87,-2.64 -5.28,-2.83 -2.35,-0.18 -5.52,-0 -7.96,-0l-10.58 -0c-2.4,0 -4.65,-0.39 -6.74,-1.64l-1.95 -1.63c-1.48,-1.68 -0.95,-1.8 -1.97,-2.97 -0.42,-4.59 -0.94,-9.15 -5.28,-11.51 -2.64,-1.43 -3.79,-0.85 -6.91,-1.52 -3.23,-0.7 -4.09,-2.68 -5.48,-3.43 -0.39,-1.68 -1.74,-2.39 -1.8,-7.45 -0.04,-3.12 0.01,-6.29 0.01,-9.42 0,-7.93 1.01,-11.65 -3.84,-15.3 -3.42,-2.58 -9.74,-2.62 -13.42,2.27 -2.36,3.14 -1.56,11.8 -1.56,17.25 0,3.22 0.17,6.88 -0.52,9.54 -0.32,1.24 -0.97,2.32 -1.65,3.22 -0.88,1.17 -1.66,1.61 -2.72,2.49 -1.07,0.24 -1.2,0.57 -2.39,0.84 -0.77,0.17 -2.27,0.33 -2.84,0.4 -10.91,1.22 -11.44,14.5 -3.19,18.24 2.9,1.31 8.76,0.64 12.75,0.64 2.51,-0 10.97,0.41 12.24,0.16l1.29 0.83c1.31,0.65 2.28,1.05 3.4,2.42 3.57,4.38 1.22,7.85 4.01,11.56 1.31,1.74 2.69,2.74 4.88,3.51 1.96,0.78 9.81,-0.3 11.86,7.32 1.6,5.98 -3.12,11.13 -7.6,11.49zm-20.17 113.21l11.58 -0 21.35 0c5.31,-0 10.79,0.89 13.63,-5.73 1.29,-3.01 0.54,-14.81 0.54,-19.25 0,-4.09 0.36,-5.79 -1.3,-8.43 -1.13,-1.79 -3.54,-3.77 -5.9,-4.16 -6.76,-1.1 -11.5,3.53 -11.61,7.93 -0.09,4.43 -1.76,7.47 -4.55,9.18 -3.2,1.97 -7.17,1.63 -12.21,1.63l-13.18 0 -16.78 0c-4.69,0 -7.87,2.01 -9.38,6.19 -0.89,2.46 -0.35,11.99 -0.35,15.54 0,6.29 -0.86,9.7 2.51,13.06 2.91,2.91 7.18,3.7 10.36,2.4l1.41 -0.86c1.52,-0.4 3.11,-2.54 3.8,-3.99 1.08,-2.29 0.61,-4.02 1.26,-6.52 1.31,-4.99 4.88,-5.96 8.15,-6.76 0.08,-0.02 0.18,-0.05 0.24,-0.07l0.44 -0.18zm88.15 -185.87c7.24,-3.68 6.1,-1.19 9.9,-2.91 7.13,-3.22 7.21,-12.45 1.67,-16.61 -2.91,-2.19 -6.73,-1.56 -11.59,-1.56l-21.05 -0 -10.25 0 -11.26 0c-7.85,-0 -10.99,-1.26 -15.27,3.32 -1.84,1.97 -2.03,3.7 -2.02,7.39l-0.01 18.83c0.12,2.87 1.72,4.57 3.32,6.08 3.11,2.94 10.8,2.02 16.75,2.02 2.94,-0 8.57,-0.31 11.29,0.77l2.52 1.26c0.03,0.02 0.12,0.06 0.19,0.08 0.06,0.07 0.15,0.08 0.18,0.2l2.32 3.31c1.28,2.69 0.71,11.13 6.39,12.22 0.51,0.62 1.36,0.85 2.17,0.95 2.9,0.33 5.95,-0.06 8.01,-1.99 3.24,-3.03 3.32,-4.04 3.31,-9.99 -0,-4.43 0.02,-8.87 -0,-13.3 -0.02,-3.92 0.38,-6.3 2.61,-9.08l0.68 -0.83c0.02,-0.03 0.09,-0.1 0.13,-0.15zm-17.15 148.24c6,-0 7.82,0.57 11.07,-2.67 5.58,-5.57 2.54,-15.33 -5.73,-16.18 -2.35,-0.24 -3.63,-0.37 -5.45,-1.36 -1.86,-1.02 -2.46,-1.93 -3.66,-3.54 -0.25,-0.98 -0.49,-1.01 -0.78,-2.07 -0.18,-0.68 -0.29,-1.8 -0.39,-2.54 -0.34,-2.52 -0.17,-2.73 -1.2,-4.63 -2.78,-5.13 -10.75,-6.97 -15.89,-1.15 -2.31,2.61 -1.86,5.51 -1.86,10.14 0,4 0,8 -0,12 0,5.21 -0.08,6.59 2.67,9.33 2.75,2.75 4.13,2.67 9.33,2.67 3.96,0 7.93,0 11.89,0zm80.89 -169.33c-4.09,-0 -5.3,-0.18 -8.53,3.15 -4.5,4.64 -2.47,15.68 7.23,15.68 9.7,0 11.73,-11.05 7.23,-15.68 -1.4,-1.44 -3.25,-3.15 -5.93,-3.15zm-198.87 233.88l0 2.59c0,3.81 4.3,8.11 8.11,8.11 3.45,0 5.14,0.24 7.87,-2.51 0.84,-0.84 1.17,-1.03 1.76,-2.13 1.88,-3.49 1.6,-8.31 -1.44,-11.35 -0.84,-0.84 -1.03,-1.17 -2.13,-1.76 -6.29,-3.39 -14.18,1.16 -14.18,7.04zm0 -206.95c-0,3.71 0.35,7.33 4.63,9.64 6.29,3.39 14.18,-1.16 14.18,-7.04l0 -2.59c0,-3.81 -4.3,-8.11 -8.11,-8.11l-2.6 0c-3.81,0 -8.11,4.31 -8.11,8.11zm0 37.63l-0 2.6c0,3.81 4.3,8.11 8.11,8.11l2.6 0c3.62,0 8.11,-4.27 8.11,-7.78 0,-3.6 0.38,-5.32 -2.5,-8.2 -6.44,-6.43 -16.31,-1.22 -16.31,5.28zm188.16 56.44l0 2.6c0,3.8 4.3,8.11 8.11,8.11l2.6 0c3.8,0 8.11,-4.31 8.11,-8.11l0 -2.6c-0,-3.8 -4.31,-8.11 -8.11,-8.11l-2.6 0c-3.8,0 -8.11,4.31 -8.11,8.11zm37.63 -112.88c0,3.99 -0.2,5.21 2.99,8.36 5.6,5.55 15.83,0.94 15.83,-5.77 0,-3.99 0.19,-5.2 -2.99,-8.36 -5.6,-5.55 -15.83,-0.94 -15.83,5.77zm-188.16 75.26l-0 2.6c0,3.8 4.3,8.11 8.11,8.11l2.6 -0c3.8,-0 8.11,-4.3 8.11,-8.11l0 -2.6c-0,-3.81 -4.31,-8.11 -8.11,-8.11l-2.6 0c-3.81,0 -8.11,4.3 -8.11,8.11zm0 37.63l-0 2.6c0,3.8 4.3,8.11 8.11,8.11l2.6 0c3.8,-0 8.11,-4.3 8.11,-8.11l0 -2.6c-0,-3.81 -4.31,-8.11 -8.11,-8.11l-2.6 0c-3.81,0 -8.11,4.3 -8.11,8.11zm75.26 74.93l0 3.24c0,3.51 4.49,7.78 8.11,7.78l2.6 -0c3.8,0 8.11,-4.3 8.11,-8.11l0 -2.6c0,-3.8 -4.3,-8.11 -8.11,-8.11l-2.92 0c-3.33,0 -7.78,4.45 -7.78,7.78zm-94.08 56.77c-0,4.08 -0.21,5.18 2.99,8.36 5.57,5.54 15.83,0.98 15.83,-5.77l-0 -2.6c0,-3.81 -4.3,-8.11 -8.11,-8.11l-2.6 0c-3.81,0 -8.11,4.3 -8.11,8.11zm119.71 -120.67c-0.89,0.27 -0.7,0.02 -1.76,0.52 -9.52,4.52 -5.08,21.03 7.08,17.79 9.69,-2.58 9.38,-18.71 -3.07,-18.65 -0.3,0 -1,0 -1.27,0.04 -1.43,0.21 -0.68,0.21 -0.99,0.31zm31.15 -85.48c-0.01,-4.55 3.78,-8.04 7.79,-8.59 4.09,-0.56 7.87,-0.71 10.16,-6.06 1.61,-3.75 0.44,-8.97 -3.49,-11.66 -2,-1.37 -3.44,-1.44 -6.68,-1.43 -2.71,0.01 -5.42,0 -8.13,0 -4.07,-0 -10.94,-0.67 -14.16,1.07 -4.91,2.66 -4.64,6.95 -4.64,10.93 0,10.27 -0,20.54 -0,30.82 0,6.77 -0.38,8.36 3.48,11.76 2.96,2.6 8.89,2.61 11.85,0 3.84,-3.38 3.48,-5.01 3.48,-11.76 0,-3.75 -0.54,-12.3 0.33,-15.09zm18.49 39.41c0.13,5.7 7.44,10.36 13.75,7.26 6.86,-3.37 5.07,-10.68 5.07,-17.96 0,-7.57 0,-15.14 0,-22.71 0,-4.21 0.51,-7.39 -1.07,-10.29 -3.54,-6.53 -14.49,-6.5 -17.4,1.55 -0.88,2.43 -0.35,37.83 -0.35,42.14zm-52.94 169.97c1.02,-0.44 5.57,-2.09 6.84,-1.94 3.23,0.39 1.99,3.55 1.98,6.23 -0.33,1.18 -0.45,2.86 -0.63,4.16 -0.2,1.42 -0.56,2.88 -0.67,4.13l-3.56 21.67c-0.13,1.17 -0.62,2.99 -1.01,3.99 -0.44,1.13 -1.03,2.18 -2.57,2.33 -2.16,0.22 -4.15,-1.36 -5.9,-2.54 -0.06,-0.04 -0.14,-0.09 -0.2,-0.13l-6.74 -4.63c-8.16,-5.4 -9.29,-5.49 -5.08,-9.68 0.79,-0.79 1.6,-1.74 2.46,-2.41l1.47 -1.14c0.42,-0.42 0.65,-0.71 1.1,-1.16 1.8,-1.82 7.95,-7.16 8.86,-8.69 0.53,-0.89 0.83,-1.98 -1.01,-1.65l-18.83 12.34c-2.28,1.59 -3.92,2.79 -7.62,2.78 -3.28,-1.03 -9.07,-2.01 -11.21,-3.89 -0.15,-2.12 1.55,-2.4 3.44,-3.25l4.93 -2.27c0.26,-0.07 11.72,-4.72 12.55,-5.51l2.01 -0.63c0.61,-0.29 -0.02,-0.02 0.64,-0.33l8.09 -3.65c1.35,-0.19 1.55,-0.41 2.6,-0.9 0.91,-0.42 1.72,-0.7 2.77,-1.12 1.61,-0.64 3.96,-1.42 5.26,-2.13zm-29.9 61.63c1.41,0.81 3.17,1.18 4.72,1.56 1.64,0.4 3.5,1.01 5.29,1.03l4.84 0.51c2.07,0.31 8.75,-0.34 10.72,-0.69 1.75,-0.31 3.12,-0.71 4.63,-1.12 2.75,-0.56 4.8,-1.75 7.22,-2.6l10.18 -6.33c2.38,-3.16 1.77,-0.86 4.53,-4.59l2.19 -2.33c0.06,-0.08 0.21,-0.31 0.27,-0.39 0.91,-1.29 2.15,-2.63 2.46,-3.86l0.4 -0.35c1.35,-1.43 3.51,-6.42 4.22,-8.18 0.85,-2.12 2.65,-7.79 2.68,-10.38 0.23,-2.41 0.76,-5 0.66,-7.71l-0.84 -7.93c-0.36,-2.02 -3.01,-11.84 -4.36,-12.83l-0.87 -1.75c-0.32,-0.62 -0.46,-0.97 -0.76,-1.48 -0.5,-0.86 -1.16,-1.8 -1.81,-2.74 -0.69,-1 -1.21,-1.62 -1.93,-2.61 -0.85,-1.16 -1.31,-1.38 -2.17,-2.37l-4.55 -4.53c-0.83,-0.71 -1.71,-1.28 -2.59,-1.95 -0.98,-0.73 -1.87,-1.32 -2.89,-1.98 -6.79,-4.42 -16.76,-7.09 -24.92,-7.22 -2.06,-0.03 -2.64,0.35 -4.51,0.35 -2.2,0 -4.89,0.56 -6.79,1.04 -1.38,0.34 -4.66,1.01 -5.9,1.89l-4.93 1.91c-1.43,0.88 -3.17,1.69 -3.52,2.31 -1.09,0.28 -4.31,2.73 -5.41,3.66 -1.77,1.51 -7.08,6.55 -7.55,8.34 -1.35,0.89 -2.87,3.97 -3.79,5.62 -0.74,1.33 -0.89,1.42 -1.54,3 -2.55,6.22 -4.43,12.71 -4.4,19.56 -0.02,12.1 4.37,24.09 12.42,32.4 0.69,0.71 0.62,0.78 1.14,1.45 0.87,1.12 1.56,1.25 2.59,2.28 1.09,1.09 1.39,1.34 2.62,2.25 3.27,2.42 8.23,5.65 12.26,6.76zm235 194.73c0.53,-0.44 0.42,-0.37 0.85,-0.87 3.6,-4.11 7.06,-2.66 10.07,-3.77 8.51,-2.88 6.28,-12.23 6.28,-21.41 0,-4.74 0.59,-25.13 -0.19,-28.04 -0.82,-3.07 -4.04,-6.26 -7.31,-6.65 -8.79,-1.03 -21.26,1.99 -26.7,-2.49 -0.08,-0.06 -0.29,-0.23 -0.36,-0.3l-0.91 -1.05c-1.89,-2.49 -2.36,-5.28 -1.53,-8.41 0.72,-1.6 1.27,-2.82 2.61,-3.99 0.05,-0.05 0.13,-0.1 0.18,-0.15l1.75 -1.16c4.75,-2.46 6.77,0.55 11.61,-4.61 2.59,-2.76 2.02,-5.93 2.02,-10.96 0,-4.5 -0,-9 0,-13.49 0.38,-1.19 0.25,-2.18 0.67,-3.35 1.04,-2.85 3.58,-5.43 6.58,-6.07 3.66,-0.79 7.25,0.64 9.25,3.18 1.08,1.37 1.02,2.06 1.66,2.55 0.32,2.06 0.58,5.57 1.29,7.14 3.48,7.68 9.16,3.83 14.37,7.71l0.54 0.39c0.2,0.13 0.5,0.26 0.64,0.33 0.45,1.1 1.85,2.58 2.22,4.62 0.36,2 0.24,3.9 0.95,5.54 1.19,2.78 3.94,5.57 7.56,5.74 6.32,0.3 10.74,-3.16 10.73,-9.08l-0.01 -33.42c0,-5.41 0.55,-8.06 -2.34,-10.96 -3.25,-3.26 -4.25,-2.99 -10.34,-2.99 -2.8,-0 -5.61,-0 -8.41,-0 -1.41,0 -2.81,-0 -4.22,0 -1.99,0.01 -2.8,-0.3 -4.33,-0.33 -4.85,-0.49 -7.33,-4.83 -7.9,-9.5 -0.2,-1.65 -0.07,-2.6 -0.99,-3.9 -0.33,-0.46 -0.14,-0.22 -0.49,-0.56 -0.13,-1.05 -0.29,-0.89 -1.12,-1.71 -0.65,-0.64 -1.03,-1.1 -1.71,-1.53 -1.42,-0.88 -2.54,-1.32 -4.86,-1.31 -4.26,0.02 -8.51,0.01 -12.77,0.01 -5.62,-0 -9.62,-0.77 -12.64,2.18 -5.87,5.71 -1.06,10.65 -7.51,14.87 -4.39,2.88 -15.15,1.76 -21.02,1.76l-23.17 -0 -8.25 0 -16.81 0 -8.32 0 -12.48 0 -9.27 -0 -12.65 -0c-2.25,0 -5.8,-0.21 -7.89,0.03 -2.29,0.27 -3.79,1.59 -5.15,2.96 -3.22,3.24 -2.34,7.46 -2.34,13.56 0,8.1 -1.89,15.93 4.22,19.79 2.13,1.34 3.26,1.3 6.67,1.3 3.83,-0.27 7.4,-3.93 7.88,-7.51 1.22,-9.04 2.54,-7.2 4.92,-9.98 6.21,-2.14 5.36,-0.5 8.38,-0.51 0.78,0.89 1.87,1.13 3.11,2.63l0.7 0.92c1.35,2.06 1.19,3.16 1.76,5.78 -0.01,5.5 0.82,18.71 -1.38,22.54l-1.88 2.34c-0.05,0.04 -0.13,0.1 -0.18,0.15 -0.05,0.04 -0.13,0.1 -0.18,0.14 -0.2,0.16 -0.36,0.26 -0.56,0.4 -0.12,0.09 -0.47,0.32 -0.58,0.41l-0.61 0.51c-0.05,0.04 -0.14,0.12 -0.2,0.19 -0.91,-0 -1.48,0.32 -2.84,0.51 -0.95,0.13 -2.39,0.21 -3.46,0.43 -1.99,0.42 -3.77,1.73 -4.66,3.11 -2.4,1.6 -2.28,5.04 -2.28,9.08 0,7.22 1.08,17.6 -2.45,21.87l-0.98 0.98c-2.63,2.18 -4.19,1.89 -5.76,2.36 -0.06,0.02 -0.17,0.05 -0.24,0.09l-13.87 -0c-2.82,0 -5.94,-0.18 -8.24,0.32 -2.15,1.32 -5.37,2.85 -6.03,6.88 -0.35,2.16 0.1,34.25 -0.09,39.85 -0.65,1.13 0.06,3.65 -3.08,6.61 -0.07,0.07 -0.28,0.24 -0.35,0.31l-1.31 0.95c-0.06,0.04 -0.15,0.08 -0.22,0.11 -2.1,1.09 -2.17,1.1 -4.72,1.1 -1.84,-0.01 -2.03,-0.1 -3.44,-0.79l-4.13 -3.67c-0.2,-0.37 -0.1,-0.21 -0.32,-0.66 -0.16,-0.32 -0.15,-0.28 -0.32,-0.65 -0.91,-1.97 -0.49,-8.82 -3.81,-9.97 -0.67,-1.32 -1.95,-1.99 -3.51,-2.49 -1.35,-0.43 -3.89,-0.27 -5.77,-0.27l-8.67 0 -17.08 0c-6.01,0.01 -12.18,-0.93 -15.35,2.18 -1.51,1.48 -2.95,3 -3.15,5.61 -0.25,3.28 0.22,5.43 1.56,7.2 1.18,1.57 2.9,3.07 5.12,3.64 3.12,0.81 4.28,0.01 7.17,1.58 5.78,3.13 4.3,9.23 5.61,11.88 3.47,6.82 7.84,5.52 17.44,5.53l8.71 0 12.67 0 8.49 -0 14.09 -0 7.03 0 10.19 0 15.89 0 12.64 -0 8.46 0 17.02 0c2.29,0 4.58,-0.01 6.87,0 1.64,0.01 3.12,0.18 4.66,-0.53 0.51,-0.24 0.31,-0.14 0.62,-0.34 0.4,-0.26 0.31,-0.21 0.52,-0.42 1.77,-0.45 3.43,-2.91 4.14,-4.66 0.87,-2.18 0.57,-5.71 -0.3,-7.57 -2.79,-5.91 -7.72,-5.29 -12.37,-5.29l-12.63 0c-3.5,0 -6.05,-0.55 -8.27,-2.31 -4.37,-3.47 -2.93,-8.2 -4.36,-11.22 -0.79,-1.66 -2.6,-3.88 -4.43,-4.31 -1.64,-1.41 -3.51,-0.51 -8.77,-2.3l-2.11 -1.76c-0.05,-0.05 -0.11,-0.12 -0.15,-0.17l-0.43 -0.54c-0.73,-0.95 -1.66,-2.67 -1.82,-4.02 -0.61,-5.15 1.63,-6.37 2.57,-8.38 0.1,-0.04 0.23,-0.22 0.29,-0.15 0.05,0.08 0.21,-0.11 0.28,-0.15 0.58,-0.34 0.18,-0.11 0.7,-0.43 0.99,-0.62 2.13,-1.27 3.36,-1.49 2,-0.36 3.71,-0.41 6.01,-0.41l8.58 0 7.7 -0.02c0.09,-0.01 0.18,-0.03 0.27,-0.05l0.66 -0.26c2.92,-0.23 5.33,-3.05 6.34,-5.41 0.62,-1.45 0.66,-3.31 0.88,-4.96 0.24,-1.82 0.93,-2.87 1.61,-4.27 0.98,-0.51 0.27,-0.21 0.82,-0.75 1.08,-1.06 -0.76,0.68 0.33,-0.33 0.05,-0.05 0.12,-0.11 0.17,-0.16l0.36 -0.3c0.72,-0.58 1.44,-0.97 2.23,-1.34 3.13,-1.46 6.83,-0.76 9.53,1.48 1.41,1.17 2.71,3.28 3.03,5.08 1.42,7.87 -0.08,30.31 0.39,40.8 0.17,3.7 3.08,6.5 5.97,7.66 3.71,1.49 7.66,0.31 10.35,-2.39 2.7,-2.7 2.38,-4.52 2.8,-7.58 0.19,-1.35 0.52,-1.96 0.51,-2.83 0.07,-0.06 0.16,-0.26 0.19,-0.21 0.03,0.06 0.14,-0.16 0.18,-0.21l3.58 -3.65c0.69,-0.38 0.95,-0.4 1.6,-0.87 3.13,-0.66 5.48,-0.35 8.03,-1.83 7.62,-4.43 5.15,-16.72 -3.37,-17.62 -3.75,-0.4 -6.38,-0.84 -8.56,-3.45 -0.64,-0.76 -0.57,-0.63 -1.06,-1.53 -2.34,-4.4 -0.95,-9.53 2.95,-12.08 2.38,-1.56 3.58,-1.45 6.21,-1.43 1.8,0.12 3.46,1.02 4.81,2.14l0.84 0.8c0.05,0.05 0.11,0.13 0.15,0.18l1.48 2.42c0.63,1.36 0.55,1.58 0.8,3.41 0.3,2.24 0.28,4.22 2.2,6.24 3.72,3.92 4.67,2.89 9.26,3.72 1.68,0.3 3.77,1.54 4.94,2.85l0.29 0.36c0.56,0.7 0.43,0.46 0.91,1.36 1.64,3.08 1.5,5.96 0.12,8.67 -1.51,2.96 -3.88,3.63 -4.23,4.2 -1.53,0.48 -2.89,0.73 -4.6,0.92 -1.52,0.17 -2.11,0.06 -3.4,0.82 -0.06,0.04 -0.14,0.09 -0.2,0.12 -0.71,0.45 -0.18,0.09 -0.54,0.42 -1.3,0.34 -2.85,2.15 -3.49,3.34 -1.18,2.18 -1.07,2.91 -1.07,6.07 0.01,4.67 0,9.34 0,14.01 -0,4.59 -0.57,9.4 5.29,12.17 3.86,1.83 8.29,0.82 11.19,-2.22 0.91,-0.95 0.56,-0.35 1.04,-1.57 1.38,-1.05 1.33,-4.02 1.63,-6.16 0.18,-1.29 0.53,-2.07 0.97,-2.92l1.63 -2.59c1.4,-0.31 0.03,0.13 1.25,-0.69 1.88,-1.26 2.65,-1.39 4.8,-1.69 1.65,-0.23 5.04,-0.36 6.27,-2.17 1.68,-1.11 3.13,-3.05 3.5,-5.26 0.24,-1.47 0.21,-2.6 0.48,-4.07 0.22,-1.24 0.89,-2.03 1.22,-3.22zm-79.27 -117.2l23.38 -0c4.83,0 8.74,-0.26 11.88,1.51l2.3 1.92c1.36,1.63 -0.69,-0.91 0.29,0.36 2.08,2.69 1.64,4.16 2.17,6.19l0 16.98c0,6.02 0.31,12.85 0,18.77 -0.27,5.24 -3.17,10.06 -8.29,10.38 -1.35,0.04 -2.44,0.34 -4.37,0.33 -1.51,-0.01 -3.03,-0 -4.55,-0 -3.16,0 -6.33,0 -9.5,0l-11.33 0c-3.44,0 -7.03,0.13 -10.03,-0.29 -1.98,-0.28 -3.44,-0.89 -4.96,-2.17 -1.6,-1.35 -0.12,-0.59 -1.49,-1.42 -1.05,-2.04 -1.86,-4.02 -1.96,-7.14 -0.09,-2.96 0.01,-6.11 0.01,-9.09 0,-6 0,-12 0,-18 -0.01,-6.08 -0.74,-11.01 2.46,-14.89 0.56,-0.68 0.16,-0.28 0.8,-0.83 0.05,-0.05 0.13,-0.1 0.18,-0.15l0.36 -0.28c0.05,-0.04 0.13,-0.1 0.18,-0.14 0.05,-0.04 0.13,-0.1 0.19,-0.14 0.4,-0.27 0.61,-0.39 1.03,-0.6l1.76 -0.86c0.03,-0.1 0.15,-0.07 0.22,-0.12 2.05,-0 2.47,-0.33 4.5,-0.34 1.59,-0 3.18,0.01 4.77,0.01zm117.13 -169.33c2.52,0 5.04,-0.01 7.56,0.01 5.87,0.04 9.42,-3.88 9.42,-9.75 -0,-1.5 0.12,-2.2 -0.72,-3.25 -0.3,-1.92 -2.33,-3.89 -3.93,-4.76 -2.72,-1.47 -4.34,-1.07 -8.21,-1.07l-16.8 0c-3.93,0.01 -18.56,-0.67 -21.52,0.74 -6.54,3.11 -6.6,11.34 -3.1,14.92 3.61,3.69 4.74,3.12 11.45,3.15l13.13 0 12.73 0zm-93.64 131.69c7.86,-0.01 10.98,1.01 14.81,-3.66 1.43,-1.74 1.97,-4.06 1.71,-7.37 -0.2,-2.53 -1.92,-4.75 -3.57,-5.84 -1.13,-1.52 -3.23,-1.75 -5.71,-2.08 -3.15,-0.41 -3.99,-0.88 -6,-2.15l-0.48 -0.46c-0.46,-0.5 -0.15,-0.15 -0.45,-0.52 -0.04,-0.05 -0.1,-0.13 -0.14,-0.18l-0.83 -1.12c-0.22,-0.35 -0.56,-1.02 -0.77,-1.48 -1.2,-2.72 0.23,-10.16 -7.3,-12.51 -0.85,-0.26 -2.75,-0.4 -3.69,-0.53 -1.11,-0.15 -1.11,-0.08 -1.92,-0.33l-1.91 -0.73c-0.17,-0.17 -0.55,-0.49 -0.84,-0.71 -0.9,-0.71 -0.45,-0.43 -1.54,-0.88 -0.07,-1.01 -0.35,-0.74 -1.08,-2.04 -1.88,-3.35 -0.78,-5.57 -2.04,-8.34 -1.32,-2.89 -4.01,-5.5 -8.19,-5.51 -3.41,-0.01 -20.62,-0.51 -23.07,0.54 -9.14,3.9 -6.97,17.35 2.37,18.28 6.04,0.6 4.19,1.16 6.59,1.62 0.35,0.75 0.64,0.75 1.2,1.3 0.22,0.22 0.9,1.05 1.16,1.44 0.63,0.97 1.33,2.41 1.44,3.78 0.03,1.55 0.46,4.04 0.97,5.16 0.79,1.74 1.33,2.22 2.67,3.49 3.07,2.91 6.13,1.43 9.73,2.99 0.61,0.43 0.6,0.29 1.2,0.67l2.25 1.97c3.94,4.96 0.05,9.03 6.15,13.63 1.98,1.49 3.58,1.56 6.95,1.56l10.32 0zm72.97 -50.65l0 13.22 -0 25.56c-0,2.01 -0.2,4.21 0.35,5.69 0.7,1.89 1.14,2.33 2.48,3.68 2.39,2.4 6.32,3.29 9.56,2.25 7.96,-2.56 5.49,-9.25 7.82,-13.59l0.91 -1.35c0.04,-0.05 0.1,-0.13 0.15,-0.18 2.97,-3.58 6.65,-2.98 9.42,-3.56 9.44,-1.98 10.66,-19.01 -4.08,-19.02 -1.7,-0.36 -3.44,-1.24 -4.72,-2.43l-0.48 -0.5c-2.88,-3.29 -2.59,-6.49 -2.61,-13.67l-0 -8.87c-0.01,-5.84 -0.19,-7.07 -3.48,-9.97 -3.62,-3.19 -11.29,-2.69 -14.27,2.78 -1.16,2.13 -1.08,2.96 -1.07,6.07 0.01,4.63 0.01,9.27 0,13.9zm-17.84 -118.68c7.3,0.01 12.31,1.44 16.27,-3.84 1.29,-1.71 2.15,-4.77 1.44,-8.04 -0.47,-2.2 -2.53,-5.03 -4.42,-5.71 -3.36,-2.33 -6.25,-0.33 -10.3,-3.25 -4.11,-2.97 -3.45,-6.75 -4.1,-9.85 -0.69,-3.27 -3.96,-6.36 -7.08,-6.87 -5.1,-0.84 -8.11,1.18 -10.06,3.76 -2.21,2.93 -1.56,7.56 -1.56,12.07 0,9.16 -2.27,18.68 6.42,21.47 2.45,0.79 9.98,0.25 13.37,0.26zm17.84 252.05c0,4.05 -0.4,5.61 2.83,8.85 5.43,5.44 15.98,1.61 15.98,-5.6l0 -2.59c0,-3.8 -4.3,-8.11 -8.11,-8.11 -3.47,0 -5.12,-0.24 -8.04,2.67 -0.82,0.82 -1.02,0.88 -1.6,1.97 -0.3,0.55 -1.07,2.23 -1.07,2.82zm18.82 -187.49l0 2.6c0,3.82 4.33,8.11 8.11,8.11 4.26,-0 7.92,-0.5 10.16,-5.73 0.62,-1.44 0.85,-4.07 0.42,-6.1 -0.41,-1.93 -1.39,-3.17 -2.54,-4.32 -6.31,-6.3 -16.15,-1 -16.15,5.44zm-37.63 282.21l0 2.6c0,3.89 4.23,8.11 8.11,8.11l2.6 0c3.87,0 8.11,-4.22 8.11,-8.11 0,-2.93 0.26,-3.45 -0.95,-5.86 -2.8,-5.56 -10.9,-6.5 -14.87,-2.5 -0.87,0.88 -1.33,1.16 -1.93,2.29 -0.56,1.06 -1.06,2.04 -1.06,3.48zm37.63 -75.9c0,3.23 -0.37,4.06 1.07,6.72 4.46,8.23 17.75,4.72 17.75,-3.47l0 -2.6c-0,-3.8 -4.3,-8.11 -8.11,-8.11 -3.41,0 -5.06,-0.31 -7.87,2.51 -1.08,1.08 -2.83,3.28 -2.83,4.95zm-75.26 -262.75l0 2.6c0,3.88 4.23,8.11 8.11,8.11l2.6 -0c3.88,-0 8.11,-4.24 8.11,-8.11 -0,-4.21 0.22,-5.15 -2.99,-8.36 -5.5,-5.51 -15.82,-1.05 -15.82,5.77zm56.45 -37.63c0,4.25 0.48,7.92 5.73,10.16 1.45,0.62 4.13,0.85 6.15,0.42 5.25,-1.13 8.56,-7.54 6.49,-12.73 -3.93,-9.87 -18.37,-6.49 -18.37,2.15zm-49.63 161.54c-5.59,1.7 -8.05,6.55 -6.63,11.82 3.1,11.52 21.9,7.49 18.44,-5.46 -0.6,-2.23 -2.39,-4.34 -4.04,-5.38 -2.03,-1.28 -3.21,-1.34 -5.52,-1.33l-2.25 0.35zm-36.64 -169.65c-4.55,-0.01 -9.1,-0 -13.66,-0 -6.33,0 -7.47,-0.27 -10.8,3.15 -3.48,3.59 -3.16,11.1 2.05,14.36 1.81,1.14 2.86,1.31 5.81,1.3 5.88,-0.01 18.49,-0.85 22.64,1.4 0.69,0.37 1.72,1.13 2.22,1.67 0.08,0.09 0.77,1 0.85,1.1l0.92 1.31 1.16 6.66c1.84,7.1 11.23,8.66 15.48,4.49 4.21,-4.13 3.15,-5.99 3.15,-12.74 0,-3.09 0.48,-13.92 -0.17,-15.91 -0.73,-2.42 -1.94,-3.93 -3.67,-5.23 -2.15,-1.62 -3.86,-1.56 -7.52,-1.56 -6.15,0 -12.31,0.01 -18.46,-0zm-63.94 160.91c-0.51,-4.84 -2.5,-9.73 -7.82,-10.36 -3.25,-0.39 -5.73,0.22 -7.48,1.54 -1.64,1.23 -3.39,3.37 -3.77,5.64 -0.62,3.79 -0.07,13.95 -0.07,18.42 0,3.79 -0.21,5.38 1.3,7.77 0.92,1.46 3.27,3.69 5.41,3.89 1.31,0.72 9.95,-0.13 11.64,7.61 0.68,3.12 0,9.7 7.93,11.54 3.97,-0.01 5.91,-0.04 8.02,-2.02 1.79,-1.68 3.32,-3.36 3.33,-6.72 0.03,-6.87 -0.02,-13.76 -0.01,-20.63 0,-2.67 -1.42,-4.34 -2.83,-5.75 -4.28,-4.27 -7.8,-1.05 -12.56,-4.96 -1.37,-1.12 -3.03,-3.64 -3.1,-5.97zm-19.15 -39.91l0 2.6c0,3.85 4.21,8.11 8.11,8.11l21.41 -0c3.77,-0 8.11,-4.33 8.11,-8.11 0,-4.27 -0.48,-7.89 -5.73,-10.17 -2.84,-1.23 -9.33,-0.54 -13.09,-0.54 -3.46,0 -10.25,-0.6 -12.86,0.44 -2.77,1.11 -5.96,4.03 -5.96,7.67zm206.98 247.18c0,-4.34 -0.58,-8.11 -5.96,-10.26 -2.69,-1.08 -9.93,-0.44 -13.51,-0.44 -6.04,0 -18.18,-2.07 -18.18,9.41 -0,2.54 0.36,3.83 1.44,5.39 3.65,5.32 9.13,4.01 16.74,4.01 3.33,-0 10.85,0.53 13.28,-0.35 2.77,-1.01 6.19,-4.02 6.19,-7.76zm-490.36 -405.8c-12.44,0.01 -21.82,-0.88 -29.13,-9.63 -8.14,-9.76 -7.36,-16.53 -7.36,-30.91 0,-8.45 -0,-16.9 -0,-25.34 0.05,-0.07 0.09,-0.26 0.1,-0.21 0.01,0.04 0.08,-0.17 0.09,-0.22 0.69,-2.96 -0.46,-7.55 4.88,-15.21 1.68,-2.41 2.89,-3.67 4.91,-5.47 2.61,-2.33 3.6,-2.58 6.18,-4.14 6.43,-3.04 12.21,-2.92 21.48,-2.92 8.16,0 16.31,-0.01 24.47,0 3.36,0 6.17,0.46 9.15,0.65 5.03,1.64 7.9,2.09 12.52,6.09 5.09,4.41 9.73,11.45 9.98,18.56 0.04,1.1 -0.19,2.12 0.33,2.87l-0 25.67c-0.02,11.66 0.41,19.46 -4.41,26.73 -3.2,4.83 -7.27,8.65 -12.69,10.99 -2.1,0.91 -3.61,1.16 -5.76,1.85 -2.72,0.18 -5.58,0.67 -8.6,0.65 -2.92,-0.01 -5.84,-0 -8.76,-0 -5.79,-0 -11.57,0 -17.36,-0zm8.33 -112.88l-28.28 -0c-4.08,-0.03 -11.53,1.81 -14.08,3.57 -2.19,0.62 -5.26,2.98 -7.15,4.4 -6.09,4.53 -13.09,15.08 -13.48,22.04 -1.33,4.22 -0.65,52.43 -0.65,64.39 -0,3.74 0.12,5.5 0.84,8.57 2.33,9.96 7.61,16.47 15.15,22.15 9.51,7.17 18.91,6.58 30.89,6.58l34.4 0c6.43,0 13.66,0.47 19.53,-0.41 2.72,-0.41 5.3,-1.29 7.79,-2.27 1.37,-0.54 5.81,-2.57 6.25,-3.48 3.59,-1.45 9.48,-8.22 11.46,-11.56 1.06,-1.79 1.81,-3.09 2.63,-5.16 3.85,-9.72 2.76,-17.31 2.77,-27.76l0 -42.45c-0.01,-10.9 -2.7,-18.78 -9.65,-26.35 -1.14,-1.25 -0.61,-1.02 -2.07,-2.15 -2.62,-2.03 -3.54,-3.48 -7.85,-5.78 -3.32,-1.77 -9.52,-4.09 -14.17,-4.32l-16.9 -0 -17.44 0zm-17.25 40.45c-2.49,1.04 -5.39,4.66 -6.59,6.81 -2,3.57 -2.17,5.73 -2.17,11.13 0,6.45 -0.91,19.96 1.61,24.99 1.02,2.03 2.19,3.75 3.76,5.32 0.05,0.05 0.12,0.11 0.16,0.16 0.05,0.05 0.12,0.11 0.17,0.16 0.75,0.7 1.08,1.04 1.94,1.63 2.53,1.75 5.75,3.45 9.86,3.44l23.01 -0.05c0.89,-0.1 1.78,-0.5 2.63,-0.61 2.33,-0.71 3.37,-1.27 5.26,-2.53l2.5 -2.04c0.05,-0.05 0.12,-0.11 0.16,-0.16 2.84,-2.84 5.4,-7.2 5.39,-12.13 -0.01,-4.98 -0.01,-9.96 -0.01,-14.93 0,-8.63 0.33,-13.5 -6.4,-19.56 -4.29,-3.86 -7.87,-4.45 -14.37,-4.45 -4.35,0 -18.25,-0.4 -21.87,0.51 -1.81,0.46 -4.03,1.23 -5.05,2.31zm393.2 62.49c-0.66,-1.21 -1.23,-1.82 -2.01,-2.96 -5.7,-8.39 -4.8,-17.33 -4.8,-27.64 0,-10.86 -1.17,-27.29 1.94,-35.04 3.51,-8.73 10.46,-15.26 19.79,-17.52 7.59,-1.84 26.15,-0.97 35.94,-0.97 11.62,-0 17.89,0.27 25.56,6.3 0.78,0.61 1.03,0.94 1.76,1.49 1.09,0.83 3.55,4.03 4.42,5.32 1.27,1.88 1.55,3.27 2.56,4.09 -0.15,1.12 1.44,4.54 1.74,7.5 0.32,3.15 0.37,6.02 0.37,9.37 0,6.52 0.01,13.05 -0,19.58 -0.03,13.42 0.4,20.47 -5.47,28.48 -5.16,7.03 -12.76,11.63 -22.11,11.63 -2.82,0.87 -21.01,0.32 -25.72,0.33 -15.82,0.01 -20.81,0.89 -31.33,-7.51 -2.56,-2.05 -1.25,-1.84 -2.65,-2.43zm76.57 28.12c6.97,-2.15 10.4,-3.25 15.95,-7.74 7.49,-6.07 12.59,-15.44 13.57,-25.24l0 -42.46c-0.01,-6.32 -0.02,-12.64 -0,-18.96 0.01,-3.28 -0.31,-5.9 -0.97,-8.44 -0.48,-1.85 -1.62,-5.58 -2.6,-6.89 -1.53,-5.86 -10.34,-13.68 -15.38,-16.65 -9.14,-5.39 -16.85,-4.68 -27.45,-4.67 -3.96,0 -49.88,-0.26 -52.48,0.08 -3.74,0.48 -7.12,1.56 -10.19,2.79 -3.57,1.43 -9.11,5.2 -11.85,7.94l-2.27 2.59c-0.32,0.39 -0.24,0.32 -0.41,0.55 -9.17,12.25 -8.13,18.67 -8.13,32.44l0 39.25c0,3.69 -0.36,9.83 0.08,13.22 0.67,5.19 4.43,16.3 8.07,18.56 0.31,1.47 4.48,5.18 5.8,6.17 4.88,3.69 9.93,6.46 16.41,7.6 3.84,0.67 7.72,0.5 12.09,0.51l34.32 0c3.32,0 19.69,0.22 22.61,-0.22 0.92,-0.14 2.21,-0.41 2.82,-0.41zm-42.99 -36.99c8.83,-0 18.83,1.41 25.25,-2.16l4.4 -3.38c4.43,-4.62 5.22,-8.34 5.22,-14.57 -0,-6.11 0,-12.22 0,-18.33 -0,-4.98 -1.84,-8.72 -4.76,-11.95 -6.21,-6.86 -11.75,-6.06 -21.59,-6.06 -3.44,-0 -6.87,0 -10.31,0 -4.23,-0 -6.27,0.21 -9.09,1.61l-4.64 3.15c-0.23,0.21 -0.48,0.42 -0.68,0.62 -5.45,5.45 -5.38,9.99 -5.38,17 0,4.83 -0.53,16.27 0.64,20.77 0.54,2.07 2.43,5.89 3.95,6.81 0.15,0.28 0.13,0.34 0.47,0.77 0.87,1.11 3.39,3.06 6.06,4.32 3.14,1.48 5.95,1.4 10.45,1.4zm-383.26 208.5c1.84,3.71 4.17,-0.81 4.17,16.95 -0,4.54 0.6,10.54 -1.39,14.18 -0.45,0.82 -0.46,0.82 -1.06,1.53 -1.48,1.77 -0.66,0.15 -1.44,1.65 -2.81,0.66 -1.7,1.79 -9.73,1.78 -4,-0 -8,0 -12.01,0 -4.91,-0 -6.59,-0.07 -9.17,2.51 -4.98,4.96 -3.5,12.75 2.46,15.57 6.71,3.16 25.1,-3.33 30.58,5.1 2.66,4.1 1.76,16.44 1.76,21.92 -0,5.08 0.17,6.19 2.83,8.85 2.7,2.7 4.42,2.51 9.5,2.51l35.38 0.01c3.63,-0.02 7.19,-2.87 7.31,-4.56l1.24 -2.14c0.21,-0.86 0.24,-1.95 0.37,-2.87 0.51,-3.69 1.72,-6.28 5,-7.97 1.8,-0.93 3.05,-1.03 5.53,-1.28 3.74,-0.38 6.28,-2.77 7.56,-5.74 1.28,-2.98 0.93,-7.36 -1.97,-10.25 -3.14,-3.14 -4.31,-2.83 -10.15,-2.83 -4.43,0 -8.87,0 -13.3,0 -5.75,-0 -6.98,0.25 -9.82,3.48 -2.26,2.58 -1.39,5.11 -3.15,10.47 -0.6,0.46 -0.93,1.44 -2.13,2.42 -4.18,3.43 -9.46,2.57 -12.49,-0.46 -1.09,-1.09 -2.36,-3.34 -2.55,-4.91 -0.45,-3.78 0.42,-4.85 1.82,-7.26l0.43 -0.81c2.1,-0.96 1.97,-2.11 6.09,-2.66 3.23,-0.43 4.92,-0.46 6.96,-2.44 6.65,-6.44 2.34,-15.89 -4.95,-16.64 -5.05,-0.52 -10.11,-2.58 -10.4,-8.42 -0.08,-1.69 -0.05,-2.86 0.46,-4.1l1.4 -2.56c0.05,-0.09 0.1,-0.18 0.14,-0.26l0.29 -0.56c1.2,-0.55 1.59,-1.16 3.01,-1.85 5.31,-2.54 11.8,0.97 12.79,6.47 0.56,3.12 -0.04,7.71 5.47,10.42 2.54,1.25 6.15,1.25 8.68,0 2.16,-1.06 4.02,-3.09 4.8,-5.58 0.74,-2.34 0.26,-16.59 0.26,-20.5 0.23,-3.82 1.29,-6.83 4.17,-8.81l2.87 -1.57c3.36,0 4.33,-0.21 6.6,0.96 1.67,0.87 2.86,1.97 3.78,3.68 1.85,3.4 1.41,8.51 1.4,13.63l0 8.74c0,5.7 0,11.4 0,17.11 0,3.68 -0.33,4.78 1.07,7.37 0.98,1.81 2.69,3.24 4.66,4.1 1.87,0.8 5.49,0.8 7.36,-0 1.98,-0.86 3.68,-2.28 4.66,-4.1 1.4,-2.59 1.07,-3.68 1.07,-7.37 -0,-2.82 -0,-5.63 0,-8.45 0,-1.51 0,-3.02 -0,-4.53 -0.01,-2 0.23,-2.86 0.32,-4.38 0.06,-2.07 1.5,-4.3 2.88,-5.7 0.04,-0.04 0.13,-0.12 0.16,-0.15 0.03,-0.03 0.11,-0.1 0.16,-0.15 6.45,-4.03 10.81,-0.29 14.33,-7.13 1.66,-3.22 0.96,-15.92 0.96,-20.45 -0,-5.4 -0,-10.81 -0,-16.22 0,-7.32 0.77,-9.08 -3.32,-12.9 -4.81,-4.51 -14.01,-1.61 -15.37,4.92 -0.22,1.04 -0.29,2.51 -0.42,3.47 -0.22,1.6 -0.58,2.26 -1,3.54 -0.9,0.68 -2.4,4.63 -8.44,4.56 -4.05,-0.05 -6.66,-2.51 -8,-5.31 -1.62,-3.41 0.17,-9.88 -7.03,-12.75 -1.06,-0.42 -4.07,-0.74 -5.34,-0.34 -1.02,0.32 0.01,-0.3 -0.72,0.39 -2.37,-0.3 -5.07,2.78 -5.96,4.58 -1.28,2.62 -0.75,4.42 -1.38,6.74 -0.31,1.13 -0.54,1.04 -0.74,2.14 -0.05,0.06 -0.14,0.07 -0.16,0.18 -0.13,0.6 -2.62,2.95 -4.64,3.83 -2.18,0.94 -11.86,0.04 -12.76,8.97 -0.11,1.05 -0.17,3.04 -0.64,3.74 -0.2,1.06 -0.5,1.65 -0.98,2.42 -1.22,1.94 -3.58,3.77 -5.9,4.15 -3.43,0.56 -7.13,-0.73 -8.98,-3.17 -3.69,-4.88 -2.22,-11.33 2.88,-13.96 1.51,-0.78 3.58,-1.23 5.2,-1.29 4.13,-0.06 7.98,-3.85 8.41,-7.49 1.39,-11.88 -9.69,-11.3 -11.78,-11.84 -2.01,-0.52 -3.77,-1.85 -4.84,-3.27 -4.45,-5.92 -0.21,-10.52 0.44,-12.1 2.8,-1.27 1.4,-2.04 6.94,-2.78 3.51,-0.47 4.27,-0.45 6.93,-3.13 3.41,-3.44 3.63,-10.41 -1.49,-14.26 -2.79,-2.1 -4.47,-1.17 -7.98,-2.08 -2.51,-0.66 -4.49,-2.42 -5.61,-4.45 -1.63,-2.98 -0.79,-5.43 -1.94,-8.12 -0.88,-2.06 -2.98,-4.74 -5.3,-5 -0.41,-0.35 0.01,-0.15 -0.62,-0.42 -1.25,-0.55 -4.13,-0.44 -5.6,-0.9 -0.95,-0.3 -0.91,-0.47 -1.89,-0.74 -0.74,-0.57 -1.69,-1.23 -2.28,-1.91 -0.7,-0.81 -1.22,-1.66 -1.72,-2.82 -1.24,-2.88 0.17,-8.77 -5.72,-11.8 -2.6,-1.33 -4.25,-0.96 -8.02,-0.96l-25.61 -0c-6.16,-0 -16.01,0.97 -17.56,-7.54 -0.57,-3.15 -0.13,-4.33 -1.59,-6.84 -3.4,-5.82 -12.46,-6.36 -16.33,-0.21 -1.42,2.25 -1.31,3.56 -1.3,7.13 0,5.51 0.04,11.04 -0,16.55 -0.04,5.34 3.3,9.01 7.21,9.66 5.64,0.93 19.8,-0.89 24.13,0.84 3.52,1.4 3.48,2.83 4.67,3.45 0.69,2.15 1.32,2.16 1.32,5.19 0,2.6 -0.71,3.35 -1.32,5.19 -1.03,0.54 -0.65,0.7 -1.45,1.47 -4.13,3.93 -8.67,1.46 -12.26,4.61 -1.23,1.08 -2.48,2.17 -2.79,3.98 -1.99,2.59 0.71,20.4 -1.55,25.74 -3.29,7.75 -12.2,6.05 -21.2,6.05 -5.99,0 -11.93,-1.14 -14.93,5.51 -0.89,1.97 -0.64,3.42 -0.64,6.17 0,9.2 -0,18.4 -0,27.6 0,8.64 0.05,17.29 -0,25.93 -0.02,3.79 0.86,6.64 4.23,8.75 1.78,1.12 2.43,1.09 5.05,1.44 3.36,0.45 5.75,1.26 7.65,4.02 3.27,4.75 0.01,10.52 7.18,13.91 4.87,2.3 10.84,0.07 12.99,-4.99 0.5,-1.18 1,-4.43 0.7,-5.94 0.06,-0.06 0.14,-0.26 0.17,-0.21l0.44 -0.64c0.67,-1.16 0.54,-1.56 1.82,-3.05 4.23,-4.89 8.77,-1.13 13.55,-5.91 6.02,-6.02 -1.22,-10.99 10.21,-15.82 3.76,0 6.5,-0.89 8.44,-2.83 5.44,-5.42 0.48,-11.13 8.01,-15.02 4.71,-2.43 8.07,0.11 9.46,0.25zm-89.91 63.01l0 2.6c0,3.8 4.31,8.11 8.11,8.11l2.59 0c3.82,0 8.12,-4.3 8.12,-8.11 0,-3.98 0.19,-5.21 -2.99,-8.36 -5.6,-5.54 -15.82,-0.94 -15.82,5.77zm0 -206.95l0 2.6c0,3.8 4.3,8.11 8.11,8.11l2.6 0c3.81,0 8.11,-4.31 8.11,-8.11 0,-3.98 0.19,-5.21 -2.99,-8.36 -5.59,-5.54 -15.83,-0.95 -15.83,5.77zm112.9 37.3l-0 3.24c0,3.52 4.5,7.79 8.11,7.79l2.6 0c3.81,-0 8.11,-4.3 8.11,-8.11l0 -2.59c0,-3.8 -4.3,-8.11 -8.11,-8.11l-2.92 -0c-3.33,0 -7.79,4.45 -7.79,7.79zm-57.26 -45.41c-4.05,0 -9.74,-0.67 -12.72,0.74 -2.9,1.38 -5.28,4.13 -5.3,8.33 -0.02,4.07 1.42,7 4.87,8.78 2.98,1.54 9.11,0.96 12.83,0.96 3.5,0 11.44,0.57 13.99,-0.44 7.91,-3.13 8.09,-14.27 0.45,-17.73 -2.96,-1.34 -9.98,-0.64 -14.12,-0.64zm135.95 246.85c2.02,-1.04 5.17,-3.04 8.69,-1.62 1.73,0.49 3.41,1.71 4.39,2.96 0.96,1.23 2.01,2.98 1.98,5.15 0.01,2.73 -0.12,3.48 -1.18,5.3 -3.27,5.59 -11,5.8 -14.7,1.51 -5.81,-6.73 0.69,-13.14 0.69,-13.15 0.02,-0.09 0.09,-0.1 0.13,-0.15zm0.06 -37.95c-6.55,5.33 -0.59,12.13 -9.54,16 -3.41,1.47 -13.07,-0.81 -13.08,12.7 -0.84,0.82 -1,3.78 -5.08,5.79 -3.05,1.51 -6.52,0.52 -8.87,2.46 -1.75,0.53 -3.69,3.29 -4.28,5.15 -0.6,1.89 -0.26,33.13 -0.27,38.66 -0,3.81 0.01,5.76 1.86,7.87 1.45,1.65 3.39,3.36 6.24,3.49 3.67,0.18 5.8,-0.42 7.61,-2.28 5.8,-5.38 0.66,-11.62 8.72,-15.47 3.45,-1.65 7.02,-0.7 9.4,1.09 5.24,3.94 3.8,13.18 3.8,20.54 0,5.55 0.11,10.76 -4.97,13.52 -4.16,2.25 -11.97,1.39 -16.84,1.4 -7.61,0.01 -10.11,-0.91 -13.96,3.48 -2.69,3.06 -1.86,9.9 -1.86,15.33 0,5.38 -0.81,12.29 1.86,15.33 3.86,4.39 6.35,3.48 13.96,3.48 2.94,0 5.89,0.01 8.83,-0 1.86,-0.01 2.86,0.07 4.28,0.26 2.24,0.31 2.39,0.76 3.99,1.03l0.72 0.74c2.87,2.44 3.46,3.91 3.93,8.08 0.43,3.85 2.03,6.45 5.57,8.06 2.94,1.34 8.94,0.64 12.99,0.64 3.52,0 10.54,0.61 13.18,-0.45 2.88,-1.15 5.81,-3.95 5.97,-7.65 0.24,-5.54 -0.02,-14.27 0,-20.46 0.01,-2.34 -0.56,-3.89 -1.57,-5.24 -4.68,-6.19 -9.3,-2.01 -14.18,-6.58 -4.11,-3.85 -3.07,-11.05 -3.07,-17.36 0,-4.95 -0.31,-23.76 0.18,-27.07 0.37,-2.5 0.59,-3.46 1.72,-5.09 2.01,-2.93 5.91,-4.57 9.69,-3.72 1.44,0.32 3.49,1.62 4.32,2.46 0.33,0.33 1.08,1.32 1.39,1.86 2.06,3.59 0.87,5.54 2.06,8.32 1.25,2.92 4.04,5.73 8.07,5.73l19.62 0c3.39,0 4.82,-0.75 6.57,-2.51 1.63,-1.64 2.82,-3.08 2.85,-6.24 0.03,-3.27 -0.44,-5.07 -2.03,-6.76 -1.57,-1.66 -3.15,-3.16 -6.09,-3.31 -0.74,0 -3.43,-0.43 -3.94,-0.6 -1.1,-0.34 -2.35,-1.07 -3.16,-1.71 -2.05,-1.61 -2.99,-3.72 -3.34,-6.4 -0.46,-3.44 -0.45,-4.96 -2.61,-7.12 -1.59,-1.6 -3.65,-3.5 -7.06,-2.83 -1.07,-1 -2.36,0.12 -5.63,-2.33 -4.67,-3.51 -4.84,-10.59 0.01,-14.46l1.07 -0.95c1.11,-0.14 1.26,-0.73 5.24,-1.17 5.81,-0.65 9.22,-4.3 8.69,-11.09 -0.26,-3.4 -3.03,-6.09 -5.73,-7.25 -2.84,-1.22 -9.22,-0.54 -12.97,-0.54 -7.65,0.01 -17.33,1.36 -18.67,-8.7 -0.45,-3.36 -0.78,-6.67 -4.69,-8.94 -3.17,-1.84 -8.68,-1.69 -10.91,0.77zm-191.64 -144.35l-0 21.41c0,3.8 4.31,8.11 8.11,8.11l2.6 0c3.8,-0 8.11,-4.31 8.11,-8.11l-0 -21.41c0,-6.69 -10.2,-11.32 -15.82,-5.77 -1.38,1.36 -2.99,3.16 -2.99,5.77zm56.45 53.33c0,-9.77 -1.81,-19.06 5.4,-22.63 2.53,-1.25 5.48,-1.25 8.01,0 5.55,2.74 5.4,7.86 5.4,13.41 -0,6.96 0.64,12.31 -1.3,18.16 -0.41,0.31 -0.68,0.81 -1.01,1.24 -4.71,6.07 -12.57,0.69 -16.06,9.58 -0.67,1.71 -0.27,3.6 -1.74,7.99 -0.55,0.42 -1.11,1.45 -1.61,1.96 -2.71,2.74 -5.64,2.48 -8.69,2.99 -3.79,0.63 -6.8,4.04 -7.25,8.32 -0.35,3.3 -0.94,6.04 -3.58,8.11 -0.78,0.61 -1.44,1 -2.45,1.44 -1.84,0.8 -4.85,0.8 -6.7,-0 -1.92,-0.84 -3.21,-1.81 -4.3,-3.49 -2.97,-4.55 -1.47,-10.64 3.42,-13.17 3.62,-1.87 5.66,-0.41 9.2,-2.47 5.03,-2.93 4.22,-7.88 4.95,-10.62 0.88,-3.31 4.2,-6.68 8.24,-6.68 2.08,-0.63 2.82,-0.1 4.99,-1.17 1.44,-0.71 2.23,-1.52 3.21,-2.63 2.34,-2.66 1.86,-5.65 1.86,-10.33zm-37.63 116c-0,4.31 0.42,7.88 5.73,10.16 2.86,1.23 9.31,0.54 13.08,0.54 3.46,0 10.22,0.6 12.85,-0.44 2.7,-1.07 5.96,-4.11 5.96,-7.67l0 -21.41c-0,-2.67 -1.72,-4.54 -3.15,-5.93 -3,-2.9 -9.08,-3.43 -13.16,0.65 -4.53,4.54 -0.58,11.16 -7.91,14.8 -1.51,0.75 -1.65,0.69 -3.58,0.96 -3.07,0.42 -4.68,0.46 -6.68,2.4 -1.48,1.43 -3.15,3.21 -3.15,5.93zm289.68 -7.78c6.31,0.01 11.38,-3 11.4,-9.4 0.02,-4.14 -0.9,-5.3 -3.01,-7.4 -2.29,-2.28 -3.98,-2.35 -8.38,-2.34l-17 0c-4.65,0.01 -7.47,2.55 -8.82,5.96 -0.96,2.43 -0.42,16.83 -0.44,21.62 -0.03,4.49 1.4,7.56 5.51,9.41 1.54,0.69 3,0.76 4.9,0.66 0.35,-0.02 0.52,-0.02 0.86,-0.09 0.8,-0.17 0.27,0.02 0.64,-0.26 2.22,-0.16 3.86,-1.81 5.04,-3.16 2.91,-3.32 0.93,-6.1 3.39,-10.55 0.46,-0.84 0.32,-0.58 0.95,-1.31l3.4 -2.46c0.52,-0.24 1.06,-0.43 1.55,-0.67zm-133.49 169c4.34,0 7,0.35 9.5,-1.71 5.02,-4.13 5.03,-11.28 -0,-15.4 -2.52,-2.06 -5.19,-1.71 -9.54,-1.71 -4.73,0 -12.6,-0.48 -16.95,0.03 -3.73,0.44 -7.51,4.1 -7.51,9.38 -0,5.28 3.78,8.94 7.51,9.38 4.34,0.51 12.26,0.03 16.98,0.03zm153.38 -131.7c-3.88,-0.01 -6.65,2.81 -7.87,5.51 -1.3,2.87 -0.64,8.69 -0.64,12.66 0,9.37 -2.23,16.32 7.41,19.47 3.18,-0.04 4.01,0.3 6.34,-0.86 1.56,-0.78 3.03,-2.1 3.88,-3.58 1.87,-3.22 1.18,-9.7 1.18,-13.74 0,-4.42 0.81,-10.9 -0.74,-14.18 -2.06,-4.34 -5.21,-5.29 -9.56,-5.29zm-93.97 -56.44c2.97,-0 3.33,0.07 5.34,-0.96 4.9,-2.5 6.28,-8.9 3.67,-13.43 -1.87,-3.23 -4.71,-4.46 -8.55,-4.43 -4.41,0.03 -8.83,0 -13.24,0 -5.94,-0 -8.33,-1 -12.17,2.83 -1.26,1.26 -2.33,2.78 -2.5,4.96 -0.36,4.71 1.02,8.18 5.07,10.18 2.38,1.17 3.66,0.85 6.94,0.85 5.15,-0 10.29,0 15.43,-0zm93.57 0c4.15,-0 5.29,0.19 8.53,-3.16 4.51,-4.66 2.45,-15.68 -7.23,-15.68 -3.36,0 -4.86,0.8 -6.58,2.52 -1.62,1.62 -2.81,3.11 -2.85,6.24 -0.04,3.42 0.48,5.17 2.2,6.92 1.44,1.47 3.2,3.15 5.93,3.15zm-83.38 120.99l0 2.6c0,3.81 4.31,8.11 8.11,8.11l2.6 0c3.77,-0 8.11,-4.29 8.11,-8.11 0,-4.02 0.2,-5.18 -2.99,-8.36 -3.25,-3.25 -9.58,-3.25 -12.83,-0 -1.41,1.4 -2.99,3.11 -2.99,5.77zm56.44 -75.26c0,4.1 -0.21,5.17 2.99,8.37 3.25,3.24 9.59,3.24 12.84,-0 3.19,-3.19 2.99,-4.27 2.99,-8.36 0,-6.74 -10.25,-11.32 -15.83,-5.77 -1.41,1.4 -2.99,3.11 -2.99,5.77zm112.9 22.06c0,0.6 0.77,2.27 1.07,2.82 2.34,4.3 5.91,4.64 9.64,4.64 3.81,0 8.11,-4.31 8.11,-8.11l0 -2.6c-0,-5.94 -7.99,-10.42 -14.18,-7.04 -4.72,2.57 -4.64,6.58 -4.64,10.29zm-169.35 -59.69c0,4.08 -0.2,5.18 2.99,8.36 5.58,5.55 15.82,0.97 15.82,-5.77 0,-4.1 0.21,-5.17 -2.99,-8.36 -5.55,-5.55 -15.82,-0.98 -15.82,5.76zm19.82 48.33c7.22,0.01 13.05,1.26 16.51,-4.23 2.64,-4.2 1.75,-11.41 -4.43,-14.05 -2.7,-1.15 -9.72,-0.55 -13.37,-0.54 -7.57,0.02 -13.74,-1.37 -17.23,4.22 -2.65,4.24 -1.81,11.55 4.66,14.16 2.73,1.1 10.22,0.44 13.86,0.44zm27.09 -0c-4.55,0.01 -7.23,2.4 -8.64,5.51 -1.37,3.04 -0.64,9.18 -0.64,13.31 0,5.81 -2.35,18.8 9.15,18.82 4.24,0.01 7.17,-1.55 8.93,-5.29 1.48,-3.15 0.74,-9.26 0.74,-13.53 0,-7.04 1.63,-13.5 -4.03,-17.39 -1.58,-1.09 -2.93,-1.44 -5.51,-1.43zm-197.44 59.36c-0,-7.93 -0.75,-12.6 -6.91,-17.75 -4.07,-3.4 -7.55,-3.99 -13.53,-3.99 -4.76,0 -9.52,0 -14.28,0 -5.84,0 -7.94,-0.08 -11.9,2.05 -1.64,0.88 -2.8,1.79 -4.12,3.01l-1.72 1.85c-0.53,0.64 -1.02,1.4 -1.46,2.1 -2.21,3.52 -2.53,5.84 -2.53,11.42 0,4.76 0,9.52 0,14.27 0,7.29 0.23,10.81 5.06,16.02 4.15,4.48 8.41,5.71 15.38,5.71 4.76,-0 9.52,0 14.27,0 5.82,0 7.96,0.07 11.9,-2.05 2.29,-1.23 4.2,-2.89 5.85,-4.86 0.53,-0.64 1.02,-1.4 1.46,-2.11 2.21,-3.53 2.53,-5.83 2.53,-11.42 0,-4.76 0,-9.51 0,-14.27zm-29.93 -59.36l-28.47 -0c-9.28,-0.05 -17,4.11 -23.61,9.81 -2.56,2.21 -4.89,4.9 -6.67,7.92 -2.47,4.16 -4.12,8.16 -5.09,13.73 -0.83,4.77 -0.32,50 -0.32,57.1 0,7.21 -0.66,10.21 1.66,17.15 1.73,5.18 3.55,8.51 6.72,12.42l7.42 6.86c1.09,0.83 1.77,1.21 2.94,1.92 10.53,6.37 20.97,4.8 33.16,4.8l38.28 0c5.86,0 9.77,0.24 15.06,-1.48 0.57,-0.19 0.47,-0.1 0.96,-0.35 0.72,-0.37 0.4,-0.13 0.85,-0.6 2.49,0.32 8.74,-4.13 10.9,-5.81l3.66 -3.48c0.58,-0.75 1.11,-1.11 1.71,-1.86 9.45,-11.66 8.38,-20.2 8.38,-33.14 0,-9.87 0.49,-49.3 -0.56,-54.91 -0.95,-5.11 -3.33,-10.52 -6.3,-14.46 -1.27,-1.68 -3.27,-4.31 -4.86,-5.52 -1.85,-1.42 -2.3,-2.49 -6.01,-4.69 -3.18,-1.89 -5.63,-2.94 -9.48,-4.15 -4.13,-1.29 -7.21,-1.26 -12.69,-1.26 -9.22,-0 -18.44,-0.01 -27.66,0z"/>
 </g>
</svg>
