<?xml version="1.0" encoding="UTF-8"?>
<!DOCTYPE svg PUBLIC "-//W3C//DTD SVG 1.1//EN" "http://www.w3.org/Graphics/SVG/1.1/DTD/svg11.dtd">
<!-- Creator: CorelDRAW 2020 (64-Bit) -->
<svg xmlns="http://www.w3.org/2000/svg" xml:space="preserve" width="92.191mm" height="122.978mm" version="1.1"
     style="shape-rendering:geometricPrecision; text-rendering:geometricPrecision; image-rendering:optimizeQuality; fill-rule:evenodd; clip-rule:evenodd"
     viewBox="0 0 465.82 621.38"
>
 <defs>
  <style type="text/css">
   <![CDATA[
    .fil0 {fill:black}
   ]]>
  </style>
 </defs>
 <g id="Слой_x0020_1">
  <metadata id="CorelCorpID_0Corel-Layer"/>
  <g id="_2751373888912">
   <g>
    <path class="fil0" d="M464.42 606.58l-12.63 12.63c5.86,-2.53 10.44,-7.08 12.63,-12.63z"/>
    <path class="fil0" d="M445.53 621.03l20.23 -20.23c0.04,-0.51 0.06,-1.03 0.06,-1.55l0 -2.96 -25.09 25.09 0.41 0c1.49,0 2.96,-0.12 4.38,-0.35z"/>
    <polygon class="fil0" points="436.29,621.38 465.82,591.85 465.82,587.4 431.84,621.38 "/>
    <polygon class="fil0" points="427.4,621.38 465.82,582.96 465.82,578.51 422.95,621.38 "/>
    <polygon class="fil0" points="418.51,621.38 465.82,574.07 465.82,569.63 414.07,621.38 "/>
    <polygon class="fil0" points="409.62,621.38 465.82,565.18 465.82,560.74 405.18,621.38 "/>
    <polygon class="fil0" points="400.73,621.38 465.82,556.29 465.82,551.85 396.29,621.38 "/>
    <polygon class="fil0" points="365.18,621.38 465.82,520.74 465.82,516.3 360.73,621.38 "/>
    <polygon class="fil0" points="356.29,621.38 465.82,511.85 465.82,507.41 351.85,621.38 "/>
    <polygon class="fil0" points="347.4,621.38 465.82,502.96 465.82,498.52 342.96,621.38 "/>
    <polygon class="fil0" points="391.84,621.38 465.82,547.4 465.82,542.96 387.4,621.38 "/>
    <polygon class="fil0" points="382.96,621.38 465.82,538.52 465.82,534.07 378.51,621.38 "/>
    <polygon class="fil0" points="374.07,621.38 465.82,529.63 465.82,525.18 369.62,621.38 "/>
    <polygon class="fil0" points="338.51,621.38 465.82,494.07 465.82,489.63 334.07,621.38 "/>
    <polygon class="fil0" points="329.62,621.38 465.82,485.19 465.82,480.74 325.18,621.38 "/>
    <polygon class="fil0" points="320.74,621.38 465.82,476.3 465.82,471.85 316.29,621.38 "/>
    <polygon class="fil0" points="311.85,621.38 465.82,467.41 465.82,462.96 307.4,621.38 "/>
    <polygon class="fil0" points="302.96,621.38 465.82,458.52 465.82,454.08 298.51,621.38 "/>
    <polygon class="fil0" points="294.07,621.38 465.82,449.63 465.82,445.19 289.63,621.38 "/>
    <polygon class="fil0" points="258.52,621.38 465.82,414.08 465.82,409.63 254.07,621.38 "/>
    <polygon class="fil0" points="249.63,621.38 465.82,405.19 465.82,400.74 245.18,621.38 "/>
    <polygon class="fil0" points="240.74,621.38 465.82,396.3 465.82,391.86 236.3,621.38 "/>
    <polygon class="fil0" points="285.18,621.38 465.82,440.74 465.82,436.3 280.74,621.38 "/>
    <polygon class="fil0" points="276.29,621.38 465.82,431.85 465.82,427.41 271.85,621.38 "/>
    <polygon class="fil0" points="267.4,621.38 465.82,422.97 465.82,418.52 262.96,621.38 "/>
    <polygon class="fil0" points="231.85,621.38 465.82,387.41 465.82,382.97 227.41,621.38 "/>
    <polygon class="fil0" points="222.96,621.38 465.82,378.52 465.82,374.08 218.52,621.38 "/>
    <polygon class="fil0" points="214.07,621.38 465.82,369.63 465.82,365.19 209.63,621.38 "/>
    <polygon class="fil0" points="205.19,621.38 465.82,360.75 465.82,356.3 200.74,621.38 "/>
    <polygon class="fil0" points="196.3,621.38 465.82,351.86 465.82,347.41 191.85,621.38 "/>
    <polygon class="fil0" points="187.41,621.38 465.82,342.97 465.82,338.53 182.96,621.38 "/>
    <polygon class="fil0" points="151.85,621.38 465.82,307.42 465.82,302.97 147.41,621.38 "/>
    <polygon class="fil0" points="142.97,621.38 465.82,298.53 465.82,294.08 138.52,621.38 "/>
    <polygon class="fil0" points="134.08,621.38 465.82,289.64 465.82,285.19 129.63,621.38 "/>
    <polygon class="fil0" points="178.52,621.38 465.82,334.08 465.82,329.64 174.08,621.38 "/>
    <polygon class="fil0" points="169.63,621.38 465.82,325.19 465.82,320.75 165.19,621.38 "/>
    <polygon class="fil0" points="160.74,621.38 465.82,316.3 465.82,311.86 156.3,621.38 "/>
    <polygon class="fil0" points="125.19,621.38 465.82,280.75 465.82,276.31 120.75,621.38 "/>
    <polygon class="fil0" points="116.3,621.38 465.82,271.86 465.82,267.42 111.86,621.38 "/>
    <polygon class="fil0" points="107.41,621.38 465.82,262.97 465.82,258.53 102.97,621.38 "/>
    <polygon class="fil0" points="98.52,621.38 465.82,254.08 465.82,249.64 94.08,621.38 "/>
    <polygon class="fil0" points="89.64,621.38 465.82,245.2 465.82,240.75 85.19,621.38 "/>
    <polygon class="fil0" points="80.75,621.38 465.82,236.31 465.82,231.86 76.3,621.38 "/>
    <polygon class="fil0" points="45.19,621.38 465.82,200.75 465.82,196.31 40.75,621.38 "/>
    <polygon class="fil0" points="36.3,621.38 465.82,191.87 465.82,187.42 31.86,621.38 "/>
    <path class="fil0" d="M27.42 621.38l438.4 -438.4 0 -4.44 -442.79 442.79c0.55,0.03 1.1,0.05 1.65,0.05l2.74 0z"/>
    <polygon class="fil0" points="71.86,621.38 465.82,227.42 465.82,222.97 67.41,621.38 "/>
    <polygon class="fil0" points="62.97,621.38 465.82,218.53 465.82,214.09 58.53,621.38 "/>
    <polygon class="fil0" points="54.08,621.38 465.82,209.64 465.82,205.2 49.64,621.38 "/>
    <path class="fil0" d="M19.1 620.81l446.72 -446.72 0 -4.44 -450.19 450.19c1.12,0.4 2.28,0.72 3.47,0.97z"/>
    <path class="fil0" d="M12.52 618.49l453.3 -453.3 0 -4.44 -456.08 456.08c0.88,0.61 1.82,1.16 2.79,1.66z"/>
    <path class="fil0" d="M7.24 614.89l458.57 -458.57 0 -4.44 -460.77 460.77c0.68,0.79 1.41,1.55 2.19,2.25z"/>
    <path class="fil0" d="M3.17 610.07l462.65 -462.65 0 -4.44 -464.18 464.18c0.43,1.01 0.94,1.98 1.53,2.91z"/>
    <path class="fil0" d="M0.53 603.82l465.28 -465.28 0 -4.44 -465.81 465.81c0.04,1.34 0.22,2.65 0.52,3.92z"/>
    <polygon class="fil0" points="-0,595.46 465.82,129.65 465.82,125.2 -0,591.02 "/>
    <polygon class="fil0" points="-0,559.91 465.82,94.09 465.82,89.65 -0,555.46 "/>
    <polygon class="fil0" points="-0,551.02 465.82,85.2 465.82,80.76 -0,546.58 "/>
    <polygon class="fil0" points="-0,542.13 465.82,76.31 465.82,71.87 -0,537.69 "/>
    <polygon class="fil0" points="-0,586.57 465.82,120.76 465.82,116.31 -0,582.13 "/>
    <polygon class="fil0" points="-0,577.69 465.82,111.87 465.82,107.42 -0,573.24 "/>
    <polygon class="fil0" points="-0,568.8 465.82,102.98 465.82,98.54 -0,564.35 "/>
    <polygon class="fil0" points="-0,533.24 465.82,67.43 465.82,62.98 -0,528.8 "/>
    <polygon class="fil0" points="-0,524.35 465.82,58.54 465.82,54.09 -0,519.91 "/>
    <polygon class="fil0" points="-0,515.47 465.82,49.65 465.82,45.2 -0,511.02 "/>
   </g>
   <g>
    <polygon class="fil0" points="-0,515.46 465.82,49.65 465.82,45.2 -0,511.02 "/>
    <polygon class="fil0" points="-0,506.58 465.82,40.76 465.82,36.32 -0,502.13 "/>
    <polygon class="fil0" points="-0,497.69 465.82,31.87 465.82,27.43 -0,493.24 "/>
    <path class="fil0" d="M-0 462.13l456.96 -456.96c-0.85,-0.64 -1.75,-1.23 -2.69,-1.76l-454.28 454.28 0 4.44z"/>
    <path class="fil0" d="M-0 453.25l451.28 -451.28c-1.08,-0.44 -2.19,-0.81 -3.34,-1.1l-447.94 447.94 0 4.44z"/>
    <path class="fil0" d="M-0 444.36l444.19 -444.19c-1,-0.11 -2.01,-0.17 -3.04,-0.17l-1.23 0 -439.91 439.91 0 4.44z"/>
    <path class="fil0" d="M-0 488.8l465.82 -465.82 0 -0.85c0,-1.13 -0.09,-2.23 -0.28,-3.31l-465.54 465.54 0 4.44z"/>
    <path class="fil0" d="M-0 479.91l464.61 -464.61c-0.38,-1.05 -0.85,-2.07 -1.4,-3.05l-463.21 463.21 0 4.44z"/>
    <path class="fil0" d="M-0 471.02l461.44 -461.44c-0.64,-0.83 -1.34,-1.61 -2.09,-2.35l-459.35 459.35 0 4.44z"/>
    <polygon class="fil0" points="-0,435.47 435.47,0 431.02,0 -0,431.02 "/>
    <polygon class="fil0" points="-0,426.58 426.58,0 422.14,0 -0,422.14 "/>
    <polygon class="fil0" points="-0,417.69 417.69,0 413.25,0 -0,413.25 "/>
    <polygon class="fil0" points="-0,408.8 408.8,0 404.36,0 -0,404.36 "/>
    <polygon class="fil0" points="-0,399.91 399.91,0 395.47,0 -0,395.47 "/>
    <polygon class="fil0" points="-0,391.03 391.03,0 386.58,0 -0,386.58 "/>
    <polygon class="fil0" points="-0,355.47 355.47,0 351.03,0 -0,351.03 "/>
    <polygon class="fil0" points="-0,346.58 346.58,0 342.14,0 -0,342.14 "/>
    <polygon class="fil0" points="-0,337.69 337.69,0 333.25,0 -0,333.25 "/>
    <polygon class="fil0" points="-0,382.14 382.14,0 377.69,0 -0,377.69 "/>
    <polygon class="fil0" points="-0,373.25 373.25,0 368.8,0 -0,368.8 "/>
    <polygon class="fil0" points="-0,364.36 364.36,0 359.92,0 -0,359.92 "/>
    <polygon class="fil0" points="-0,328.81 328.81,0 324.36,0 -0,324.36 "/>
    <polygon class="fil0" points="-0,319.92 319.92,0 315.47,0 -0,315.47 "/>
    <polygon class="fil0" points="-0,311.03 311.03,0 306.58,0 -0,306.58 "/>
    <polygon class="fil0" points="-0,302.14 302.14,0 297.7,0 -0,297.7 "/>
    <polygon class="fil0" points="-0,293.25 293.25,0 288.81,0 -0,288.81 "/>
    <polygon class="fil0" points="-0,284.36 284.36,0 279.92,0 -0,279.92 "/>
    <polygon class="fil0" points="-0,248.81 248.81,0 244.37,0 -0,244.37 "/>
    <polygon class="fil0" points="-0,239.92 239.92,0 235.48,0 -0,235.48 "/>
    <polygon class="fil0" points="-0,231.03 231.03,0 226.59,0 -0,226.59 "/>
    <polygon class="fil0" points="-0,275.48 275.48,0 271.03,0 -0,271.03 "/>
    <polygon class="fil0" points="-0,266.59 266.59,0 262.14,0 -0,262.14 "/>
    <polygon class="fil0" points="-0,257.7 257.7,0 253.25,0 -0,253.25 "/>
    <polygon class="fil0" points="-0,222.14 222.14,0 217.7,0 -0,217.7 "/>
    <polygon class="fil0" points="-0,213.26 213.26,0 208.81,0 -0,208.81 "/>
    <polygon class="fil0" points="-0,204.37 204.37,0 199.92,0 -0,199.92 "/>
    <polygon class="fil0" points="-0,195.48 195.48,0 191.03,0 -0,191.03 "/>
    <polygon class="fil0" points="-0,186.59 186.59,0 182.15,0 -0,182.15 "/>
    <polygon class="fil0" points="-0,177.7 177.7,0 173.26,0 -0,173.26 "/>
    <polygon class="fil0" points="-0,142.15 142.15,0 137.7,0 -0,137.7 "/>
    <polygon class="fil0" points="-0,133.26 133.26,0 128.81,0 -0,128.81 "/>
    <polygon class="fil0" points="-0,124.37 124.37,0 119.93,0 -0,119.93 "/>
    <polygon class="fil0" points="-0,168.81 168.81,0 164.37,0 -0,164.37 "/>
    <polygon class="fil0" points="-0,159.92 159.92,0 155.48,0 -0,155.48 "/>
    <polygon class="fil0" points="-0,151.04 151.04,0 146.59,0 -0,146.59 "/>
    <polygon class="fil0" points="-0,115.48 115.48,0 111.04,0 -0,111.04 "/>
    <polygon class="fil0" points="-0,106.59 106.59,0 102.15,0 -0,102.15 "/>
    <polygon class="fil0" points="-0,97.71 97.71,0 93.26,0 -0,93.26 "/>
    <polygon class="fil0" points="-0,88.82 88.82,0 84.37,0 -0,84.37 "/>
    <polygon class="fil0" points="-0,79.93 79.93,0 75.48,0 -0,75.48 "/>
    <polygon class="fil0" points="-0,71.04 71.04,0 66.6,0 -0,66.6 "/>
    <polygon class="fil0" points="-0,35.49 35.49,0 31.04,0 -0,31.04 "/>
    <path class="fil0" d="M-0 26.6l26.6 -26.6 -1.92 0c-0.89,0 -1.78,0.04 -2.65,0.13l-22.02 22.02 0 4.44z"/>
    <path class="fil0" d="M0.66 17.05l15.78 -15.78c-7.82,2.5 -13.84,8.44 -15.78,15.78z"/>
    <polygon class="fil0" points="-0,62.15 62.15,0 57.71,0 -0,57.71 "/>
    <polygon class="fil0" points="-0,53.26 53.26,0 48.82,0 -0,48.82 "/>
    <polygon class="fil0" points="-0,44.37 44.37,0 39.93,0 -0,39.93 "/>
   </g>
  </g>
 </g>
</svg>
