<?xml version="1.0" encoding="UTF-8"?>
<!DOCTYPE svg PUBLIC "-//W3C//DTD SVG 1.1//EN" "http://www.w3.org/Graphics/SVG/1.1/DTD/svg11.dtd">
<!-- Creator: CorelDRAW 2020 (64-Bit) -->
<svg xmlns="http://www.w3.org/2000/svg" xml:space="preserve" width="92.191mm" height="122.978mm" version="1.1"
     style="shape-rendering:geometricPrecision; text-rendering:geometricPrecision; image-rendering:optimizeQuality; fill-rule:evenodd; clip-rule:evenodd"
     viewBox="0 0 300.44 400.78"
>
 <defs>
  <style type="text/css">
   <![CDATA[
    .fil0 {fill:white}
   ]]>
  </style>
 </defs>
 <g id="Слой_x0020_1">
  <metadata id="CorelCorpID_0Corel-Layer"/>
  <g id="_2751358217696">
   <g>
    <path class="fil0" d="M299.54 391.23l-8.14 8.14c3.78,-1.63 6.74,-4.56 8.14,-8.14z"/>
    <path class="fil0" d="M287.36 400.55l13.05 -13.05c0.03,-0.33 0.04,-0.66 0.04,-1l0 -1.91 -16.18 16.18 0.27 0c0.96,0 1.91,-0.08 2.83,-0.23z"/>
    <polygon class="fil0" points="281.4,400.78 300.44,381.73 300.44,378.86 278.53,400.78 "/>
    <polygon class="fil0" points="275.66,400.78 300.44,376 300.44,373.13 272.8,400.78 "/>
    <polygon class="fil0" points="269.93,400.78 300.44,370.26 300.44,367.4 267.06,400.78 "/>
    <polygon class="fil0" points="264.2,400.78 300.44,364.53 300.44,361.67 261.33,400.78 "/>
    <polygon class="fil0" points="258.47,400.78 300.44,358.8 300.44,355.93 255.6,400.78 "/>
    <polygon class="fil0" points="235.53,400.78 300.44,335.87 300.44,333 232.67,400.78 "/>
    <polygon class="fil0" points="229.8,400.78 300.44,330.13 300.44,327.27 226.93,400.78 "/>
    <polygon class="fil0" points="224.07,400.78 300.44,324.4 300.44,321.54 221.2,400.78 "/>
    <polygon class="fil0" points="252.73,400.78 300.44,353.07 300.44,350.2 249.87,400.78 "/>
    <polygon class="fil0" points="247,400.78 300.44,347.33 300.44,344.47 244.13,400.78 "/>
    <polygon class="fil0" points="241.27,400.78 300.44,341.6 300.44,338.73 238.4,400.78 "/>
    <polygon class="fil0" points="218.33,400.78 300.44,318.67 300.44,315.8 215.47,400.78 "/>
    <polygon class="fil0" points="212.6,400.78 300.44,312.94 300.44,310.07 209.74,400.78 "/>
    <polygon class="fil0" points="206.87,400.78 300.44,307.2 300.44,304.34 204,400.78 "/>
    <polygon class="fil0" points="201.14,400.78 300.44,301.47 300.44,298.6 198.27,400.78 "/>
    <polygon class="fil0" points="195.4,400.78 300.44,295.74 300.44,292.87 192.54,400.78 "/>
    <polygon class="fil0" points="189.67,400.78 300.44,290 300.44,287.14 186.8,400.78 "/>
    <polygon class="fil0" points="166.74,400.78 300.44,267.07 300.44,264.21 163.87,400.78 "/>
    <polygon class="fil0" points="161.01,400.78 300.44,261.34 300.44,258.47 158.14,400.78 "/>
    <polygon class="fil0" points="155.27,400.78 300.44,255.61 300.44,252.74 152.41,400.78 "/>
    <polygon class="fil0" points="183.94,400.78 300.44,284.27 300.44,281.4 181.07,400.78 "/>
    <polygon class="fil0" points="178.2,400.78 300.44,278.54 300.44,275.67 175.34,400.78 "/>
    <polygon class="fil0" points="172.47,400.78 300.44,272.81 300.44,269.94 169.61,400.78 "/>
    <polygon class="fil0" points="149.54,400.78 300.44,249.87 300.44,247.01 146.67,400.78 "/>
    <polygon class="fil0" points="143.81,400.78 300.44,244.14 300.44,241.27 140.94,400.78 "/>
    <polygon class="fil0" points="138.07,400.78 300.44,238.41 300.44,235.54 135.21,400.78 "/>
    <polygon class="fil0" points="132.34,400.78 300.44,232.67 300.44,229.81 129.47,400.78 "/>
    <polygon class="fil0" points="126.61,400.78 300.44,226.94 300.44,224.08 123.74,400.78 "/>
    <polygon class="fil0" points="120.88,400.78 300.44,221.21 300.44,218.34 118.01,400.78 "/>
    <polygon class="fil0" points="97.94,400.78 300.44,198.28 300.44,195.41 95.08,400.78 "/>
    <polygon class="fil0" points="92.21,400.78 300.44,192.54 300.44,189.68 89.34,400.78 "/>
    <polygon class="fil0" points="86.48,400.78 300.44,186.81 300.44,183.95 83.61,400.78 "/>
    <polygon class="fil0" points="115.14,400.78 300.44,215.48 300.44,212.61 112.28,400.78 "/>
    <polygon class="fil0" points="109.41,400.78 300.44,209.74 300.44,206.88 106.54,400.78 "/>
    <polygon class="fil0" points="103.68,400.78 300.44,204.01 300.44,201.14 100.81,400.78 "/>
    <polygon class="fil0" points="80.75,400.78 300.44,181.08 300.44,178.21 77.88,400.78 "/>
    <polygon class="fil0" points="75.01,400.78 300.44,175.35 300.44,172.48 72.15,400.78 "/>
    <polygon class="fil0" points="69.28,400.78 300.44,169.61 300.44,166.75 66.41,400.78 "/>
    <polygon class="fil0" points="63.55,400.78 300.44,163.88 300.44,161.01 60.68,400.78 "/>
    <polygon class="fil0" points="57.81,400.78 300.44,158.15 300.44,155.28 54.95,400.78 "/>
    <polygon class="fil0" points="52.08,400.78 300.44,152.41 300.44,149.55 49.21,400.78 "/>
    <polygon class="fil0" points="29.15,400.78 300.44,129.48 300.44,126.62 26.28,400.78 "/>
    <polygon class="fil0" points="23.42,400.78 300.44,123.75 300.44,120.88 20.55,400.78 "/>
    <path class="fil0" d="M17.68 400.78l282.76 -282.76 0 -2.87 -285.59 285.59c0.35,0.02 0.71,0.03 1.06,0.03l1.77 0z"/>
    <polygon class="fil0" points="46.35,400.78 300.44,146.68 300.44,143.81 43.48,400.78 "/>
    <polygon class="fil0" points="40.61,400.78 300.44,140.95 300.44,138.08 37.75,400.78 "/>
    <polygon class="fil0" points="34.88,400.78 300.44,135.22 300.44,132.35 32.02,400.78 "/>
    <path class="fil0" d="M12.32 400.41l288.12 -288.12 0 -2.87 -290.36 290.36c0.72,0.26 1.47,0.47 2.24,0.63z"/>
    <path class="fil0" d="M8.08 398.92l292.37 -292.37 0 -2.87 -294.17 294.17c0.57,0.39 1.17,0.75 1.8,1.07z"/>
    <path class="fil0" d="M4.67 396.59l295.77 -295.77 0 -2.87 -297.19 297.19c0.44,0.51 0.91,1 1.41,1.45z"/>
    <path class="fil0" d="M2.04 393.49l298.4 -298.4 0 -2.87 -299.39 299.39c0.28,0.65 0.61,1.28 0.99,1.88z"/>
    <path class="fil0" d="M0.34 389.45l300.1 -300.1 0 -2.87 -300.44 300.44c0.03,0.86 0.14,1.71 0.34,2.53z"/>
    <polygon class="fil0" points="-0,384.06 300.44,83.62 300.44,80.75 -0,381.2 "/>
    <polygon class="fil0" points="-0,361.13 300.44,60.69 300.44,57.82 -0,358.26 "/>
    <polygon class="fil0" points="-0,355.4 300.44,54.95 300.44,52.09 -0,352.53 "/>
    <polygon class="fil0" points="-0,349.66 300.44,49.22 300.44,46.35 -0,346.8 "/>
    <polygon class="fil0" points="-0,378.33 300.44,77.89 300.44,75.02 -0,375.46 "/>
    <polygon class="fil0" points="-0,372.6 300.44,72.15 300.44,69.29 -0,369.73 "/>
    <polygon class="fil0" points="-0,366.86 300.44,66.42 300.44,63.55 -0,364 "/>
    <polygon class="fil0" points="-0,343.93 300.44,43.49 300.44,40.62 -0,341.07 "/>
    <polygon class="fil0" points="-0,338.2 300.44,37.76 300.44,34.89 -0,335.33 "/>
    <polygon class="fil0" points="-0,332.47 300.44,32.02 300.44,29.16 -0,329.6 "/>
   </g>
   <g>
    <polygon class="fil0" points="-0,332.47 300.44,32.02 300.44,29.16 -0,329.6 "/>
    <polygon class="fil0" points="-0,326.73 300.44,26.29 300.44,23.42 -0,323.87 "/>
    <polygon class="fil0" points="-0,321 300.44,20.56 300.44,17.69 -0,318.13 "/>
    <path class="fil0" d="M-0 298.07l294.73 -294.73c-0.55,-0.41 -1.13,-0.79 -1.73,-1.13l-293 293 0 2.87z"/>
    <path class="fil0" d="M-0 292.33l291.07 -291.07c-0.69,-0.28 -1.41,-0.52 -2.15,-0.71l-288.92 288.92 0 2.87z"/>
    <path class="fil0" d="M-0 286.6l286.49 -286.49c-0.64,-0.07 -1.3,-0.11 -1.96,-0.11l-0.79 0 -283.74 283.74 0 2.87z"/>
    <path class="fil0" d="M-0 315.27l300.44 -300.44 0 -0.55c0,-0.73 -0.06,-1.44 -0.18,-2.14l-300.26 300.26 0 2.87z"/>
    <path class="fil0" d="M-0 309.53l299.66 -299.67c-0.25,-0.68 -0.55,-1.34 -0.9,-1.97l-298.76 298.76 0 2.87z"/>
    <path class="fil0" d="M-0 303.8l297.62 -297.62c-0.41,-0.53 -0.86,-1.04 -1.35,-1.52l-296.27 296.27 0 2.87z"/>
    <polygon class="fil0" points="-0,280.87 280.87,0 278,0 -0,278 "/>
    <polygon class="fil0" points="-0,275.14 275.14,0 272.27,0 -0,272.27 "/>
    <polygon class="fil0" points="-0,269.4 269.4,0 266.54,0 -0,266.54 "/>
    <polygon class="fil0" points="-0,263.67 263.67,0 260.8,0 -0,260.8 "/>
    <polygon class="fil0" points="-0,257.94 257.94,0 255.07,0 -0,255.07 "/>
    <polygon class="fil0" points="-0,252.2 252.2,0 249.34,0 -0,249.34 "/>
    <polygon class="fil0" points="-0,229.27 229.27,0 226.41,0 -0,226.41 "/>
    <polygon class="fil0" points="-0,223.54 223.54,0 220.67,0 -0,220.67 "/>
    <polygon class="fil0" points="-0,217.81 217.81,0 214.94,0 -0,214.94 "/>
    <polygon class="fil0" points="-0,246.47 246.47,0 243.61,0 -0,243.61 "/>
    <polygon class="fil0" points="-0,240.74 240.74,0 237.87,0 -0,237.87 "/>
    <polygon class="fil0" points="-0,235.01 235.01,0 232.14,0 -0,232.14 "/>
    <polygon class="fil0" points="-0,212.07 212.07,0 209.21,0 -0,209.21 "/>
    <polygon class="fil0" points="-0,206.34 206.34,0 203.47,0 -0,203.47 "/>
    <polygon class="fil0" points="-0,200.61 200.61,0 197.74,0 -0,197.74 "/>
    <polygon class="fil0" points="-0,194.88 194.88,0 192.01,0 -0,192.01 "/>
    <polygon class="fil0" points="-0,189.14 189.14,0 186.28,0 -0,186.28 "/>
    <polygon class="fil0" points="-0,183.41 183.41,0 180.54,0 -0,180.54 "/>
    <polygon class="fil0" points="-0,160.48 160.48,0 157.61,0 -0,157.61 "/>
    <polygon class="fil0" points="-0,154.74 154.74,0 151.88,0 -0,151.88 "/>
    <polygon class="fil0" points="-0,149.01 149.01,0 146.15,0 -0,146.15 "/>
    <polygon class="fil0" points="-0,177.68 177.68,0 174.81,0 -0,174.81 "/>
    <polygon class="fil0" points="-0,171.94 171.94,0 169.08,0 -0,169.08 "/>
    <polygon class="fil0" points="-0,166.21 166.21,0 163.34,0 -0,163.34 "/>
    <polygon class="fil0" points="-0,143.28 143.28,0 140.41,0 -0,140.41 "/>
    <polygon class="fil0" points="-0,137.55 137.55,0 134.68,0 -0,134.68 "/>
    <polygon class="fil0" points="-0,131.81 131.81,0 128.95,0 -0,128.95 "/>
    <polygon class="fil0" points="-0,126.08 126.08,0 123.21,0 -0,123.21 "/>
    <polygon class="fil0" points="-0,120.35 120.35,0 117.48,0 -0,117.48 "/>
    <polygon class="fil0" points="-0,114.61 114.61,0 111.75,0 -0,111.75 "/>
    <polygon class="fil0" points="-0,91.68 91.68,0 88.82,0 -0,88.82 "/>
    <polygon class="fil0" points="-0,85.95 85.95,0 83.08,0 -0,83.08 "/>
    <polygon class="fil0" points="-0,80.22 80.22,0 77.35,0 -0,77.35 "/>
    <polygon class="fil0" points="-0,108.88 108.88,0 106.02,0 -0,106.02 "/>
    <polygon class="fil0" points="-0,103.15 103.15,0 100.28,0 -0,100.28 "/>
    <polygon class="fil0" points="-0,97.42 97.42,0 94.55,0 -0,94.55 "/>
    <polygon class="fil0" points="-0,74.48 74.48,0 71.62,0 -0,71.62 "/>
    <polygon class="fil0" points="-0,68.75 68.75,0 65.88,0 -0,65.88 "/>
    <polygon class="fil0" points="-0,63.02 63.02,0 60.15,0 -0,60.15 "/>
    <polygon class="fil0" points="-0,57.29 57.29,0 54.42,0 -0,54.42 "/>
    <polygon class="fil0" points="-0,51.55 51.55,0 48.69,0 -0,48.69 "/>
    <polygon class="fil0" points="-0,45.82 45.82,0 42.95,0 -0,42.95 "/>
    <polygon class="fil0" points="-0,22.89 22.89,0 20.02,0 -0,20.02 "/>
    <path class="fil0" d="M-0 17.15l17.15 -17.15 -1.24 0c-0.58,0 -1.15,0.03 -1.71,0.08l-14.21 14.21 0 2.87z"/>
    <path class="fil0" d="M0.42 11l10.18 -10.18c-5.04,1.61 -8.93,5.44 -10.18,10.18z"/>
    <polygon class="fil0" points="-0,40.09 40.09,0 37.22,0 -0,37.22 "/>
    <polygon class="fil0" points="-0,34.35 34.35,0 31.49,0 -0,31.49 "/>
    <polygon class="fil0" points="-0,28.62 28.62,0 25.75,0 -0,25.75 "/>
   </g>
  </g>
 </g>
</svg>
