<?xml version="1.0" encoding="UTF-8"?>
<!DOCTYPE svg PUBLIC "-//W3C//DTD SVG 1.1//EN" "http://www.w3.org/Graphics/SVG/1.1/DTD/svg11.dtd">
<!-- Creator: CorelDRAW 2020 (64-Bit) -->
<svg xmlns="http://www.w3.org/2000/svg" xml:space="preserve" width="10.5834mm" height="10.5833mm" version="1.1"
     style="shape-rendering:geometricPrecision; text-rendering:geometricPrecision; image-rendering:optimizeQuality; fill-rule:evenodd; clip-rule:evenodd"
     viewBox="0 0 18.15 18.15"
>
 <defs>
  <style type="text/css">
   <![CDATA[
    .fil1 {fill:#2FA7DB}
    .fil0 {fill:white}
   ]]>
  </style>
 </defs>
 <g id="Слой_x0020_1">
  <metadata id="CorelCorpID_0Corel-Layer"/>
  <g id="_2432015368592">
   <path class="fil0" d="M15.07 13.66c0.45,-0.32 1.16,-2.01 1.33,-2.69 0.3,-1.18 0.32,-2.44 0.03,-3.63 -0.52,-2.18 -1.91,-3.79 -3.41,-4.7 -1.85,-1.12 -4.22,-1.51 -6.54,-0.66 -1.09,0.4 -1.81,0.92 -2.53,1.53 -0.09,0.08 -0.16,0.17 -0.25,0.26 -0.1,0.1 -0.17,0.14 -0.25,0.25 -0.15,0.18 -0.3,0.35 -0.45,0.56 -0.24,0.33 -0.59,0.84 -0.76,1.27 -0.89,1.63 -0.92,4.12 -0.28,5.83 1.76,4.68 7.28,6.38 11.31,3.7 0.38,-0.25 0.66,-0.5 0.97,-0.77 0.17,-0.16 0.28,-0.29 0.44,-0.45 0.1,-0.1 0.13,-0.14 0.21,-0.24 0.05,-0.06 0.06,-0.07 0.1,-0.12 0.05,-0.07 0.05,-0.06 0.08,-0.13z"/>
   <path class="fil1" d="M7.61 7.39c0.39,-0.09 1.17,-0.47 1.59,-0.64l3.09 -1.28c0.76,-0.32 1.21,-0.29 1.07,0.72 -0.26,1.89 -0.58,3.8 -0.89,5.69 -0.12,0.75 -0.12,1.2 -0.43,1.77 -0.27,0.06 -0.41,0.33 -1.32,-0.2l-1.08 -0.71c-0.39,-0.26 -1.88,-1.2 -2,-1.53 -0.11,-0.29 0.07,-0.47 0.22,-0.6l1.37 -1.29c0.43,-0.46 1.71,-1.43 1.63,-1.89 -0.38,-0.06 -1.24,0.61 -1.51,0.8l-2.73 1.83c-0.6,0.41 -0.85,0.53 -1.73,0.25 -0.35,-0.11 -1.57,-0.43 -1.7,-0.62 -0.33,-0.48 0.85,-0.82 1.21,-0.98 0.37,-0.16 3.11,-1.25 3.2,-1.33zm8.65 7.18c0.54,-0.38 1.39,-2.41 1.6,-3.23 0.36,-1.42 0.38,-2.93 0.04,-4.36 -0.62,-2.62 -2.3,-4.55 -4.09,-5.64 -2.22,-1.34 -5.06,-1.81 -7.85,-0.8 -1.31,0.48 -2.17,1.1 -3.03,1.83 -0.11,0.1 -0.19,0.21 -0.3,0.31 -0.12,0.12 -0.2,0.17 -0.31,0.3 -0.18,0.22 -0.36,0.42 -0.55,0.67 -0.29,0.4 -0.71,1.01 -0.91,1.52 -1.07,1.96 -1.1,4.94 -0.33,6.99 2.11,5.61 8.73,7.66 13.58,4.44 0.46,-0.3 0.79,-0.59 1.16,-0.93 0.21,-0.19 0.34,-0.34 0.53,-0.54 0.12,-0.12 0.15,-0.17 0.25,-0.28 0.06,-0.07 0.08,-0.08 0.12,-0.14 0.06,-0.08 0.07,-0.07 0.1,-0.16z"/>
  </g>
 </g>
</svg>
