<?xml version="1.0" encoding="UTF-8"?>
<!DOCTYPE svg PUBLIC "-//W3C//DTD SVG 1.1//EN" "http://www.w3.org/Graphics/SVG/1.1/DTD/svg11.dtd">
<!-- Creator: CorelDRAW 2020 (64-Bit) -->
<svg xmlns="http://www.w3.org/2000/svg" xml:space="preserve" width="33.161mm" height="33.1611mm" version="1.1" style="shape-rendering:geometricPrecision; text-rendering:geometricPrecision; image-rendering:optimizeQuality; fill-rule:evenodd; clip-rule:evenodd"
viewBox="0 0 76.6 76.6"
 xmlns:xlink="http://www.w3.org/1999/xlink"
 xmlns:xodm="http://www.corel.com/coreldraw/odm/2003">
 <defs>
  <style type="text/css">
   <![CDATA[
    .str0 {stroke:black;stroke-width:0.18;stroke-miterlimit:22.9256}
    .str3 {stroke:black;stroke-width:0.46;stroke-linecap:round;stroke-miterlimit:22.9256}
    .str1 {stroke:white;stroke-width:0.18;stroke-linecap:round;stroke-miterlimit:22.9256}
    .str2 {stroke:black;stroke-width:0.46;stroke-linecap:round;stroke-linejoin:round;stroke-miterlimit:22.9256}
    .fil0 {fill:none}
    .fil11 {fill:#040404}
    .fil6 {fill:#333333}
    .fil3 {fill:#3B0802}
    .fil1 {fill:#691A12}
    .fil7 {fill:#848987}
    .fil2 {fill:#9C1919}
    .fil5 {fill:#B3B3B3}
    .fil4 {fill:#E3BF64}
    .fil10 {fill:#F9A9AD}
    .fil8 {fill:#FF0011}
    .fil9 {fill:white}
   ]]>
  </style>
 </defs>
 <g id="Слой_x0020_1">
  <metadata id="CorelCorpID_0Corel-Layer"/>
  <rect class="fil0" x="-0" y="-0" width="76.6" height="76.6"/>
 </g>
 <g id="close">
  <metadata id="CorelCorpID_1Corel-Layer"/>
  <g id="_2152246700032">
   <path class="fil1 str0" d="M52 41.23c0,0 -1.79,-0.06 -2.16,-0.78 -0.37,-0.72 0.56,-0.88 0.3,-1.77 -0.26,-0.89 -3.95,-0.87 -6.03,0.17 -3.47,1.73 -4.11,-1.13 -6.11,-1.27 -2.55,-0.17 -6.41,1.37 -8.6,2.82 -0.28,0.19 -2.65,1.6 -4.43,3.11 -0.59,0.51 -1.97,0.53 -2.33,1.02 0.26,1.16 0.31,1.54 0.42,1.91 0.22,0.21 0.8,0.71 1.38,0.83 1.82,0.36 4.32,-0.06 5.63,-0.49 1.41,-1.32 4.52,-1.99 5.41,-1.56 0.14,0.68 0.13,0.61 0.22,1.08 0.06,0.31 2.36,0.61 4.59,0.03 2.45,-0.64 5.04,-2.17 6.15,-2.63 2.12,-0.86 2.67,-1.3 3.48,-1.4 0.81,-0.1 2.09,-1.07 2.09,-1.07z"/>
   <path class="fil2 str0" d="M51.62 39.42c0,0 -1.06,0.29 -1.43,-0.43 -0.37,-0.72 0.17,-1.15 -0.43,-2.11 -0.6,-0.96 -3.95,-0.87 -6.03,0.17 -3.47,1.73 -4.11,-1.13 -6.11,-1.27 -2.55,-0.17 -6.41,1.37 -8.6,2.82 -0.58,0.38 -9.88,5.91 -4.96,6.87 1.82,0.36 4.32,-0.06 5.63,-0.49 1.41,-1.32 4.68,-1.93 5.57,-1.5 0.89,0.43 -0.29,0.54 0.08,1.1 0.18,0.26 2.33,0.53 4.56,-0.05 2.45,-0.64 5.04,-2.17 6.15,-2.63 2.12,-0.86 2.51,-0.6 3.33,-0.7 0.81,-0.1 2.25,-1.78 2.25,-1.78z"/>
   <path class="fil3 str0" d="M49.46 42.25c0,0 1.64,-0.67 3.81,-0.51 2.17,0.16 12.37,-0.08 12.37,-0.08l1.98 -1.94 -0.47 -0.66 -21.79 0.44 -1.77 1.57 5.56 -0.1 0.3 1.29z"/>
   <path class="fil4 str0" d="M32.27 41.97c0,0 0.97,0.22 0.56,0.77 -0.41,0.56 2.67,-0.81 3.18,0.07 0.51,0.87 0.15,1.33 1.35,1.24 1.2,-0.09 4.8,-2.05 6.45,-2.05 1.65,0.01 3.1,-1.49 3.1,-1.49l-13.36 0 -1.28 1.47z"/>
   <polygon class="fil5 str0" points="65.58,40.65 43.6,41.06 45.37,39.49 67.16,39.05 "/>
   <path class="fil4 str0" d="M24.41 42.84l0.52 1.37c0.14,0.36 0.46,0.59 0.85,0.61l1.35 0.05 -1.09 -2.6 -1.62 0.57z"/>
   <path class="fil6 str0" d="M67.16 39.05c0,0 2.19,0.06 2.78,-0.06 0.59,-0.12 1.32,-0.45 2.36,-1.12 1.58,-1.02 4.66,2.28 0.23,3.09 -2.94,0.54 -6.88,0.69 -6.88,0.69l-0.23 -1 1.75 -1.61z"/>
   <path class="fil0 str0" d="M65.41 40.66c0,0 4.49,0.02 5.74,-0.44 1.26,-0.46 2.52,-0.57 3.04,-1.2 0.52,-0.63 0.32,-0.51 0.32,-0.51"/>
   <polygon class="fil7 str0" points="40.91,39.14 38.2,41.2 39.91,41.28 42.57,39.17 "/>
   <polygon class="fil7 str0" points="44.49,38.96 41.78,41.02 43.5,41.1 46.15,38.99 "/>
   <polygon class="fil7" points="32.78,38.69 29.47,41.58 30.62,41.53 34.02,38.69 "/>
   <line class="fil0 str1" x1="30.61" y1="39.28" x2="72.08" y2= "38.97" />
   <line class="fil0 str1" x1="29.91" y1="39.74" x2="71.04" y2= "39.33" />
   <line class="fil0 str1" x1="29.36" y1="40.28" x2="70.12" y2= "39.74" />
   <line class="fil0 str1" x1="28.79" y1="40.79" x2="68.57" y2= "40.15" />
   <path class="fil5 str0" d="M66.99 41.05c0,0 -0.32,0.07 -0.41,0.33 -0.21,0.64 1.06,0.37 1.13,0.35 0.56,-0.12 0.34,-0.63 -0.06,-0.7 -0.33,-0.06 -0.66,0.02 -0.66,0.02z"/>
   <path class="fil5 str0" d="M69.65 40.91c-0.36,0.18 -0.35,0.38 -0.25,0.62 0.15,0.33 1.53,0.29 1.35,-0.27 -0.05,-0.15 -0.13,-0.28 -0.55,-0.39 -0.42,-0.11 -0.54,0.04 -0.54,0.04z"/>
   <path class="fil5 str0" d="M72.42 40.12c-0.22,0.5 -0.26,0.5 -0.14,0.78 0.12,0.28 0.77,0.23 1.01,0.07 0.35,-0.23 0.6,-0.68 0.1,-0.79 -0.35,-0.08 -0.14,-0.31 -0.96,-0.06z"/>
   <line class="fil0 str0" x1="22.69" y1="44.69" x2="23.07" y2= "46.5" />
   <line class="fil0 str0" x1="29.68" y1="44.98" x2="30.07" y2= "46.79" />
   <line class="fil0 str0" x1="35.33" y1="44.57" x2="35.68" y2= "46.22" />
  </g>
  <g id="_2152246705888">
   <path class="fil8" d="M24.7 41.48c0.24,0.12 1.3,-0.35 1.26,-0.61 -0.05,-0.32 -0.39,-0.16 -0.55,-0.05 -0.47,0.32 -0.99,0.39 -0.71,0.65z"/>
   <path class="fil8" d="M27.71 42.15l0.01 0.05c0.04,0.32 0.08,0.82 0.43,0.57 0.14,-0.14 0.11,-0.11 0.09,-0.37 -0.1,-0.98 -0.57,-0.62 -0.52,-0.25z"/>
   <path class="fil8" d="M26.05 41.73c-0.69,0.5 -0.3,0.88 0.02,0.67 0.07,-0.05 0.41,-0.42 0.43,-0.53 0.06,-0.28 -0.25,-0.29 -0.46,-0.14z"/>
   <path class="fil9 str2" d="M32.11 39.06c0,0 -1.54,0.92 -2.57,1.33 -1.02,0.41 -3.82,0.29 -2.11,-1.98l3.03 -4.02 3.11 -3.27c0.54,-0.57 1.68,-1.27 1.88,-1.31 0.2,-0.05 1.14,-2.33 1.33,-2.26 0.19,0.07 1.5,1.02 1.97,1.59 0.19,0.24 1.28,-0.24 4.1,0.27 2.83,0.51 4.69,1.22 5.08,1.37 0.39,0.15 2.32,-1.62 2.48,-1.55 0.13,0.06 0.8,1.97 0.56,4.52 -0.03,0.35 -0.13,0.67 0.02,0.81 1.36,1.23 3.41,4.41 2.64,4.42l-21.53 0.11z"/>
  </g>
  <path class="fil0 str3" d="M45.37 38.96l-0.72 -2.91c-0.16,-0.65 0.42,-2.06 1.6,-2.07 1.18,-0.02 2.59,1.63 2.59,1.63"/>
  <path class="fil10" d="M46.62 35.75c-1.07,0.52 -0.33,1.7 0.49,1.4 0.34,-0.12 0.6,-0.53 0.44,-0.97 -0.12,-0.33 -0.51,-0.64 -0.93,-0.44z"/>
  <path class="fil11" d="M36.79 35.42c-0.43,0.51 0.6,1.21 1.45,0.5 0.16,0.1 0.06,0.05 0.19,0.16 0.06,0.06 0.1,0.09 0.19,0.14 0.7,0.38 1.66,-0.09 1.31,-0.42 -0.32,-0.16 -0.55,0.16 -0.92,0.09 -0.39,-0.07 -0.33,-0.48 -0.61,-0.56 -0.24,-0.08 -0.46,0.29 -0.73,0.39 -0.6,0.23 -0.36,-0.31 -0.88,-0.31z"/>
  <path class="fil11" d="M35.1 34.79c-0.38,0.1 -0.56,0.33 -0.51,0.79 0.04,0.39 0.3,0.66 0.73,0.51 0.86,-0.29 0.45,-1.48 -0.22,-1.3z"/>
  <path class="fil11" d="M43.34 35.47c-0.77,0.22 -0.68,1.36 0.1,1.19 0.81,-0.18 0.42,-1.34 -0.1,-1.19z"/>
  <path class="fil10" d="M46.72 34.96c-0.01,0.74 0.69,0.56 0.75,0.22 0.03,-0.2 -0.11,-0.42 -0.28,-0.46 -0.22,-0.05 -0.35,0.14 -0.47,0.24z"/>
  <path class="fil10" d="M45.22 36.22c0.14,0.11 0.2,0.24 0.45,0.16 0.19,-0.06 0.35,-0.22 0.25,-0.49 -0.1,-0.29 -0.77,-0.41 -0.7,0.33z"/>
  <path class="fil10" d="M45.79 34.69c-0.6,0.3 -0.18,0.83 0.22,0.69 0.42,-0.15 0.19,-0.89 -0.22,-0.69z"/>
 </g>
</svg>
