<?xml version="1.0" encoding="UTF-8"?>
<!DOCTYPE svg PUBLIC "-//W3C//DTD SVG 1.1//EN" "http://www.w3.org/Graphics/SVG/1.1/DTD/svg11.dtd">
<!-- Creator: CorelDRAW 2020 (64-Bit) -->
<svg xmlns="http://www.w3.org/2000/svg" xml:space="preserve" width="33.161mm" height="33.1611mm" version="1.1" style="shape-rendering:geometricPrecision; text-rendering:geometricPrecision; image-rendering:optimizeQuality; fill-rule:evenodd; clip-rule:evenodd"
viewBox="0 0 72.63 72.63"
 xmlns:xlink="http://www.w3.org/1999/xlink"
 xmlns:xodm="http://www.corel.com/coreldraw/odm/2003">
 <defs>
  <style type="text/css">
   <![CDATA[
    .str0 {stroke:black;stroke-width:0.17;stroke-miterlimit:22.9256}
    .str3 {stroke:black;stroke-width:0.44;stroke-linecap:round;stroke-miterlimit:22.9256}
    .str1 {stroke:white;stroke-width:0.17;stroke-linecap:round;stroke-miterlimit:22.9256}
    .str2 {stroke:black;stroke-width:0.44;stroke-linecap:round;stroke-linejoin:round;stroke-miterlimit:22.9256}
    .fil0 {fill:none}
    .fil10 {fill:#040404}
    .fil6 {fill:#333333}
    .fil3 {fill:#3B0802}
    .fil1 {fill:#691A12}
    .fil7 {fill:#848987}
    .fil2 {fill:#9C1919}
    .fil5 {fill:#B3B3B3}
    .fil4 {fill:#E3BF64}
    .fil9 {fill:#F9A9AD}
    .fil8 {fill:white}
   ]]>
  </style>
 </defs>
 <g id="close">
  <metadata id="CorelCorpID_0Corel-Layer"/>
  <rect class="fil0" x="-0" y="-0" width="72.63" height="72.63"/>
  <g id="_2152062139200">
   <path class="fil1 str0" d="M49.31 39.05c0,0 -1.69,-0.05 -2.04,-0.74 -0.35,-0.68 0.53,-0.83 0.28,-1.67 -0.25,-0.84 -3.75,-0.83 -5.72,0.16 -3.29,1.64 -3.9,-1.07 -5.79,-1.2 -2.42,-0.16 -6.08,1.3 -8.15,2.67 -0.27,0.18 -2.52,1.52 -4.2,2.95 -0.56,0.48 -1.87,0.51 -2.21,0.97 0.24,1.1 0.3,1.46 0.4,1.81 0.21,0.2 0.76,0.68 1.3,0.78 1.73,0.34 4.1,-0.06 5.33,-0.46 1.33,-1.25 4.29,-1.89 5.13,-1.48 0.14,0.65 0.12,0.58 0.21,1.02 0.06,0.3 2.23,0.58 4.35,0.03 2.33,-0.61 4.78,-2.06 5.83,-2.49 2.01,-0.82 2.53,-1.24 3.3,-1.33 0.77,-0.09 1.98,-1.02 1.98,-1.02z"/>
   <path class="fil2 str0" d="M48.94 37.33c0,0 -1.01,0.27 -1.36,-0.41 -0.35,-0.68 0.16,-1.09 -0.41,-2 -0.57,-0.91 -3.75,-0.83 -5.72,0.16 -3.29,1.64 -3.9,-1.07 -5.79,-1.2 -2.42,-0.16 -6.08,1.3 -8.15,2.67 -0.55,0.36 -9.37,5.6 -4.71,6.51 1.73,0.34 4.1,-0.06 5.33,-0.46 1.33,-1.25 4.44,-1.83 5.28,-1.43 0.84,0.41 -0.27,0.51 0.08,1.04 0.17,0.25 2.21,0.5 4.32,-0.05 2.33,-0.61 4.78,-2.06 5.83,-2.49 2.01,-0.82 2.38,-0.57 3.15,-0.66 0.77,-0.09 2.13,-1.68 2.13,-1.68z"/>
   <path class="fil3 str0" d="M46.89 40.02c0,0 1.56,-0.64 3.62,-0.49 2.06,0.15 11.73,-0.08 11.73,-0.08l1.88 -1.84 -0.44 -0.63 -20.66 0.42 -1.68 1.49 5.27 -0.1 0.28 1.22z"/>
   <path class="fil4 str0" d="M30.6 39.75c0,0 0.92,0.2 0.53,0.73 -0.38,0.53 2.53,-0.76 3.02,0.06 0.48,0.83 0.15,1.26 1.28,1.17 1.13,-0.08 4.55,-1.95 6.11,-1.94 1.56,0 2.94,-1.42 2.94,-1.42l-12.67 0 -1.22 1.39z"/>
   <polygon class="fil5 str0" points="62.18,38.5 41.34,38.89 43.02,37.4 63.68,36.98 "/>
   <path class="fil4 str0" d="M23.14 40.58l0.49 1.3c0.13,0.34 0.44,0.56 0.8,0.58l1.28 0.05 -1.04 -2.46 -1.54 0.54z"/>
   <path class="fil6 str0" d="M63.68 36.98c0,0 2.08,0.06 2.63,-0.06 0.56,-0.12 1.25,-0.43 2.23,-1.06 1.5,-0.97 4.42,2.16 0.22,2.93 -2.79,0.51 -6.53,0.66 -6.53,0.66l-0.22 -0.95 1.66 -1.52z"/>
   <path class="fil0 str0" d="M62.02 38.51c0,0 4.26,0.02 5.45,-0.42 1.19,-0.44 2.39,-0.54 2.88,-1.14 0.49,-0.6 0.31,-0.48 0.31,-0.48"/>
   <polygon class="fil7 str0" points="38.79,37.07 36.22,39.02 37.84,39.1 40.36,37.1 "/>
   <polygon class="fil7 str0" points="42.19,36.9 39.61,38.85 41.24,38.93 43.76,36.93 "/>
   <polygon class="fil7" points="31.08,36.64 27.94,39.38 29.03,39.33 32.26,36.65 "/>
   <line class="fil0 str1" x1="29.02" y1="37.2" x2="68.34" y2= "36.91" />
   <line class="fil0 str1" x1="28.36" y1="37.63" x2="67.36" y2= "37.25" />
   <line class="fil0 str1" x1="27.84" y1="38.15" x2="66.48" y2= "37.64" />
   <line class="fil0 str1" x1="27.3" y1="38.64" x2="65.02" y2= "38.03" />
   <path class="fil5 str0" d="M63.52 38.88c0,0 -0.3,0.07 -0.39,0.32 -0.2,0.6 1,0.35 1.07,0.33 0.53,-0.11 0.32,-0.6 -0.05,-0.67 -0.32,-0.06 -0.63,0.02 -0.63,0.02z"/>
   <path class="fil5 str0" d="M66.04 38.75c-0.34,0.17 -0.34,0.36 -0.24,0.58 0.14,0.31 1.45,0.27 1.28,-0.25 -0.05,-0.14 -0.12,-0.27 -0.52,-0.37 -0.4,-0.1 -0.52,0.04 -0.52,0.04z"/>
   <path class="fil5 str0" d="M68.66 38c-0.21,0.47 -0.25,0.47 -0.13,0.74 0.12,0.27 0.73,0.22 0.95,0.07 0.33,-0.22 0.57,-0.64 0.09,-0.75 -0.33,-0.07 -0.13,-0.3 -0.91,-0.06z"/>
   <line class="fil0 str0" x1="21.51" y1="42.33" x2="21.88" y2= "44.05" />
   <line class="fil0 str0" x1="28.14" y1="42.61" x2="28.51" y2= "44.32" />
   <line class="fil0 str0" x1="33.5" y1="42.22" x2="33.83" y2= "43.78" />
  </g>
  <g id="_2152155199360">
   <path class="fil8 str2" d="M26.64 37c0,0 -1.61,-3.27 -0.04,-4.43 1.58,-1.16 3.16,1.23 3.16,1.23l-0.9 -1.2 2.94 -3.1c0.51,-0.54 1.59,-1.2 1.78,-1.25 0.19,-0.04 1.08,-2.21 1.26,-2.15 0.18,0.07 1.43,0.96 1.87,1.5 0.18,0.23 1.21,-0.23 3.89,0.25 2.68,0.48 4.45,1.15 4.82,1.29 0.37,0.14 2.2,-1.54 2.35,-1.47 0.13,0.05 0.76,1.86 0.54,4.28 -0.03,0.33 -0.12,0.64 0.02,0.76 1.29,1.17 3.24,4.18 2.51,4.18l-24.21 0.11z"/>
   <path class="fil0 str3" d="M43.01 36.9l-0.68 -2.76c-0.15,-0.61 0.4,-1.95 1.52,-1.97 1.12,-0.02 2.46,1.54 2.46,1.54"/>
   <path class="fil9" d="M28.06 34.09c-1.11,0.25 -0.62,1.57 0.21,1.4 0.94,-0.19 0.61,-1.59 -0.21,-1.4z"/>
   <path class="fil9" d="M44.19 33.86c-1.02,0.5 -0.31,1.61 0.47,1.33 0.32,-0.11 0.57,-0.51 0.42,-0.92 -0.11,-0.31 -0.48,-0.61 -0.89,-0.41z"/>
   <path class="fil10" d="M34.87 33.56c-0.41,0.48 0.57,1.15 1.38,0.47 0.15,0.1 0.06,0.05 0.18,0.16 0.06,0.05 0.1,0.09 0.18,0.13 0.66,0.36 1.58,-0.09 1.24,-0.4 -0.3,-0.15 -0.52,0.15 -0.88,0.09 -0.37,-0.07 -0.32,-0.45 -0.58,-0.53 -0.23,-0.07 -0.44,0.27 -0.69,0.37 -0.57,0.22 -0.34,-0.3 -0.83,-0.29z"/>
   <path class="fil10" d="M33.27 32.97c-0.36,0.1 -0.53,0.32 -0.48,0.75 0.04,0.37 0.29,0.62 0.69,0.49 0.81,-0.28 0.42,-1.41 -0.21,-1.23z"/>
   <path class="fil10" d="M41.09 33.59c-0.73,0.21 -0.65,1.29 0.1,1.13 0.77,-0.17 0.39,-1.27 -0.1,-1.13z"/>
   <path class="fil9" d="M27.56 33.29c-0.14,-0.11 -0.26,-0.26 -0.5,-0.18 -0.15,0.05 -0.26,0.25 -0.18,0.46 0.12,0.35 0.73,0.4 0.68,-0.28z"/>
   <path class="fil9" d="M26.83 34.09c-0.51,0.21 -0.2,0.81 0.23,0.67 0.41,-0.14 0.21,-0.84 -0.23,-0.67z"/>
   <path class="fil9" d="M44.28 33.11c-0.01,0.7 0.66,0.53 0.71,0.21 0.03,-0.19 -0.1,-0.4 -0.26,-0.44 -0.21,-0.05 -0.33,0.13 -0.45,0.23z"/>
   <path class="fil9" d="M28.04 33.34l-0.01 0.36c0.14,0.1 0.2,0.2 0.41,0.16 0.41,-0.07 0.34,-0.65 0.01,-0.7 -0.21,-0.03 -0.27,0.08 -0.41,0.18z"/>
   <path class="fil9" d="M42.86 34.3c0.13,0.11 0.19,0.23 0.43,0.15 0.18,-0.06 0.33,-0.21 0.24,-0.47 -0.1,-0.27 -0.73,-0.39 -0.66,0.31z"/>
   <path class="fil9" d="M43.4 32.86c-0.57,0.28 -0.17,0.79 0.21,0.65 0.4,-0.14 0.17,-0.84 -0.21,-0.65z"/>
  </g>
 </g>
</svg>
