<?xml version="1.0" encoding="UTF-8"?>
<!DOCTYPE svg PUBLIC "-//W3C//DTD SVG 1.1//EN" "http://www.w3.org/Graphics/SVG/1.1/DTD/svg11.dtd">
<!-- Creator: CorelDRAW 2020 (64-Bit) -->
<svg xmlns="http://www.w3.org/2000/svg" xml:space="preserve" width="33.161mm" height="33.1611mm" version="1.1"
     style="shape-rendering:geometricPrecision; text-rendering:geometricPrecision; image-rendering:optimizeQuality; fill-rule:evenodd; clip-rule:evenodd"
     viewBox="0 0 68.85 68.85"
>
 <defs>
  <style type="text/css">
   <![CDATA[
    .str0 {stroke:black;stroke-width:0.16;stroke-miterlimit:22.9256}
    .str2 {stroke:black;stroke-width:0.42;stroke-linecap:round;stroke-miterlimit:22.9256}
    .str1 {stroke:white;stroke-width:0.16;stroke-linecap:round;stroke-miterlimit:22.9256}
    .str3 {stroke:black;stroke-width:0.42;stroke-linecap:round;stroke-linejoin:round;stroke-miterlimit:22.9256}
    .fil0 {fill:none}
    .fil10 {fill:#040404}
    .fil6 {fill:#333333}
    .fil3 {fill:#3B0802}
    .fil1 {fill:#691A12}
    .fil7 {fill:#848987}
    .fil2 {fill:#9C1919}
    .fil5 {fill:#B3B3B3}
    .fil4 {fill:#E3BF64}
    .fil9 {fill:#F9A9AD}
    .fil11 {fill:#FF0011}
    .fil8 {fill:white}
   ]]>
  </style>
 </defs>
 <g id="Слой_x0020_1">
  <metadata id="CorelCorpID_0Corel-Layer"/>
  <rect class="fil0" x="-0" y="-0" width="68.85" height="68.85"/>
 </g>
 <g id="close">
  <metadata id="CorelCorpID_1Corel-Layer"/>
  <g id="_2152065819696">
   <path class="fil1 str0" d="M46.74 37.07c0,0 -1.61,-0.05 -1.94,-0.7 -0.33,-0.65 0.5,-0.79 0.27,-1.59 -0.23,-0.8 -3.55,-0.78 -5.42,0.15 -3.12,1.56 -3.7,-1.02 -5.49,-1.14 -2.29,-0.16 -5.76,1.23 -7.73,2.53 -0.25,0.17 -2.38,1.44 -3.98,2.8 -0.53,0.45 -1.77,0.48 -2.1,0.92 0.23,1.04 0.28,1.39 0.38,1.72 0.2,0.19 0.72,0.64 1.24,0.74 1.64,0.32 3.88,-0.05 5.06,-0.44 1.26,-1.18 4.06,-1.79 4.86,-1.41 0.13,0.61 0.12,0.55 0.2,0.97 0.05,0.28 2.12,0.55 4.12,0.03 2.2,-0.58 4.53,-1.95 5.53,-2.36 1.9,-0.78 2.4,-1.17 3.13,-1.26 0.73,-0.09 1.88,-0.96 1.88,-0.96z"/>
   <path class="fil2 str0" d="M46.4 35.44c0,0 -0.95,0.26 -1.29,-0.39 -0.33,-0.65 0.16,-1.03 -0.39,-1.9 -0.54,-0.86 -3.55,-0.78 -5.42,0.15 -3.12,1.56 -3.7,-1.02 -5.49,-1.14 -2.29,-0.16 -5.76,1.23 -7.73,2.53 -0.52,0.34 -8.88,5.31 -4.46,6.17 1.64,0.32 3.88,-0.05 5.06,-0.44 1.26,-1.18 4.21,-1.74 5,-1.35 0.8,0.39 -0.26,0.49 0.07,0.99 0.16,0.24 2.09,0.48 4.1,-0.05 2.2,-0.58 4.53,-1.95 5.53,-2.36 1.9,-0.78 2.26,-0.54 2.99,-0.63 0.73,-0.09 2.02,-1.6 2.02,-1.6z"/>
   <path class="fil3 str0" d="M44.45 37.99c0,0 1.48,-0.6 3.43,-0.46 1.95,0.14 11.12,-0.07 11.12,-0.07l1.78 -1.74 -0.42 -0.6 -19.59 0.4 -1.59 1.41 5 -0.09 0.27 1.16z"/>
   <path class="fil4 str0" d="M29.01 37.74c0,0 0.87,0.19 0.51,0.69 -0.36,0.5 2.4,-0.72 2.86,0.06 0.46,0.78 0.14,1.19 1.21,1.11 1.07,-0.08 4.32,-1.85 5.8,-1.84 1.48,0 2.79,-1.34 2.79,-1.34l-12.01 0 -1.15 1.32z"/>
   <polygon class="fil5 str0" points="58.94,36.55 39.19,36.92 40.78,35.51 60.36,35.11 "/>
   <path class="fil4 str0" d="M21.94 38.52l0.47 1.23c0.12,0.33 0.41,0.53 0.76,0.55l1.21 0.04 -0.98 -2.33 -1.46 0.51z"/>
   <path class="fil6 str0" d="M60.36 35.11c0,0 1.97,0.06 2.5,-0.05 0.53,-0.11 1.18,-0.4 2.12,-1.01 1.42,-0.92 4.19,2.05 0.21,2.78 -2.64,0.48 -6.19,0.62 -6.19,0.62l-0.21 -0.9 1.57 -1.44z"/>
   <path class="fil0 str0" d="M58.79 36.56c0,0 4.04,0.02 5.16,-0.4 1.13,-0.42 2.27,-0.51 2.73,-1.08 0.47,-0.57 0.29,-0.46 0.29,-0.46"/>
   <polygon class="fil7 str0" points="36.77,35.2 34.33,37.04 35.87,37.12 38.26,35.22 "/>
   <polygon class="fil7 str0" points="39.99,35.04 37.55,36.88 39.1,36.96 41.48,35.06 "/>
   <polygon class="fil7" points="29.46,34.78 26.49,37.38 27.52,37.34 30.58,34.79 "/>
   <line class="fil0 str1" x1="27.51" y1="35.32" x2="64.78" y2= "35.04" />
   <line class="fil0 str1" x1="26.88" y1="35.73" x2="63.85" y2= "35.36" />
   <line class="fil0 str1" x1="26.39" y1="36.22" x2="63.02" y2= "35.74" />
   <line class="fil0 str1" x1="25.88" y1="36.68" x2="61.64" y2= "36.1" />
   <path class="fil5 str0" d="M60.21 36.91c0,0 -0.29,0.06 -0.37,0.3 -0.19,0.57 0.95,0.33 1.01,0.31 0.5,-0.11 0.31,-0.57 -0.05,-0.63 -0.3,-0.06 -0.6,0.02 -0.6,0.02z"/>
   <path class="fil5 str0" d="M62.6 36.78c-0.32,0.17 -0.32,0.34 -0.22,0.55 0.13,0.3 1.37,0.26 1.21,-0.24 -0.05,-0.14 -0.12,-0.25 -0.5,-0.35 -0.38,-0.1 -0.49,0.04 -0.49,0.04z"/>
   <path class="fil5 str0" d="M65.09 36.08c-0.2,0.45 -0.24,0.45 -0.12,0.7 0.11,0.25 0.69,0.21 0.9,0.06 0.31,-0.21 0.54,-0.61 0.09,-0.71 -0.32,-0.07 -0.13,-0.28 -0.87,-0.05z"/>
   <line class="fil0 str0" x1="20.39" y1="40.18" x2="20.74" y2= "41.81" />
   <line class="fil0 str0" x1="26.68" y1="40.44" x2="27.02" y2= "42.07" />
   <line class="fil0 str0" x1="31.76" y1="40.08" x2="32.07" y2= "41.55" />
  </g>
  <path class="fil8" d="M25.29 35.03c0,0 -1.52,-3.1 -0.03,-4.2 1.5,-1.1 3,1.17 2.99,1.17l-0.85 -1.14 2.79 -2.94c0.49,-0.51 1.51,-1.14 1.69,-1.18 0.18,-0.04 1.02,-2.1 1.2,-2.03 0.18,0.07 1.35,0.92 1.77,1.43 0.17,0.21 1.15,-0.22 3.69,0.24 2.54,0.46 4.22,1.1 4.57,1.23 0.35,0.13 2.09,-1.45 2.23,-1.39 0.12,0.05 0.72,1.77 0.51,4.06 -0.03,0.31 -0.12,0.6 0.02,0.72 1.22,1.11 3.07,3.96 2.38,3.97l-4.3 0.04c-0.75,0.64 -1.43,1.73 -2.25,1.91l-0.83 0.19c-0.25,0.06 -0.91,-0.55 -0.79,-0.84l0.5 -1.22 -15.27 -0.01z"/>
  <path class="fil9" d="M26.59 32.37c-1.06,0.24 -0.59,1.49 0.2,1.33 0.89,-0.18 0.58,-1.5 -0.2,-1.33z"/>
  <path class="fil10" d="M33.05 31.88c-0.39,0.46 0.54,1.09 1.3,0.45 0.14,0.09 0.05,0.04 0.17,0.15 0.06,0.05 0.09,0.09 0.17,0.13 0.63,0.34 1.49,-0.08 1.18,-0.38 -0.28,-0.14 -0.5,0.14 -0.83,0.08 -0.35,-0.06 -0.3,-0.43 -0.55,-0.51 -0.22,-0.07 -0.41,0.26 -0.65,0.35 -0.54,0.21 -0.32,-0.28 -0.79,-0.27z"/>
  <path class="fil10" d="M31.53 31.32c-0.34,0.09 -0.5,0.3 -0.46,0.71 0.04,0.35 0.27,0.59 0.65,0.46 0.77,-0.26 0.4,-1.33 -0.2,-1.17z"/>
  <path class="fil10" d="M38.94 31.93c-0.69,0.2 -0.61,1.22 0.09,1.07 0.73,-0.16 0.37,-1.2 -0.09,-1.07z"/>
  <path class="fil9" d="M26.12 31.62c-0.13,-0.11 -0.25,-0.24 -0.47,-0.17 -0.14,0.05 -0.25,0.23 -0.18,0.44 0.12,0.33 0.69,0.38 0.65,-0.27z"/>
  <path class="fil9" d="M25.42 32.37c-0.49,0.2 -0.19,0.77 0.22,0.63 0.39,-0.13 0.2,-0.8 -0.22,-0.63z"/>
  <path class="fil9" d="M26.57 31.66l-0.01 0.34c0.13,0.09 0.19,0.19 0.39,0.15 0.39,-0.07 0.33,-0.61 0.01,-0.66 -0.2,-0.03 -0.26,0.08 -0.39,0.17z"/>
  <g id="_2152037213904">
   <path class="fil0 str2" d="M40.82 34.5c0,0 -0.18,0.26 -0.35,0.61 -0.34,0.69 -0.68,1.75 0.3,1.97 1.48,0.33 2.75,-2.25 4.4,-2.25"/>
   <g>
    <path class="fil0 str3" d="M40.49 35.08l-15.25 0.05c0,0 -1.52,-3.1 -0.03,-4.2 1.5,-1.1 3,1.17 2.99,1.17l-0.85 -1.14 2.79 -2.94c0.49,-0.51 1.51,-1.14 1.69,-1.18 0.18,-0.04 1.02,-2.1 1.2,-2.03 0.18,0.07 1.35,0.92 1.77,1.43 0.17,0.21 1.15,-0.22 3.69,0.24 2.54,0.46 4.22,1.1 4.57,1.23 0.35,0.13 2.09,-1.45 2.23,-1.39 0.12,0.05 0.72,1.77 0.51,4.06 -0.03,0.31 -0.12,0.6 0.02,0.72 1.22,1.11 3.07,3.97 2.38,3.97l-3.93 0.01"/>
    <path class="fil11" d="M38.56 38.17c0.23,0.08 1.13,-0.44 1.07,-0.67 -0.08,-0.28 -0.37,-0.1 -0.5,0.01 -0.39,0.33 -0.84,0.45 -0.57,0.65z"/>
    <path class="fil11" d="M41.54 37.99l0.03 0.04c0.17,0.24 0.42,0.62 0.58,0.26 0.05,-0.17 0.04,-0.13 -0.09,-0.33 -0.5,-0.73 -0.72,-0.25 -0.52,0.03z"/>
    <path class="fil11" d="M40.31 37.92c-0.33,0.69 0.14,0.82 0.31,0.52 0.04,-0.07 0.14,-0.51 0.11,-0.61 -0.07,-0.24 -0.32,-0.13 -0.42,0.09z"/>
   </g>
  </g>
 </g>
</svg>
