<?xml version="1.0" encoding="UTF-8"?>
<!DOCTYPE svg PUBLIC "-//W3C//DTD SVG 1.1//EN" "http://www.w3.org/Graphics/SVG/1.1/DTD/svg11.dtd">
<!-- Creator: CorelDRAW 2020 (64-Bit) -->
<svg xmlns="http://www.w3.org/2000/svg" xml:space="preserve" width="33.161mm" height="33.1611mm" version="1.1" style="shape-rendering:geometricPrecision; text-rendering:geometricPrecision; image-rendering:optimizeQuality; fill-rule:evenodd; clip-rule:evenodd"
viewBox="0 0 76.53 76.53"
 xmlns:xlink="http://www.w3.org/1999/xlink"
 xmlns:xodm="http://www.corel.com/coreldraw/odm/2003">
 <defs>
  <style type="text/css">
   <![CDATA[
    .str0 {stroke:black;stroke-width:0.33;stroke-miterlimit:22.9256}
    .str1 {stroke:black;stroke-width:0.18;stroke-miterlimit:22.9256}
    .str4 {stroke:black;stroke-width:0.46;stroke-linecap:round;stroke-miterlimit:22.9256}
    .str2 {stroke:#E6E6E6;stroke-width:0.18;stroke-linecap:round;stroke-miterlimit:22.9256}
    .str3 {stroke:black;stroke-width:0.46;stroke-linecap:round;stroke-linejoin:round;stroke-miterlimit:22.9256}
    .fil0 {fill:none}
    .fil13 {fill:#040404}
    .fil6 {fill:#1A1A1A}
    .fil4 {fill:#3C2201}
    .fil7 {fill:#3F1703}
    .fil3 {fill:#5B3313}
    .fil5 {fill:#6D3F15}
    .fil10 {fill:gray}
    .fil8 {fill:#99612C}
    .fil1 {fill:#CD9D43}
    .fil9 {fill:#E6E6E6}
    .fil2 {fill:#F5CB76}
    .fil12 {fill:#F9A9AD}
    .fil11 {fill:white}
   ]]>
  </style>
 </defs>
 <g id="Слой_x0020_1">
  <metadata id="CorelCorpID_0Corel-Layer"/>
  <rect class="fil0" x="-0" y="-0" width="76.53" height="76.53"/>
 </g>
 <g id="close">
  <metadata id="CorelCorpID_1Corel-Layer"/>
  <g id="_2152227169680">
   <path class="fil1 str0" d="M33.92 35.82c-2.89,0.9 -11.98,6.74 -12.35,10.07 0.47,2.55 0.7,3.36 1.02,4.9 0,0 3.83,1.98 9.36,0.03 5.53,-1.95 7.45,-1.24 9.09,-0.92 1.64,0.32 6.19,-0.85 9.11,-3.07 2.92,-2.22 4.15,-4.04 4.22,-4.37 0.07,-0.33 -0.58,-4.32 -1.11,-5.17 -0.54,-0.85 -2.44,-0.94 -4.77,-0.36 -2.33,0.58 -5.54,-1.15 -6.92,-1.66 -1.88,-0.69 -6.06,0.05 -7.65,0.54z"/>
   <path class="fil2" d="M33.98 35.92c-2.24,0.7 -11.8,6.58 -12.16,9.91 0.63,3.48 9.74,0.42 11.4,-0.05 7.12,-2.02 7.82,1.71 14.88,-2.66 2.46,-1.52 3.55,-2.26 5.01,-5.46 0.4,-0.87 -2.14,-1.16 -4.46,-0.58 -2.33,0.58 -5.81,-1.25 -7.21,-1.69 -1.87,-0.59 -5.22,-0.17 -7.46,0.53z"/>
   <path class="fil3" d="M38.8 38.72l1.18 0.1c0,0 -1.04,0.73 -1.04,1.37 -0,0.65 -2.3,2.04 -2.43,2.07 -0.13,0.03 -0.41,-0.04 -0.69,0.2 -0.28,0.23 -1.12,0.97 -1.12,0.97l-1.26 -0.07 5.37 -4.65z"/>
   <ellipse class="fil4 str1" transform="matrix(1.11077 -0.343868 0.328507 0.853322 43.2452 41.0984)" rx="3.06" ry="1.41"/>
   <path class="fil5 str1" d="M46.16 41.77l3.67 0.17 0.33 1.72 0.67 0.21c0,0 1.07,-1.24 2.05,-1.38 0.99,-0.14 9.21,-0.26 9.21,-0.26l-0.05 -0.55 1.34 -1.26 -15.66 -0.13 -1.58 1.49z"/>
   <path class="fil6 str1" d="M62.1 42.23c0,0 1.15,-0.02 1.69,0.15 0.27,0.08 3.51,0.31 4.38,0.27 0.54,-0.02 1.55,-0.68 1.97,-1.76 -0.08,-0.26 0,-0.46 -0.13,-0.89 -0.77,-0.63 -3.57,0.05 -3.99,0.09 -0.41,0.03 -1.74,0.3 -1.74,0.3l-0.89 0.03 -1.34 1.26 0.05 0.55z"/>
   <path class="fil7" d="M38.56 41.86c-0.15,0.01 -4.33,2.27 -4.25,2.52 0.22,0.73 3.09,-0.06 3.69,-0.15 0.51,-0.07 2.05,0.26 2.15,0.26 0.1,-0 2.39,-0.45 2.99,-0.68 0.6,-0.23 2.82,-1.48 2.58,-1.5l-0.95 -0.06c-1.32,0.5 -3.57,0.94 -4.44,0.59 -0.87,-0.35 -0.86,-0.95 -0.86,-0.95l-0.9 -0.04z"/>
   <polygon class="fil8 str1" points="47.74,40.28 46.16,41.77 62.06,41.61 63.3,40.45 "/>
   <line class="fil0 str1" x1="47.16" y1="41.74" x2="48.68" y2= "40.28" />
   <line class="fil0 str1" x1="48.4" y1="41.81" x2="49.9" y2= "40.32" />
   <line class="fil0 str1" x1="49.96" y1="41.74" x2="51.2" y2= "40.31" />
   <line class="fil0 str1" x1="51.27" y1="41.73" x2="52.46" y2= "40.35" />
   <line class="fil0 str1" x1="52.26" y1="41.75" x2="53.5" y2= "40.33" />
   <line class="fil0 str1" x1="53.68" y1="41.71" x2="54.8" y2= "40.34" />
   <line class="fil0 str1" x1="54.56" y1="41.71" x2="55.65" y2= "40.35" />
   <line class="fil0 str1" x1="55.74" y1="41.66" x2="56.83" y2= "40.31" />
   <line class="fil0 str1" x1="56.6" y1="41.66" x2="57.65" y2= "40.32" />
   <line class="fil0 str1" x1="57.5" y1="41.71" x2="58.6" y2= "40.33" />
   <line class="fil0 str1" x1="58.46" y1="41.69" x2="59.52" y2= "40.35" />
   <line class="fil0 str1" x1="59.45" y1="41.68" x2="60.59" y2= "40.36" />
   <line class="fil0 str1" x1="60.46" y1="41.67" x2="61.62" y2= "40.4" />
   <path class="fil0 str1" d="M62.06 41.61c0,0 1.74,0.19 2.71,0.24 0.97,0.06 2.51,0.14 2.87,0.1 1.47,-0.16 1.29,-0.61 2.37,-1.94"/>
   <polygon class="fil9" points="49,41.48 49.98,40.47 50.61,40.62 49.94,41.32 "/>
   <polygon class="fil9" points="52.77,41.5 53.74,40.49 54.37,40.63 53.7,41.33 "/>
   <polygon class="fil9" points="61.24,41.37 61.98,40.6 62.46,40.71 61.95,41.24 "/>
   <path class="fil10 str1" d="M63.17 42.01c0,0 -0.34,0.19 -0.43,0.36 -0.09,0.17 0.01,0.44 0.17,0.52 0.17,0.07 0.43,0.14 0.72,-0.02 0.29,-0.16 0.2,-0.39 0.06,-0.51 -0.14,-0.12 -0.11,-0.32 -0.11,-0.32l-0.41 -0.03z"/>
   <path class="fil10 str1" d="M64.94 42.28c0,0 -0.34,0.19 -0.43,0.36 -0.09,0.17 0.01,0.44 0.17,0.52 0.17,0.07 0.43,0.14 0.72,-0.02 0.29,-0.17 0.2,-0.39 0.06,-0.51 -0.14,-0.12 -0.11,-0.32 -0.11,-0.32l-0.41 -0.03z"/>
   <path class="fil10 str1" d="M66.72 42.3c0,0 -0.34,0.19 -0.43,0.36 -0.09,0.17 0.01,0.44 0.17,0.52 0.17,0.07 0.43,0.14 0.72,-0.02 0.29,-0.16 0.2,-0.39 0.06,-0.51 -0.14,-0.12 -0.11,-0.32 -0.11,-0.32l-0.41 -0.03z"/>
   <line class="fil0 str2" x1="38.04" y1="39.89" x2="63.31" y2= "40.5" />
   <line class="fil0 str2" x1="37.59" y1="40.3" x2="63.08" y2= "40.72" />
   <line class="fil0 str2" x1="37.14" y1="40.68" x2="62.79" y2= "40.99" />
   <line class="fil0 str2" x1="36.76" y1="41.05" x2="62.49" y2= "41.27" />
   <line class="fil0 str2" x1="36.34" y1="41.48" x2="62.31" y2= "41.51" />
   <line class="fil0 str2" x1="63.31" y1="40.5" x2="68.66" y2= "39.99" />
   <line class="fil0 str2" x1="63.08" y1="40.72" x2="66.91" y2= "40.58" />
   <line class="fil0 str2" x1="62.72" y1="40.99" x2="66.31" y2= "41.11" />
   <line class="fil0 str2" x1="62.42" y1="41.27" x2="66.62" y2= "41.71" />
  </g>
  <path class="fil11" d="M24.75 41.33c0.24,0.12 1.3,-0.35 1.26,-0.61 -0.05,-0.32 -0.39,-0.16 -0.55,-0.05 -0.47,0.32 -0.99,0.39 -0.71,0.65z"/>
  <path class="fil11" d="M27.76 41.99l0.01 0.05c0.04,0.32 0.08,0.82 0.43,0.57 0.14,-0.14 0.11,-0.11 0.09,-0.37 -0.1,-0.98 -0.57,-0.62 -0.52,-0.25z"/>
  <path class="fil11" d="M26.11 41.58c-0.69,0.5 -0.3,0.88 0.02,0.67 0.07,-0.05 0.41,-0.42 0.43,-0.53 0.06,-0.27 -0.24,-0.29 -0.46,-0.14z"/>
  <path class="fil11 str3" d="M32.16 38.87c0,0 -1.54,0.92 -2.56,1.33 -1.02,0.41 -3.82,0.29 -2.11,-1.98l3.02 -4.02 3.11 -3.27c0.54,-0.57 1.68,-1.27 1.88,-1.31 0.2,-0.05 1.14,-2.33 1.33,-2.26 0.19,0.07 1.5,1.02 1.96,1.59 0.19,0.24 1.27,-0.24 4.1,0.27 2.82,0.51 4.69,1.22 5.08,1.37 0.39,0.14 2.32,-1.62 2.48,-1.55 0.13,0.06 0.8,1.96 0.56,4.51 -0.03,0.35 -0.13,0.67 0.02,0.8 1.35,1.23 3.41,4.41 2.64,4.41l-21.51 0.11z"/>
  <path class="fil0 str4" d="M45.41 38.8l-0.72 -2.91c-0.16,-0.65 0.42,-2.05 1.6,-2.07 1.18,-0.02 2.59,1.63 2.59,1.63"/>
  <path class="fil12" d="M46.66 35.6c-1.07,0.52 -0.33,1.69 0.49,1.4 0.34,-0.12 0.6,-0.53 0.44,-0.97 -0.12,-0.32 -0.51,-0.64 -0.93,-0.44z"/>
  <path class="fil13" d="M36.83 35.27c-0.43,0.51 0.59,1.21 1.45,0.5 0.16,0.1 0.06,0.05 0.19,0.16 0.06,0.06 0.1,0.09 0.19,0.14 0.7,0.38 1.66,-0.09 1.31,-0.42 -0.32,-0.16 -0.55,0.16 -0.92,0.09 -0.39,-0.07 -0.33,-0.48 -0.61,-0.56 -0.24,-0.08 -0.46,0.29 -0.73,0.39 -0.6,0.23 -0.36,-0.31 -0.88,-0.31z"/>
  <path class="fil13" d="M35.15 34.64c-0.38,0.1 -0.56,0.33 -0.51,0.79 0.04,0.39 0.3,0.66 0.73,0.51 0.86,-0.29 0.45,-1.48 -0.22,-1.3z"/>
  <path class="fil13" d="M43.38 35.31c-0.77,0.22 -0.68,1.36 0.1,1.19 0.81,-0.18 0.42,-1.34 -0.1,-1.19z"/>
  <path class="fil12" d="M46.75 34.81c-0.01,0.74 0.69,0.56 0.75,0.22 0.03,-0.2 -0.11,-0.42 -0.28,-0.46 -0.22,-0.05 -0.35,0.14 -0.47,0.24z"/>
  <path class="fil12" d="M45.25 36.06c0.14,0.11 0.2,0.24 0.45,0.16 0.19,-0.06 0.35,-0.22 0.25,-0.49 -0.1,-0.29 -0.77,-0.41 -0.7,0.33z"/>
  <path class="fil12" d="M45.82 34.54c-0.6,0.3 -0.18,0.83 0.22,0.69 0.42,-0.15 0.19,-0.89 -0.22,-0.69z"/>
 </g>
</svg>
