<?xml version="1.0" encoding="UTF-8"?>
<!DOCTYPE svg PUBLIC "-//W3C//DTD SVG 1.1//EN" "http://www.w3.org/Graphics/SVG/1.1/DTD/svg11.dtd">
<!-- Creator: CorelDRAW 2020 (64-Bit) -->
<svg xmlns="http://www.w3.org/2000/svg" xml:space="preserve" width="33.161mm" height="33.1611mm" version="1.1" style="shape-rendering:geometricPrecision; text-rendering:geometricPrecision; image-rendering:optimizeQuality; fill-rule:evenodd; clip-rule:evenodd"
viewBox="0 0 72.56 72.56"
 xmlns:xlink="http://www.w3.org/1999/xlink"
 xmlns:xodm="http://www.corel.com/coreldraw/odm/2003">
 <defs>
  <style type="text/css">
   <![CDATA[
    .str0 {stroke:black;stroke-width:0.31;stroke-miterlimit:22.9256}
    .str1 {stroke:black;stroke-width:0.17;stroke-miterlimit:22.9256}
    .str4 {stroke:black;stroke-width:0.44;stroke-linecap:round;stroke-miterlimit:22.9256}
    .str2 {stroke:#E6E6E6;stroke-width:0.17;stroke-linecap:round;stroke-miterlimit:22.9256}
    .str3 {stroke:black;stroke-width:0.44;stroke-linecap:round;stroke-linejoin:round;stroke-miterlimit:22.9256}
    .fil0 {fill:none}
    .fil13 {fill:#040404}
    .fil6 {fill:#1A1A1A}
    .fil4 {fill:#3C2201}
    .fil7 {fill:#3F1703}
    .fil3 {fill:#5B3313}
    .fil5 {fill:#6D3F15}
    .fil10 {fill:gray}
    .fil8 {fill:#99612C}
    .fil1 {fill:#CD9D43}
    .fil9 {fill:#E6E6E6}
    .fil2 {fill:#F5CB76}
    .fil12 {fill:#F9A9AD}
    .fil11 {fill:white}
   ]]>
  </style>
 </defs>
 <g id="close">
  <metadata id="CorelCorpID_0Corel-Layer"/>
  <rect class="fil0" x="-0" y="-0" width="72.56" height="72.56"/>
  <g id="_2152271887392">
   <path class="fil1 str0" d="M32.09 34.09c-2.74,0.86 -11.36,6.39 -11.71,9.55 0.44,2.42 0.66,3.18 0.96,4.65 0,0 3.63,1.87 8.88,0.02 5.25,-1.85 7.07,-1.17 8.62,-0.87 1.56,0.3 5.87,-0.8 8.64,-2.91 2.77,-2.11 3.94,-3.83 4,-4.14 0.07,-0.31 -0.55,-4.1 -1.06,-4.9 -0.51,-0.81 -2.32,-0.89 -4.52,-0.34 -2.21,0.55 -5.25,-1.09 -6.57,-1.57 -1.78,-0.66 -5.75,0.04 -7.25,0.52z"/>
   <path class="fil2" d="M32.14 34.19c-2.12,0.66 -11.19,6.24 -11.53,9.4 0.6,3.3 9.24,0.4 10.81,-0.05 6.75,-1.92 7.41,1.62 14.11,-2.52 2.33,-1.44 3.37,-2.15 4.75,-5.18 0.38,-0.83 -2.03,-1.1 -4.23,-0.55 -2.21,0.55 -5.5,-1.18 -6.84,-1.6 -1.77,-0.56 -4.95,-0.16 -7.07,0.5z"/>
   <path class="fil3" d="M36.72 36.84l1.11 0.1c0,0 -0.98,0.69 -0.99,1.3 -0,0.61 -2.18,1.93 -2.31,1.96 -0.13,0.03 -0.39,-0.03 -0.66,0.19 -0.27,0.22 -1.07,0.92 -1.07,0.92l-1.19 -0.06 5.09 -4.4z"/>
   <ellipse class="fil4 str1" transform="matrix(1.11077 -0.343868 0.328507 0.853322 40.9286 39.1003)" rx="2.9" ry="1.34"/>
   <path class="fil5 str1" d="M43.69 39.74l3.48 0.16 0.31 1.63 0.64 0.2c0,0 1.01,-1.17 1.95,-1.31 0.93,-0.13 8.74,-0.25 8.74,-0.25l-0.04 -0.52 1.27 -1.2 -14.85 -0.12 -1.49 1.41z"/>
   <path class="fil6 str1" d="M58.81 40.17c0,0 1.09,-0.01 1.61,0.14 0.26,0.08 3.33,0.29 4.15,0.25 0.52,-0.02 1.47,-0.64 1.86,-1.66 -0.08,-0.25 0,-0.44 -0.12,-0.84 -0.73,-0.6 -3.39,0.05 -3.78,0.08 -0.39,0.03 -1.65,0.28 -1.65,0.28l-0.84 0.03 -1.27 1.2 0.04 0.52z"/>
   <path class="fil7" d="M36.48 39.82c-0.14,0.01 -4.1,2.15 -4.03,2.39 0.2,0.69 2.93,-0.06 3.49,-0.14 0.48,-0.07 1.94,0.25 2.04,0.24 0.1,-0 2.27,-0.43 2.83,-0.65 0.57,-0.22 2.67,-1.4 2.45,-1.42l-0.9 -0.05c-1.25,0.48 -3.38,0.89 -4.21,0.56 -0.82,-0.33 -0.82,-0.9 -0.82,-0.9l-0.85 -0.04z"/>
   <polygon class="fil8 str1" points="45.19,38.33 43.69,39.74 58.77,39.58 59.94,38.49 "/>
   <line class="fil0 str1" x1="44.64" y1="39.71" x2="46.08" y2= "38.33" />
   <line class="fil0 str1" x1="45.82" y1="39.78" x2="47.23" y2= "38.36" />
   <line class="fil0 str1" x1="47.29" y1="39.71" x2="48.47" y2= "38.35" />
   <line class="fil0 str1" x1="48.54" y1="39.7" x2="49.66" y2= "38.39" />
   <line class="fil0 str1" x1="49.48" y1="39.72" x2="50.66" y2= "38.37" />
   <line class="fil0 str1" x1="50.82" y1="39.68" x2="51.88" y2= "38.38" />
   <line class="fil0 str1" x1="51.66" y1="39.68" x2="52.69" y2= "38.39" />
   <line class="fil0 str1" x1="52.78" y1="39.64" x2="53.81" y2= "38.35" />
   <line class="fil0 str1" x1="53.59" y1="39.64" x2="54.59" y2= "38.36" />
   <line class="fil0 str1" x1="54.44" y1="39.68" x2="55.49" y2= "38.37" />
   <line class="fil0 str1" x1="55.35" y1="39.66" x2="56.36" y2= "38.39" />
   <line class="fil0 str1" x1="56.29" y1="39.65" x2="57.38" y2= "38.4" />
   <line class="fil0 str1" x1="57.26" y1="39.64" x2="58.35" y2= "38.44" />
   <path class="fil0 str1" d="M58.77 39.58c0,0 1.65,0.18 2.57,0.23 0.92,0.05 2.38,0.13 2.72,0.09 1.39,-0.16 1.22,-0.58 2.25,-1.84"/>
   <polygon class="fil9" points="46.39,39.46 47.31,38.51 47.91,38.64 47.28,39.31 "/>
   <polygon class="fil9" points="49.96,39.48 50.88,38.52 51.48,38.65 50.84,39.32 "/>
   <polygon class="fil9" points="58,39.35 58.7,38.63 59.15,38.73 58.67,39.24 "/>
   <path class="fil10 str1" d="M59.82 39.97c0,0 -0.32,0.18 -0.41,0.34 -0.09,0.16 0.01,0.42 0.17,0.49 0.16,0.07 0.41,0.14 0.68,-0.02 0.27,-0.16 0.19,-0.37 0.06,-0.48 -0.13,-0.11 -0.1,-0.3 -0.1,-0.3l-0.39 -0.03z"/>
   <path class="fil10 str1" d="M61.5 40.22c0,0 -0.32,0.18 -0.41,0.34 -0.09,0.16 0.01,0.42 0.17,0.49 0.16,0.07 0.41,0.14 0.68,-0.02 0.27,-0.16 0.19,-0.37 0.06,-0.48 -0.13,-0.11 -0.1,-0.3 -0.1,-0.3l-0.39 -0.03z"/>
   <path class="fil10 str1" d="M63.19 40.24c0,0 -0.32,0.18 -0.41,0.34 -0.09,0.16 0.01,0.42 0.17,0.49 0.16,0.07 0.41,0.14 0.68,-0.02 0.27,-0.16 0.19,-0.37 0.06,-0.48 -0.13,-0.11 -0.1,-0.3 -0.1,-0.3l-0.39 -0.03z"/>
   <line class="fil0 str2" x1="35.99" y1="37.95" x2="59.95" y2= "38.54" />
   <line class="fil0 str2" x1="35.56" y1="38.34" x2="59.73" y2= "38.74" />
   <line class="fil0 str2" x1="35.14" y1="38.7" x2="59.46" y2= "39" />
   <line class="fil0 str2" x1="34.78" y1="39.06" x2="59.17" y2= "39.27" />
   <line class="fil0 str2" x1="34.38" y1="39.47" x2="59.01" y2= "39.49" />
   <line class="fil0 str2" x1="59.95" y1="38.54" x2="65.02" y2= "38.05" />
   <line class="fil0 str2" x1="59.73" y1="38.74" x2="63.37" y2= "38.61" />
   <line class="fil0 str2" x1="59.4" y1="39" x2="62.79" y2= "39.11" />
   <line class="fil0 str2" x1="59.11" y1="39.27" x2="63.1" y2= "39.68" />
  </g>
  <g id="_2152271847408">
   <path class="fil11 str3" d="M26.61 36.96c0,0 -1.61,-3.27 -0.04,-4.43 1.58,-1.16 3.16,1.23 3.16,1.23l-0.9 -1.2 2.94 -3.1c0.51,-0.54 1.59,-1.2 1.78,-1.25 0.19,-0.04 1.08,-2.21 1.26,-2.14 0.18,0.07 1.43,0.96 1.87,1.5 0.18,0.23 1.21,-0.23 3.89,0.25 2.68,0.48 4.45,1.15 4.81,1.29 0.37,0.14 2.2,-1.54 2.35,-1.47 0.13,0.05 0.76,1.86 0.54,4.28 -0.03,0.33 -0.12,0.64 0.02,0.76 1.29,1.17 3.24,4.18 2.51,4.18l-24.19 0.11z"/>
   <path class="fil0 str4" d="M42.97 36.87l-0.68 -2.76c-0.15,-0.61 0.39,-1.95 1.52,-1.96 1.12,-0.02 2.46,1.54 2.46,1.54"/>
   <path class="fil12" d="M28.04 34.06c-1.11,0.25 -0.62,1.57 0.21,1.4 0.94,-0.19 0.61,-1.59 -0.21,-1.4z"/>
   <path class="fil12" d="M44.15 33.83c-1.02,0.5 -0.31,1.61 0.47,1.33 0.32,-0.11 0.57,-0.51 0.42,-0.92 -0.11,-0.31 -0.48,-0.61 -0.89,-0.41z"/>
   <path class="fil13" d="M34.84 33.53c-0.41,0.48 0.57,1.15 1.37,0.47 0.15,0.1 0.06,0.05 0.18,0.15 0.06,0.05 0.1,0.09 0.18,0.13 0.66,0.36 1.57,-0.09 1.24,-0.4 -0.3,-0.15 -0.52,0.15 -0.88,0.09 -0.37,-0.07 -0.32,-0.45 -0.58,-0.53 -0.23,-0.07 -0.44,0.27 -0.69,0.37 -0.56,0.22 -0.34,-0.3 -0.83,-0.29z"/>
   <path class="fil13" d="M33.24 32.94c-0.36,0.1 -0.53,0.32 -0.48,0.75 0.04,0.37 0.29,0.62 0.69,0.49 0.81,-0.28 0.42,-1.4 -0.21,-1.23z"/>
   <path class="fil13" d="M41.05 33.56c-0.73,0.21 -0.65,1.29 0.1,1.13 0.77,-0.17 0.39,-1.27 -0.1,-1.13z"/>
   <path class="fil12" d="M27.53 33.26c-0.14,-0.11 -0.26,-0.26 -0.5,-0.18 -0.15,0.05 -0.26,0.25 -0.18,0.46 0.12,0.35 0.73,0.4 0.68,-0.28z"/>
   <path class="fil12" d="M26.8 34.06c-0.51,0.21 -0.2,0.81 0.23,0.67 0.41,-0.14 0.21,-0.84 -0.23,-0.67z"/>
   <path class="fil12" d="M44.24 33.08c-0.01,0.7 0.65,0.53 0.71,0.21 0.03,-0.19 -0.1,-0.4 -0.26,-0.44 -0.21,-0.05 -0.33,0.13 -0.45,0.23z"/>
   <path class="fil12" d="M28.01 33.31l-0.01 0.36c0.14,0.1 0.2,0.2 0.41,0.16 0.41,-0.07 0.34,-0.65 0.01,-0.7 -0.21,-0.03 -0.27,0.08 -0.41,0.18z"/>
   <path class="fil12" d="M42.82 34.27c0.13,0.11 0.19,0.23 0.43,0.15 0.18,-0.06 0.33,-0.21 0.24,-0.47 -0.1,-0.27 -0.73,-0.39 -0.66,0.31z"/>
   <path class="fil12" d="M43.36 32.83c-0.57,0.28 -0.17,0.79 0.21,0.65 0.4,-0.14 0.17,-0.84 -0.21,-0.65z"/>
  </g>
 </g>
</svg>
