<?xml version="1.0" encoding="UTF-8"?>
<!DOCTYPE svg PUBLIC "-//W3C//DTD SVG 1.1//EN" "http://www.w3.org/Graphics/SVG/1.1/DTD/svg11.dtd">
<!-- Creator: CorelDRAW 2020 (64-Bit) -->
<svg xmlns="http://www.w3.org/2000/svg" xml:space="preserve" width="33.161mm" height="33.1611mm" version="1.1"
     style="shape-rendering:geometricPrecision; text-rendering:geometricPrecision; image-rendering:optimizeQuality; fill-rule:evenodd; clip-rule:evenodd"
     viewBox="0 0 68.79 68.79"
>
 <defs>
  <style type="text/css">
   <![CDATA[
    .str0 {stroke:black;stroke-width:0.29;stroke-miterlimit:22.9256}
    .str1 {stroke:black;stroke-width:0.16;stroke-miterlimit:22.9256}
    .str3 {stroke:black;stroke-width:0.41;stroke-linecap:round;stroke-miterlimit:22.9256}
    .str2 {stroke:#E6E6E6;stroke-width:0.16;stroke-linecap:round;stroke-miterlimit:22.9256}
    .str4 {stroke:black;stroke-width:0.41;stroke-linecap:round;stroke-linejoin:round;stroke-miterlimit:22.9256}
    .fil0 {fill:none}
    .fil13 {fill:#040404}
    .fil6 {fill:#1A1A1A}
    .fil4 {fill:#3C2201}
    .fil7 {fill:#3F1703}
    .fil3 {fill:#5B3313}
    .fil5 {fill:#6D3F15}
    .fil10 {fill:gray}
    .fil8 {fill:#99612C}
    .fil1 {fill:#CD9D43}
    .fil9 {fill:#E6E6E6}
    .fil2 {fill:#F5CB76}
    .fil12 {fill:#F9A9AD}
    .fil14 {fill:white}
    .fil11 {fill:white}
   ]]>
  </style>
 </defs>
 <g id="Слой_x0020_1">
  <metadata id="CorelCorpID_0Corel-Layer"/>
  <rect class="fil0" x="-0" y="-0" width="68.79" height="68.79"/>
 </g>
 <g id="close">
  <metadata id="CorelCorpID_1Corel-Layer"/>
  <g id="_2152227127152">
   <path class="fil1 str0" d="M30.42 32.32c-2.6,0.81 -10.77,6.06 -11.1,9.06 0.42,2.3 0.63,3.02 0.91,4.4 0,0 3.44,1.78 8.42,0.02 4.98,-1.75 6.7,-1.11 8.17,-0.82 1.48,0.29 5.56,-0.76 8.19,-2.76 2.63,-2 3.73,-3.63 3.8,-3.93 0.06,-0.3 -0.52,-3.88 -1,-4.65 -0.48,-0.76 -2.2,-0.84 -4.29,-0.32 -2.09,0.52 -4.98,-1.03 -6.22,-1.49 -1.69,-0.62 -5.45,0.04 -6.88,0.49z"/>
   <path class="fil2" d="M30.47 32.41c-2.01,0.63 -10.6,5.92 -10.93,8.91 0.57,3.13 8.76,0.37 10.25,-0.05 6.4,-1.82 7.03,1.53 13.38,-2.39 2.21,-1.37 3.19,-2.04 4.51,-4.91 0.36,-0.78 -1.92,-1.04 -4.01,-0.52 -2.09,0.52 -5.22,-1.12 -6.48,-1.52 -1.68,-0.53 -4.7,-0.15 -6.71,0.48z"/>
   <path class="fil3" d="M34.81 34.93l1.06 0.09c0,0 -0.93,0.65 -0.93,1.23 -0,0.58 -2.07,1.83 -2.19,1.86 -0.12,0.03 -0.37,-0.03 -0.62,0.18 -0.25,0.21 -1.01,0.87 -1.01,0.87l-1.13 -0.06 4.83 -4.18z"/>
   <ellipse class="fil4 str1" transform="matrix(1.11077 -0.343868 0.328507 0.853322 38.8007 37.0661)" rx="2.75" ry="1.27"/>
   <path class="fil5 str1" d="M41.42 37.67l3.3 0.15 0.29 1.54 0.61 0.19c0,0 0.96,-1.11 1.85,-1.24 0.89,-0.12 8.28,-0.23 8.28,-0.23l-0.04 -0.49 1.21 -1.13 -14.08 -0.12 -1.42 1.34z"/>
   <path class="fil6 str1" d="M55.75 38.08c0,0 1.03,-0.01 1.52,0.14 0.24,0.07 3.16,0.27 3.93,0.24 0.49,-0.02 1.39,-0.61 1.77,-1.58 -0.08,-0.24 0,-0.41 -0.11,-0.8 -0.69,-0.57 -3.21,0.05 -3.58,0.08 -0.37,0.03 -1.56,0.27 -1.56,0.27l-0.8 0.03 -1.21 1.13 0.04 0.49z"/>
   <path class="fil7" d="M34.59 37.75c-0.13,0.01 -3.89,2.04 -3.82,2.27 0.19,0.66 2.78,-0.06 3.31,-0.13 0.46,-0.07 1.84,0.23 1.93,0.23 0.09,-0 2.15,-0.4 2.69,-0.61 0.54,-0.21 2.53,-1.33 2.32,-1.34l-0.85 -0.05c-1.18,0.45 -3.21,0.84 -3.99,0.53 -0.78,-0.31 -0.78,-0.85 -0.78,-0.85l-0.81 -0.03z"/>
   <polygon class="fil8 str1" points="42.84,36.33 41.42,37.67 55.71,37.52 56.83,36.48 "/>
   <line class="fil0 str1" x1="42.32" y1="37.65" x2="43.69" y2= "36.33" />
   <line class="fil0 str1" x1="43.44" y1="37.71" x2="44.78" y2= "36.36" />
   <line class="fil0 str1" x1="44.83" y1="37.64" x2="45.95" y2= "36.36" />
   <line class="fil0 str1" x1="46.01" y1="37.63" x2="47.08" y2= "36.4" />
   <line class="fil0 str1" x1="46.9" y1="37.65" x2="48.02" y2= "36.38" />
   <line class="fil0 str1" x1="48.18" y1="37.61" x2="49.18" y2= "36.39" />
   <line class="fil0 str1" x1="48.97" y1="37.62" x2="49.95" y2= "36.39" />
   <line class="fil0 str1" x1="50.03" y1="37.57" x2="51.02" y2= "36.35" />
   <line class="fil0 str1" x1="50.8" y1="37.57" x2="51.75" y2= "36.36" />
   <line class="fil0 str1" x1="51.61" y1="37.61" x2="52.6" y2= "36.38" />
   <line class="fil0 str1" x1="52.47" y1="37.6" x2="53.43" y2= "36.39" />
   <line class="fil0 str1" x1="53.37" y1="37.59" x2="54.39" y2= "36.4" />
   <line class="fil0 str1" x1="54.28" y1="37.58" x2="55.31" y2= "36.44" />
   <path class="fil0 str1" d="M55.71 37.52c0,0 1.56,0.17 2.44,0.22 0.88,0.05 2.26,0.12 2.58,0.09 1.32,-0.15 1.16,-0.55 2.13,-1.75"/>
   <polygon class="fil9" points="43.98,37.41 44.85,36.5 45.42,36.63 44.82,37.27 "/>
   <polygon class="fil9" points="47.36,37.42 48.24,36.51 48.8,36.64 48.2,37.28 "/>
   <polygon class="fil9" points="54.98,37.31 55.65,36.62 56.08,36.72 55.62,37.2 "/>
   <path class="fil10 str1" d="M56.71 37.89c0,0 -0.3,0.17 -0.39,0.32 -0.08,0.15 0.01,0.4 0.16,0.47 0.15,0.07 0.39,0.13 0.65,-0.02 0.26,-0.15 0.18,-0.35 0.05,-0.46 -0.12,-0.11 -0.1,-0.28 -0.1,-0.28l-0.37 -0.03z"/>
   <path class="fil10 str1" d="M58.3 38.13c0,0 -0.3,0.17 -0.39,0.32 -0.08,0.15 0.01,0.4 0.16,0.47 0.15,0.07 0.39,0.13 0.65,-0.02 0.26,-0.15 0.18,-0.35 0.05,-0.46 -0.12,-0.11 -0.1,-0.28 -0.1,-0.28l-0.37 -0.03z"/>
   <path class="fil10 str1" d="M59.9 38.14c0,0 -0.3,0.17 -0.39,0.32 -0.08,0.15 0.01,0.4 0.16,0.47 0.15,0.07 0.39,0.13 0.65,-0.02 0.26,-0.15 0.18,-0.35 0.05,-0.46 -0.12,-0.11 -0.1,-0.28 -0.1,-0.28l-0.37 -0.03z"/>
   <line class="fil0 str2" x1="34.12" y1="35.98" x2="56.83" y2= "36.53" />
   <line class="fil0 str2" x1="33.71" y1="36.35" x2="56.63" y2= "36.73" />
   <line class="fil0 str2" x1="33.32" y1="36.69" x2="56.37" y2= "36.97" />
   <line class="fil0 str2" x1="32.97" y1="37.02" x2="56.1" y2= "37.22" />
   <line class="fil0 str2" x1="32.59" y1="37.41" x2="55.94" y2= "37.44" />
   <line class="fil0 str2" x1="56.83" y1="36.53" x2="61.64" y2= "36.07" />
   <line class="fil0 str2" x1="56.63" y1="36.73" x2="60.07" y2= "36.6" />
   <line class="fil0 str2" x1="56.31" y1="36.97" x2="59.53" y2= "37.08" />
   <line class="fil0 str2" x1="56.03" y1="37.22" x2="59.82" y2= "37.61" />
  </g>
  <path class="fil11" d="M25.27 34.9c0,0 -1.52,-3.1 -0.03,-4.2 1.5,-1.1 2.99,1.17 2.99,1.17l-0.85 -1.14 2.79 -2.94c0.49,-0.51 1.51,-1.14 1.69,-1.18 0.18,-0.04 1.02,-2.1 1.2,-2.03 0.17,0.07 1.35,0.92 1.77,1.43 0.17,0.21 1.15,-0.22 3.68,0.24 2.54,0.46 4.21,1.1 4.56,1.23 0.35,0.13 2.09,-1.45 2.23,-1.39 0.12,0.05 0.72,1.77 0.51,4.06 -0.03,0.31 -0.12,0.6 0.02,0.72 1.22,1.11 3.07,3.96 2.37,3.97l-4.29 0.04c-0.75,0.64 -1.42,1.72 -2.25,1.91l-0.83 0.19c-0.25,0.05 -0.91,-0.55 -0.79,-0.84l0.5 -1.22 -15.26 -0.01z"/>
  <path class="fil12" d="M26.57 32.24c-1.05,0.24 -0.59,1.49 0.2,1.33 0.89,-0.18 0.58,-1.5 -0.2,-1.33z"/>
  <path class="fil13" d="M33.02 31.75c-0.38,0.46 0.53,1.09 1.3,0.45 0.14,0.09 0.05,0.04 0.17,0.15 0.06,0.05 0.09,0.09 0.17,0.13 0.62,0.34 1.49,-0.08 1.18,-0.38 -0.28,-0.14 -0.5,0.14 -0.83,0.08 -0.35,-0.06 -0.3,-0.43 -0.55,-0.51 -0.22,-0.07 -0.41,0.26 -0.65,0.35 -0.54,0.21 -0.32,-0.28 -0.79,-0.27z"/>
  <path class="fil13" d="M31.5 31.19c-0.34,0.09 -0.5,0.3 -0.46,0.71 0.04,0.35 0.27,0.59 0.65,0.46 0.77,-0.26 0.4,-1.33 -0.2,-1.17z"/>
  <path class="fil13" d="M38.91 31.79c-0.69,0.2 -0.61,1.22 0.09,1.07 0.73,-0.16 0.37,-1.2 -0.09,-1.07z"/>
  <path class="fil12" d="M26.09 31.49c-0.13,-0.11 -0.25,-0.24 -0.47,-0.17 -0.14,0.05 -0.25,0.23 -0.17,0.44 0.12,0.33 0.69,0.38 0.65,-0.27z"/>
  <path class="fil12" d="M25.4 32.24c-0.48,0.2 -0.19,0.77 0.22,0.63 0.39,-0.13 0.2,-0.8 -0.22,-0.63z"/>
  <path class="fil12" d="M26.55 31.53l-0.01 0.34c0.13,0.09 0.19,0.19 0.39,0.15 0.39,-0.07 0.33,-0.61 0.01,-0.66 -0.2,-0.03 -0.26,0.08 -0.39,0.17z"/>
  <path class="fil0 str3" d="M40.79 34.36c0,0 -0.18,0.26 -0.35,0.61 -0.34,0.69 -0.68,1.75 0.3,1.97 1.48,0.33 2.74,-2.25 4.39,-2.25"/>
  <path class="fil0 str4" d="M40.45 34.95l-15.23 0.05c0,0 -1.52,-3.1 -0.03,-4.2 1.5,-1.1 2.99,1.17 2.99,1.17l-0.85 -1.14 2.79 -2.94c0.49,-0.51 1.51,-1.14 1.69,-1.18 0.18,-0.04 1.02,-2.1 1.2,-2.03 0.17,0.07 1.35,0.92 1.77,1.43 0.17,0.21 1.15,-0.22 3.68,0.24 2.54,0.46 4.21,1.1 4.56,1.23 0.35,0.13 2.09,-1.45 2.23,-1.39 0.12,0.05 0.72,1.77 0.51,4.06 -0.03,0.31 -0.12,0.6 0.02,0.72 1.22,1.11 3.07,3.96 2.37,3.97l-3.92 0.01"/>
  <path class="fil14" d="M38.52 38.03c0.23,0.08 1.13,-0.44 1.07,-0.67 -0.08,-0.28 -0.37,-0.1 -0.5,0.01 -0.39,0.33 -0.84,0.45 -0.57,0.65z"/>
  <path class="fil14" d="M41.51 37.85l0.03 0.04c0.17,0.24 0.42,0.62 0.58,0.26 0.05,-0.17 0.04,-0.13 -0.09,-0.33 -0.5,-0.73 -0.72,-0.25 -0.52,0.03z"/>
  <path class="fil14" d="M40.27 37.78c-0.33,0.69 0.14,0.82 0.31,0.52 0.04,-0.07 0.14,-0.51 0.11,-0.61 -0.07,-0.24 -0.32,-0.13 -0.42,0.09z"/>
 </g>
</svg>
