<?xml version="1.0" encoding="UTF-8"?>
<!DOCTYPE svg PUBLIC "-//W3C//DTD SVG 1.1//EN" "http://www.w3.org/Graphics/SVG/1.1/DTD/svg11.dtd">
<!-- Creator: CorelDRAW 2020 (64-Bit) -->
<svg xmlns="http://www.w3.org/2000/svg" xml:space="preserve" width="53.5554mm" height="10.5817mm" version="1.1"
     style="shape-rendering:geometricPrecision; text-rendering:geometricPrecision; image-rendering:optimizeQuality; fill-rule:evenodd; clip-rule:evenodd"
     viewBox="0 0 263.19 52"
>
 <defs>
  <style type="text/css">
   <![CDATA[
    .fil1 {fill:#0F0F94}
    .fil0 {fill:#0F0F94;fill-rule:nonzero}
   ]]>
  </style>
 </defs>
 <g id="Слой_x0020_1">
  <metadata id="CorelCorpID_0Corel-Layer"/>
  <path class="fil0" d="M86.25 52l0 -5.23c-2.62,0 -4.95,-0.57 -7,-1.7 -2.05,-1.13 -3.67,-2.71 -4.87,-4.74 -1.2,-2.03 -1.8,-4.42 -1.8,-7.16l0 -14.33c0,-2.83 0.59,-5.29 1.77,-7.36 1.18,-2.07 2.8,-3.68 4.87,-4.84 2.07,-1.16 4.42,-1.73 7.03,-1.73l0 -4.91 5.89 0 0 4.91c2.66,0 5.01,0.58 7.06,1.73 2.05,1.16 3.66,2.77 4.84,4.84 1.18,2.07 1.77,4.52 1.77,7.36l0 14.33c0,2.75 -0.6,5.13 -1.8,7.16 -1.2,2.03 -2.82,3.61 -4.87,4.74 -2.05,1.13 -4.38,1.7 -7,1.7l0 5.23 -5.89 0zm0.26 -10.2l0 -31.92c-1.61,0 -3.06,0.36 -4.35,1.08 -1.29,0.72 -2.29,1.74 -3.01,3.07 -0.72,1.33 -1.08,2.93 -1.08,4.81l0 14.33c0,1.79 0.36,3.33 1.08,4.61 0.72,1.29 1.72,2.28 3.01,2.98 1.29,0.7 2.74,1.05 4.35,1.05zm5.36 0c1.66,0 3.12,-0.35 4.38,-1.05 1.26,-0.7 2.26,-1.69 2.98,-2.98 0.72,-1.29 1.08,-2.82 1.08,-4.61l0 -14.33c0,-1.87 -0.36,-3.48 -1.08,-4.81 -0.72,-1.33 -1.71,-2.35 -2.98,-3.07 -1.26,-0.72 -2.73,-1.08 -4.38,-1.08l0 31.92zm18.25 8.9l0 -5.49 1.18 0c1.92,0 3.3,-0.86 4.15,-2.58 0.85,-1.72 1.3,-4.68 1.34,-8.86l0.52 -31.14 24.59 0 0 47.75 -5.89 0 0 -42.39 -12.89 0 -0.46 25.77c-0.09,5.84 -1.01,10.13 -2.78,12.85 -1.77,2.73 -4.52,4.09 -8.27,4.09l-1.5 0zm57.56 0.33c-4.27,0 -7.65,-1.24 -10.14,-3.73 -2.49,-2.49 -3.73,-6.04 -3.73,-10.66l0 -20.28c0,-4.62 1.24,-8.18 3.73,-10.66 2.49,-2.49 5.87,-3.73 10.14,-3.73 4.27,0 7.65,1.24 10.14,3.73 2.49,2.49 3.73,6.02 3.73,10.6l0 20.34c0,4.62 -1.24,8.18 -3.73,10.66 -2.49,2.49 -5.87,3.73 -10.14,3.73zm0 -5.3c2.57,0 4.55,-0.73 5.92,-2.19 1.37,-1.46 2.06,-3.54 2.06,-6.25l0 -21.59c0,-2.7 -0.69,-4.79 -2.06,-6.25 -1.37,-1.46 -3.35,-2.19 -5.92,-2.19 -2.53,0 -4.49,0.73 -5.89,2.19 -1.4,1.46 -2.09,3.54 -2.09,6.25l0 21.59c0,2.7 0.7,4.79 2.09,6.25 1.4,1.46 3.36,2.19 5.89,2.19zm25.64 4.64l0 -47.75 15.37 0c2.97,0 5.54,0.58 7.72,1.73 2.18,1.16 3.87,2.78 5.07,4.87 1.2,2.09 1.8,4.58 1.8,7.46 0,2.83 -0.6,5.31 -1.8,7.42 -1.2,2.12 -2.89,3.75 -5.07,4.91 -2.18,1.16 -4.75,1.73 -7.72,1.73l-9.48 0 0 19.62 -5.89 0zm5.89 -24.92l9.48 0c2.57,0 4.63,-0.8 6.18,-2.39 1.55,-1.59 2.32,-3.72 2.32,-6.38 0,-2.7 -0.77,-4.84 -2.32,-6.41 -1.55,-1.57 -3.61,-2.35 -6.18,-2.35l-9.48 0 0 17.53zm33.36 24.92l0 -47.75 5.89 0 0 20.54 7.06 0 10.6 -20.54 6.41 0 -11.84 23.02 12.49 24.73 -6.74 0 -11.12 -22.04 -6.87 0 0 22.04 -5.89 0z"/>
  <path class="fil1" d="M3.67 44.65l47.4 0c2.02,0 3.67,1.65 3.67,3.67l0 0c0,2.02 -1.65,3.67 -3.67,3.67l-47.4 0c-2.02,0 -3.67,-1.65 -3.67,-3.67l0 -0c0,-2.02 1.65,-3.67 3.67,-3.67z"/>
  <path class="fil1" d="M3.63 0l47.5 0c1.99,0 3.63,1.63 3.63,3.63l0 0c0,1.99 -1.63,3.63 -3.63,3.63l-47.5 0c-1.99,0 -3.63,-1.63 -3.63,-3.63l0 -0c0,-1.99 1.63,-3.63 3.63,-3.63z"/>
  <path class="fil1" d="M3.52 22.48l47.71 0c1.94,0 3.52,1.58 3.52,3.52l0 0c0,1.94 -1.58,3.52 -3.52,3.52l-47.71 0c-1.94,0 -3.52,-1.58 -3.52,-3.52l0 -0c0,-1.94 1.58,-3.52 3.52,-3.52z"/>
 </g>
</svg>
