<?xml version="1.0" encoding="UTF-8"?>
<!DOCTYPE svg PUBLIC "-//W3C//DTD SVG 1.1//EN" "http://www.w3.org/Graphics/SVG/1.1/DTD/svg11.dtd">
<!-- Creator: CorelDRAW 2020 (64-Bit) -->
<svg xmlns="http://www.w3.org/2000/svg" xml:space="preserve" width="70.5556mm" height="70.5574mm" version="1.1" style="shape-rendering:geometricPrecision; text-rendering:geometricPrecision; image-rendering:optimizeQuality; fill-rule:evenodd; clip-rule:evenodd"
viewBox="0 0 6905.25 6905.43"
 xmlns:xlink="http://www.w3.org/1999/xlink"
 xmlns:xodm="http://www.corel.com/coreldraw/odm/2003">
 <defs>
  <style type="text/css">
   <![CDATA[
    .str1 {stroke:black;stroke-width:7.46;stroke-miterlimit:22.9256}
    .str0 {stroke:black;stroke-width:103.58;stroke-linecap:round;stroke-miterlimit:22.9256}
    .fil0 {fill:none}
    .fil2 {fill:black}
    .fil1 {fill:white}
   ]]>
  </style>
 </defs>
 <g id="Слой_x0020_1">
  <metadata id="CorelCorpID_0Corel-Layer"/>
  <rect class="fil0" x="-0.03" y="0" width="6905.25" height="6905.21"/>
  <path class="fil1" d="M2246.27 6905.23c-5.54,-465.16 -53.13,-4075.89 47.92,-4156.71 -103.87,-33.69 -338.46,-187.47 -370.85,-285.91 -32.38,-98.44 -40.49,-504.35 482.79,-714.77 523.27,-210.42 1172.03,-366.84 1873.35,-86.37 701.31,280.47 1185.52,609.03 1540.15,1370.29 354.61,761.26 714.16,3503.23 714.65,3873.47l-4288.01 0z"/>
  <path class="fil0 str0" d="M6531.42 6853.65c0.12,-210.74 -296.34,-3372.66 -955.86,-4246.3 -1385.63,-1950.26 -4195.03,-794.83 -3623.56,-82.79 435.36,500.6 2423.79,680.64 2756.02,-5.74"/>
  <path class="fil0 str0" d="M2247.33 6853.19c-7.71,-318.12 -97.79,-3817.06 63.04,-4096.35"/>
  <path class="fil0 str0" d="M2198.35 4714.19l-385.08 792.25c-144.27,296.79 -385.08,-1327.84 -393.96,-1367.64"/>
  <path class="fil2 str1" d="M4973.82 3702.34c-113.37,48.4 -148.03,204.1 -77.44,347.72 70.67,143.57 219.72,220.7 333.13,172.2 113.36,-48.45 148.03,-204.1 77.43,-347.67 -70.67,-143.62 -219.8,-220.7 -333.12,-172.25z"/>
  <path class="fil0 str0" d="M6182.84 4282.37c57.34,57.54 276.85,179.55 153.41,343.32l-141.05 187.14 -579.8 680.35c-213.92,251.04 -426.1,-1284.9 -434.95,-1324.7"/>
  <path class="fil0 str0" d="M4570.02 3731.25c411.95,-283.58 511.16,56.52 511.16,56.52l-956.02 -22.19"/>
  <path class="fil2 str1" d="M2766.65 2029.71c-54.44,0 -98.53,44.08 -98.53,98.44 0,54.44 44.09,98.49 98.53,98.49 54.36,0 98.49,-44.04 98.49,-98.49 0,-54.36 -44.13,-98.44 -98.49,-98.44z"/>
  <path class="fil2 str1" d="M1219.04 3702.34c-113.37,48.4 -148.03,204.1 -77.44,347.72 70.67,143.57 219.72,220.7 333.13,172.2 113.36,-48.45 148.03,-204.1 77.43,-347.67 -70.67,-143.62 -219.8,-220.7 -333.12,-172.25z"/>
  <path class="fil0 str0" d="M1561.01 3358.37c-199.16,84.13 -234.6,429.4 -234.6,429.4l-956.02 -22.19"/>
  <path class="fil0 str0" d="M4056.4 2249.98c0,0 -163.83,-282.75 -478.3,-23.78"/>
 </g>
</svg>
