<?xml version="1.0" encoding="UTF-8"?>
<!DOCTYPE svg PUBLIC "-//W3C//DTD SVG 1.1//EN" "http://www.w3.org/Graphics/SVG/1.1/DTD/svg11.dtd">
<!-- Creator: CorelDRAW 2020 (64-Bit) -->
<svg xmlns="http://www.w3.org/2000/svg" xml:space="preserve" width="70.5556mm" height="70.5574mm" version="1.1" style="shape-rendering:geometricPrecision; text-rendering:geometricPrecision; image-rendering:optimizeQuality; fill-rule:evenodd; clip-rule:evenodd"
viewBox="0 0 5097.09 5097.22"
 xmlns:xlink="http://www.w3.org/1999/xlink"
 xmlns:xodm="http://www.corel.com/coreldraw/odm/2003">
 <defs>
  <style type="text/css">
   <![CDATA[
    .str1 {stroke:black;stroke-width:5.5;stroke-miterlimit:22.9256}
    .str0 {stroke:black;stroke-width:76.45;stroke-linecap:round;stroke-miterlimit:22.9256}
    .fil0 {fill:none}
    .fil2 {fill:black}
    .fil1 {fill:white}
   ]]>
  </style>
 </defs>
 <g id="Слой_x0020_1">
  <metadata id="CorelCorpID_0Corel-Layer"/>
  <rect class="fil0" x="-0.02" y="0" width="5097.09" height="5097.06"/>
  <path class="fil1" d="M1658.07 5097.07c-4.09,-343.36 -39.22,-3008.6 35.37,-3068.26 -76.67,-24.87 -249.84,-138.38 -273.74,-211.04 -23.9,-72.66 -29.89,-372.29 356.37,-527.61 386.25,-155.32 865.13,-270.79 1382.81,-63.75 517.67,207.03 875.09,449.56 1136.85,1011.48 261.76,561.92 527.16,2585.9 527.52,2859.19l-3165.18 0z"/>
  <path class="fil0 str0" d="M4821.15 5059c0.09,-155.56 -218.74,-2489.52 -705.57,-3134.39 -1022.8,-1439.58 -3096.54,-586.7 -2674.72,-61.11 321.36,369.52 1789.11,502.42 2034.35,-4.24"/>
  <path class="fil0 str0" d="M1658.86 5058.66c-5.69,-234.82 -72.18,-2817.55 46.53,-3023.71"/>
  <path class="fil0 str0" d="M1622.7 3479.76l-284.24 584.79c-106.49,219.07 -284.24,-980.14 -290.8,-1009.52"/>
  <path class="fil2 str1" d="M3671.41 2732.87c-83.69,35.72 -109.27,150.65 -57.17,256.67 52.17,105.98 162.18,162.91 245.9,127.11 83.68,-35.76 109.27,-150.65 57.16,-256.63 -52.17,-106.02 -162.24,-162.91 -245.89,-127.15z"/>
  <path class="fil0 str0" d="M4563.84 3161.02c42.33,42.47 204.36,132.54 113.24,253.42l-104.12 138.13 -427.98 502.2c-157.91,185.3 -314.53,-948.45 -321.06,-977.82"/>
  <path class="fil0 str0" d="M3923.83 2478.97c-147.01,62.1 -173.17,316.96 -173.17,316.96l-705.68 -16.38"/>
  <path class="fil2 str1" d="M2817.71 1539.04c-40.18,0 -72.72,32.54 -72.72,72.66 0,40.19 32.54,72.7 72.72,72.7 40.13,0 72.7,-32.51 72.7,-72.7 0,-40.12 -32.57,-72.66 -72.7,-72.66z"/>
  <path class="fil2 str1" d="M2042.19 1498.22c-40.18,0 -72.73,32.54 -72.73,72.66 0,40.19 32.55,72.7 72.73,72.7 40.12,0 72.7,-32.51 72.7,-72.7 0,-40.12 -32.57,-72.66 -72.7,-72.66z"/>
  <path class="fil2 str1" d="M899.83 2732.87c-83.69,35.72 -109.27,150.65 -57.17,256.67 52.17,105.98 162.18,162.91 245.9,127.11 83.68,-35.76 109.27,-150.65 57.16,-256.63 -52.17,-106.02 -162.24,-162.91 -245.89,-127.15z"/>
  <path class="fil0 str0" d="M1152.26 2478.97c-147.01,62.1 -173.17,316.96 -173.17,316.96l-705.68 -16.38"/>
 </g>
</svg>
