<?xml version="1.0" encoding="UTF-8"?>
<!DOCTYPE svg PUBLIC "-//W3C//DTD SVG 1.1//EN" "http://www.w3.org/Graphics/SVG/1.1/DTD/svg11.dtd">
<!-- Creator: CorelDRAW 2020 (64-Bit) -->
<svg xmlns="http://www.w3.org/2000/svg" xml:space="preserve" width="70.5556mm" height="70.5574mm" version="1.1" style="shape-rendering:geometricPrecision; text-rendering:geometricPrecision; image-rendering:optimizeQuality; fill-rule:evenodd; clip-rule:evenodd"
viewBox="0 0 2110.06 2110.12"
 xmlns:xlink="http://www.w3.org/1999/xlink"
 xmlns:xodm="http://www.corel.com/coreldraw/odm/2003">
 <defs>
  <style type="text/css">
   <![CDATA[
    .str1 {stroke:black;stroke-width:2.28;stroke-miterlimit:22.9256}
    .str0 {stroke:black;stroke-width:31.65;stroke-linecap:round;stroke-miterlimit:22.9256}
    .fil0 {fill:none}
    .fil2 {fill:black}
    .fil1 {fill:white}
   ]]>
  </style>
 </defs>
 <g id="Слой_x0020_1">
  <metadata id="CorelCorpID_0Corel-Layer"/>
  <rect class="fil0" x="-0.01" y="0" width="2110.06" height="2110.05"/>
  <path class="fil1" d="M686.4 2110.06c-1.69,-142.14 -16.24,-1245.48 14.64,-1270.18 -31.74,-10.29 -103.43,-57.29 -113.32,-87.37 -9.89,-30.08 -12.37,-154.12 147.53,-218.42 159.9,-64.3 358.14,-112.1 572.45,-26.39 214.3,85.71 362.27,186.1 470.63,418.73 108.36,232.62 218.23,1070.5 218.38,1183.63l-1310.3 0z"/>
  <path class="fil0 str0" d="M1995.83 2094.29c0.04,-64.4 -90.55,-1030.6 -292.09,-1297.56 -423.41,-595.95 -1281.89,-242.88 -1107.26,-25.3 133.04,152.97 740.65,207.99 842.17,-1.76"/>
  <path class="fil0 str0" d="M686.73 2094.16c-2.36,-97.21 -29.88,-1166.39 19.26,-1251.74"/>
  <path class="fil0 str0" d="M671.76 1440.53l-117.67 242.09c-44.09,90.69 -117.67,-405.75 -120.39,-417.92"/>
  <path class="fil2 str1" d="M1519.87 1131.34c-34.64,14.79 -45.23,62.37 -23.66,106.25 21.6,43.87 67.14,67.44 101.8,52.62 34.64,-14.8 45.23,-62.37 23.66,-106.24 -21.6,-43.89 -67.16,-67.44 -101.79,-52.64z"/>
  <path class="fil0 str0" d="M1889.31 1308.58c17.52,17.58 84.6,54.87 46.88,104.91l-43.1 57.18 -177.17 207.9c-65.37,76.71 -130.21,-392.63 -132.91,-404.79"/>
  <path class="fil0 str0" d="M1624.37 1026.23c-60.86,25.71 -71.69,131.21 -71.69,131.21l-292.13 -6.78"/>
  <path class="fil2 str1" d="M1166.46 637.12c-16.63,0 -30.1,13.47 -30.1,30.08 0,16.64 13.47,30.09 30.1,30.09 16.61,0 30.09,-13.46 30.09,-30.09 0,-16.61 -13.48,-30.08 -30.09,-30.08z"/>
  <path class="fil2 str1" d="M372.51 1131.34c-34.64,14.79 -45.23,62.37 -23.66,106.25 21.6,43.87 67.14,67.44 101.8,52.62 34.64,-14.8 45.23,-62.37 23.66,-106.24 -21.6,-43.89 -67.16,-67.44 -101.79,-52.64z"/>
  <path class="fil0 str0" d="M267.31 1142.55c138.54,-81.91 138.01,14.89 138.01,14.89l-292.13 -6.78"/>
  <path class="fil0 str0" d="M918.49 670.64c0,0 -44.21,-76.31 -129.08,-6.42"/>
 </g>
</svg>
