<?xml version="1.0" encoding="UTF-8"?>
<!DOCTYPE svg PUBLIC "-//W3C//DTD SVG 1.1//EN" "http://www.w3.org/Graphics/SVG/1.1/DTD/svg11.dtd">
<!-- Creator: CorelDRAW 2020 (64-Bit) -->
<svg xmlns="http://www.w3.org/2000/svg" xml:space="preserve" width="69.0219mm" height="9.9827mm" version="1.1"
     style="shape-rendering:geometricPrecision; text-rendering:geometricPrecision; image-rendering:optimizeQuality; fill-rule:evenodd; clip-rule:evenodd"
     viewBox="0 0 584.53 84.54"
>
 <defs>
  <style type="text/css">
   <![CDATA[
    .fil1 {fill:#692D00}
    .fil0 {fill:#692D00;fill-rule:nonzero}
   ]]>
  </style>
 </defs>
 <g id="Слой_x0020_1">
  <metadata id="CorelCorpID_0Corel-Layer"/>
  <path class="fil0" d="M125.53 83.41l21.42 -82.29 13.64 0 21.3 82.29 -10.26 0 -5.41 -21.87 -24.91 0 -5.41 21.87 -10.37 0zm17.81 -30.44l20.74 0 -6.31 -25.36c-1.2,-4.81 -2.14,-8.83 -2.82,-12.06 -0.68,-3.23 -1.09,-5.34 -1.24,-6.31 -0.15,0.98 -0.56,3.08 -1.24,6.31 -0.68,3.23 -1.62,7.21 -2.82,11.95l-6.31 25.48zm54.78 30.44l0 -82.29 45.77 0 0 9.24 -35.62 0 0 24.35 13.64 0c5.26,0 9.77,1.01 13.53,3.04 3.76,2.03 6.67,4.87 8.74,8.51 2.07,3.64 3.1,7.91 3.1,12.79 0,4.88 -1.03,9.15 -3.1,12.79 -2.07,3.64 -4.98,6.48 -8.74,8.51 -3.76,2.03 -8.27,3.04 -13.53,3.04l-23.78 0zm10.14 -9.24l13.64 0c4.66,0 8.3,-1.37 10.93,-4.11 2.63,-2.74 3.95,-6.41 3.95,-10.99 0,-4.66 -1.32,-8.34 -3.95,-11.05 -2.63,-2.71 -6.27,-4.06 -10.93,-4.06l-13.64 0 0 30.21zm57.26 9.24l0 -82.29 26.49 0c5.11,0 9.54,1 13.3,2.99 3.76,1.99 6.67,4.79 8.74,8.4 2.07,3.61 3.1,7.89 3.1,12.85 0,4.88 -1.03,9.15 -3.1,12.79 -2.07,3.64 -4.98,6.46 -8.74,8.45 -3.76,1.99 -8.19,2.99 -13.3,2.99l-16.34 0 0 33.82 -10.15 0zm10.15 -42.95l16.34 0c4.43,0 7.98,-1.37 10.65,-4.11 2.67,-2.74 4,-6.41 4,-10.99 0,-4.66 -1.33,-8.34 -4,-11.05 -2.67,-2.71 -6.22,-4.06 -10.65,-4.06l-16.34 0 0 30.21zm57.26 42.95l0 -82.29 9.81 0 0 46.22c0,2.71 -0.06,5.58 -0.17,8.62 -0.11,3.04 -0.24,5.94 -0.39,8.68 -0.15,2.74 -0.3,5.05 -0.45,6.93l25.02 -70.45 13.53 0 0 82.29 -9.81 0 0 -46.22c0,-2.78 0.06,-5.69 0.17,-8.74 0.11,-3.04 0.26,-5.94 0.45,-8.68 0.19,-2.74 0.36,-5.02 0.51,-6.82l-25.14 70.45 -13.53 0zm67.86 0l0 -82.29 10.15 0 0 35.39 12.17 0 18.26 -35.39 11.05 0 -20.4 39.68 21.53 42.61 -11.61 0 -19.16 -37.99 -11.84 0 0 37.99 -10.15 0zm91.08 1.13c-7.36,0 -13.19,-2.14 -17.47,-6.43 -4.28,-4.28 -6.43,-10.41 -6.43,-18.37l0 -34.94c0,-7.97 2.14,-14.09 6.43,-18.37 4.28,-4.28 10.11,-6.43 17.47,-6.43 7.36,0 13.19,2.14 17.47,6.43 4.28,4.28 6.42,10.37 6.42,18.26l0 35.06c0,7.97 -2.14,14.09 -6.42,18.37 -4.28,4.28 -10.11,6.43 -17.47,6.43zm0 -9.13c4.43,0 7.83,-1.26 10.2,-3.78 2.37,-2.52 3.55,-6.11 3.55,-10.77l0 -37.2c0,-4.66 -1.18,-8.25 -3.55,-10.76 -2.37,-2.52 -5.77,-3.78 -10.2,-3.78 -4.36,0 -7.74,1.26 -10.14,3.78 -2.41,2.52 -3.61,6.11 -3.61,10.76l0 37.2c0,4.66 1.2,8.25 3.61,10.77 2.4,2.52 5.79,3.78 10.14,3.78zm68.53 9.13c-4.96,0 -9.26,-0.94 -12.91,-2.82 -3.64,-1.88 -6.46,-4.6 -8.45,-8.17 -1.99,-3.57 -2.99,-7.8 -2.99,-12.68l0 -37.2c0,-4.96 1,-9.21 2.99,-12.74 1.99,-3.53 4.81,-6.24 8.45,-8.12 3.64,-1.88 7.95,-2.82 12.91,-2.82 4.96,0 9.24,0.96 12.85,2.87 3.61,1.92 6.39,4.64 8.34,8.17 1.95,3.53 2.93,7.74 2.93,12.62l-10.15 0c0,-4.66 -1.22,-8.25 -3.66,-10.76 -2.44,-2.52 -5.88,-3.78 -10.31,-3.78 -4.43,0 -7.91,1.26 -10.43,3.78 -2.52,2.52 -3.78,6.11 -3.78,10.76l0 37.2c0,4.66 1.26,8.25 3.78,10.77 2.52,2.52 5.99,3.78 10.43,3.78 4.43,0 7.87,-1.26 10.31,-3.78 2.44,-2.52 3.66,-6.11 3.66,-10.77l10.15 0c0,4.81 -0.98,9 -2.93,12.57 -1.95,3.57 -4.73,6.31 -8.34,8.23 -3.61,1.92 -7.89,2.87 -12.85,2.87z"/>
  <path class="fil1" d="M6.33 71.88l81.68 0c3.48,0 6.33,2.85 6.33,6.33l0 0c0,3.48 -2.85,6.33 -6.33,6.33l-81.68 0c-3.48,0 -6.33,-2.85 -6.33,-6.33l0 -0c0,-3.48 2.85,-6.33 6.33,-6.33z"/>
  <path class="fil1" d="M6.25 0l81.85 0c3.44,0 6.25,2.81 6.25,6.25l0 0c0,3.44 -2.81,6.25 -6.25,6.25l-81.85 0c-3.44,0 -6.25,-2.81 -6.25,-6.25l0 -0c0,-3.44 2.81,-6.25 6.25,-6.25z"/>
  <path class="fil1" d="M6.07 36.2l82.21 0c3.34,0 6.07,2.73 6.07,6.07l0 0c0,3.34 -2.73,6.07 -6.07,6.07l-82.21 0c-3.34,0 -6.07,-2.73 -6.07,-6.07l0 -0c0,-3.34 2.73,-6.07 6.07,-6.07z"/>
 </g>
</svg>
